<svg version="1.2" xmlns="http://www.w3.org/2000/svg" viewBox="0 0 500 154" width="500" height="154"><defs><clipPath clipPathUnits="userSpaceOnUse" id="cp1"><path d="m0-0.2h500v154.53h-500z"/></clipPath><clipPath clipPathUnits="userSpaceOnUse" id="cp2"><path d="m144.55 56.19q0 0 0 0c-28.06-1.83-57.62-0.68-84.21 14.94-5.64 3.35-11.28 7.36-16.68 11.28-13.4 9.65-27.22 19.54-43 19.63v-0.65c15.53-0.09 29.27-9.98 42.6-19.55 5.47-3.84 11.03-7.93 16.76-11.28 20.93-12.27 43.66-15.62 66.06-15.54 14.23 0 28.38 1.39 41.78 2.7l1.07 0.08c29.85 2.78 83.81 19.54 106.46 29.44 20.19 8.83 35.65 7.19 53.47 5.31 15.37-1.63 32.87-3.43 56.75 1.23 17.5 3.43 24.69 14.47 31.56 25.1 5.15 7.85 9.98 15.29 18.64 19.3 22.74 10.47 35-2.21 46.86-14.48 5.55-5.8 10.87-11.28 17-13.89l0.25 0.56c-6.05 2.62-11.28 8.02-16.76 13.83-11.45 11.85-24.37 25.18-47.51 14.55-8.91-4.09-13.74-11.61-18.89-19.54-6.86-10.55-13.9-21.42-31.15-24.86-23.79-4.66-41.21-2.86-56.58-1.23-17.91 1.89-33.45 3.52-53.81-5.39-22.64-9.9-76.53-26.66-106.29-29.44l-1.07-0.08q-0.09-0.01-0.18-0.02c-4.14-0.72-7.95-1.12-11.34-1.12q-0.25 0-0.53 0-1.27-0.11-2.55-0.22-4.03-0.68-7.47-0.68-0.64 0-1.24 0.02zm0 0q4.38 0.29 8.71 0.66 0.81 0.14 1.65 0.3-1.69 0.05-3.42 0.1c-3.89-0.53-7.36-0.57-10.28-0.02q-1.03 0.19-2.06 0.38-2.73 0.09-5.49 0.2 3.72-0.64 7.3-1.32c1.18-0.12 2.35-0.24 3.59-0.3zm100.99 42.33c5.81 3.27 10.8 6.05 14.48 8.02 21.42 11.28 35.16 6.45 52.65 0.4 15.87-5.48 33.86-11.69 62.39-7.52 21.01 3.03 28.29 15.37 35.24 27.31 5.07 8.42 9.73 16.44 19.14 21.1 24.85 12.18 37.93 0.32 50.61-11.12 6.29-5.73 12.26-11.13 19.62-13.74l0.25 0.57c-7.2 2.62-13.16 8.02-19.38 13.66-12.84 11.52-26.17 23.54-51.35 11.2-9.57-4.66-14.31-12.84-19.38-21.34-6.95-11.78-14.14-23.96-34.83-26.99-28.38-4.16-46.28 2.05-62.06 7.53-16.93 5.88-31.48 10.87-53.15-0.5-3.68-1.88-8.67-4.74-14.47-8.01-23.85-13.38-64.68-36.3-90.47-41.28q0.1 0 0.2-0.01c0.49 0 0.9 0 1.39 0q0.82 0 1.68 0.03c26.04 6.14 64.6 27.81 87.44 40.69zm-119.13-38.68c-23.38 4.01-49.96 8.51-68.19 21.18-1.88 1.31-3.68 2.62-5.56 3.93-15.86 11.12-32.14 22.65-51.02 22.65-0.25 0-0.49 0-0.82 0v-0.66q0.36 0 0.73 0c18.73 0 34.92-11.45 50.62-22.56 1.88-1.31 3.67-2.62 5.56-3.93 18.39-12.75 44.97-17.25 68.44-21.34q1.18-0.21 2.34-0.41 3.04-0.15 6.06-0.27-3.98 0.69-8.16 1.41zm140.97 36.8l0.24 0.16c20.85 10.06 35.81 6.71 53.15 2.78 15.62-3.43 33.36-7.43 59.53-3.02 19.29 3.19 26.49 14.88 33.43 26.16 5.08 8.18 9.82 15.95 18.98 20.2 23.71 11.28 36.38-0.9 48.65-12.75 5.97-5.73 11.53-11.12 18.31-13.83l0.25 0.58c-6.62 2.62-12.27 8.01-18.15 13.74-12.43 12.02-25.27 24.36-49.31 13-9.24-4.42-14.06-12.19-19.13-20.45-6.95-11.2-14.06-22.73-33.03-25.91-26.09-4.42-43.67-0.5-59.28 3.02-17.42 3.92-32.55 7.28-53.56-2.86l-0.25-0.16c-22.29-10.67-79.98-38.4-109.11-39.47q-1.63-0.38-3.19-0.68 0.06 0 0.12 0 0.37-0.07 0.78-0.08 6.01 0.54 11.87 1.12c30.91 5.4 79.65 28.86 99.7 38.45zm-115.89-39.39q1.62 0.23 3.34 0.56-3.95 0.12-8.14 0.24-5.97 0.16-12.12 0.38 2.32-0.4 4.58-0.82 3.81-0.12 7.54-0.22 2.44-0.07 4.8-0.14zm-17.83 0.56q-2.54 0.44-5.15 0.89c-23.87 1.21-48.82 4.48-69.23 17.42-4.17 2.7-8.42 5.64-12.51 8.5-14.23 9.98-28.86 20.28-45.71 20.28q-0.12 0-0.24 0v-0.66q0.12 0 0.24 0c16.6 0 31.24-10.3 45.38-20.19 4.09-2.86 8.34-5.89 12.51-8.5 22.04-13.95 49.19-16.72 74.71-17.74zm-11.01-7.53c19.79 0 39.82 3.59 60.09 7.77 10.96 2.29 23.72 4.17 37.13 6.21 23.71 3.6 48.24 7.28 63.12 13.08 19.38 7.61 35.16 7.77 53.48 8.02 15.29 0.16 32.62 0.41 54.37 5.4 15.7 3.59 22.82 13.97 29.6 23.95 5.15 7.61 10.06 14.72 18.4 18.48 21.75 9.65 34.1-4.09 45.05-16.19 5.24-5.72 10.14-11.2 15.7-13.82l0.25 0.58c-5.4 2.61-10.31 8.01-15.46 13.73-11.04 12.27-23.55 26.17-45.7 16.35-8.51-3.84-13.41-11.03-18.73-18.56-6.78-9.89-13.74-20.11-29.27-23.71-21.67-4.99-39-5.23-54.21-5.39-18.4-0.25-34.26-0.5-53.73-8.1-14.88-5.8-39.32-9.49-62.95-13.09-13.41-2.04-26.17-3.92-37.12-6.21-41.54-8.5-82.01-14.39-121.35 7.36-6.78 3.76-13.33 8.67-19.7 13.41-6.38 4.82-13 9.81-19.79 13.49-7.6 4.17-14.55 6.22-21.34 6.3v-0.66c14.88-0.24 27.47-9.64 40.8-19.62 6.38-4.74 13-9.73 19.79-13.49 20.28-11.2 40.8-15.13 61.57-15.29zm1.8-4.74c25.51 0 50.04 6.38 72.44 13.16 8.14 2.45 16.63 3.71 25.23 4.37 4.85 0.86 9.63 1.12 14.31 1.01q0.91 0.15 1.81 0.26c-14.06-0.21-28.24-1.03-41.59-5.06-40.07-12.11-86.84-22.98-134.1 1.88-7.77 4-15.04 9.73-22.16 15.28-13 10.14-25.26 19.71-39.9 20.04v-0.66c14.39-0.24 26.57-9.81 39.49-19.87 7.12-5.55 14.48-11.28 22.24-15.37 21.02-11.04 41.95-15.04 62.23-15.04zm117.75 18.22q1.56 0.01 3.12 0.01 0.23 0.07 0.46 0.15-2.54 0.13-5.17-0.04 0.8-0.06 1.59-0.12zm5.55 0.01q-0.35 0.03-0.69 0.06-0.11-0.03-0.22-0.06 0.45 0 0.91 0zm0 0q3.5-0.35 6.83-1.15 0.49 0.25 0.97 0.49-1.51 0.38-3.06 0.68-1.75-0.01-3.51-0.02-0.62 0-1.23 0zm12.29-2.71q1.68-0.32 3.33-0.64 0.22-0.05 0.44-0.09 0.07 0.04 0.14 0.09c-2.48 0.94-5.02 1.8-7.63 2.49q-0.49-0.23-0.98-0.47 2.39-0.61 4.7-1.38zm-5.46 1.56q-0.38-0.2-0.78-0.41 0.41-0.07 0.82-0.14 0.36 0.19 0.72 0.37 0 0 0 0-0.38 0.09-0.76 0.18zm9.98-2.44q-0.03 0.01-0.06 0.03-0.01-0.01-0.01-0.01 0.04-0.01 0.07-0.02zm23.56 6.77q-0.57-0.23-1.16-0.5 0.41-0.14 0.82-0.31c4.34 1.84 8.1 2.18 11.4 1.06q0.48-0.16 0.94-0.36 0.34 0.17 0.67 0.34-0.7 0.34-1.45 0.6-3.56 1.24-7.87 0.24-0.35-0.12-0.71-0.24-1.29-0.45-2.64-0.83zm18.45-5.79q0.28 0.08 0.57 0.16c-1.66 2.39-3.55 4.31-5.76 5.55q-0.32-0.16-0.65-0.32c2.24-1.15 4.16-3.02 5.84-5.39zm36.6 17.25c16.19 2.04 32.96 4.17 53.15 9.65 13.9 3.76 20.77 13.33 27.47 22.64 5.24 7.36 10.23 14.32 18.32 17.75 20.69 8.91 32.71-5.4 43.25-17.99 4.83-5.73 9.33-11.2 14.23-13.74l0.33 0.58c-4.83 2.53-9.32 7.85-14.07 13.57-10.71 12.75-22.81 27.31-43.99 18.23-8.17-3.59-13.24-10.55-18.56-17.99-6.62-9.16-13.4-18.72-27.14-22.4-20.12-5.48-36.88-7.61-53.07-9.65-17.66-2.29-34.34-4.41-52.49-10.71q-2.47-0.84-5.14-1.45 0.2-0.05 0.39-0.1 0.41-0.11 0.8-0.24 0.74 0.19 1.47 0.39 1.73 0.7 3.35 1.07c17.88 6.11 34.35 8.21 51.7 10.39zm-67.89-13.13c0 0-0.73 0.24-0.73 0.24q0 0 0 0c0.06-0.02 0.12-0.04 0 0-0.13 0.04-0.06 0.02 0 0q5.22 1.83 9.63 1.1 0.65 0.13 1.28 0.28c-3.59 0.88-7.47 0.51-11.77-1.14-3.9 1.03-8.27 0.97-13.3-0.67q0.54-0.09 1.07-0.2c4.23 1.24 8 1.32 11.41 0.54q-0.52-0.21-1.05-0.45 0.82 0.06 1.62 0.13 0.15 0.05 0.29 0.11 0.11-0.04 0.23-0.07 0.66 0.06 1.32 0.13zm0 0q0.64-0.23 1.26-0.49 4.76 0.53 9.07 1.52 0 0 0 0-0.71 0.19-1.43 0.31-4.24-0.88-8.9-1.34zm-12.34-0.73q0.97-0.25 1.93-0.55 2.78 0.09 5.47 0.26 0.75 0.38 1.48 0.72-4.32-0.31-8.88-0.43zm12.48 0.12q-0.72 0.27-1.46 0.48-0.26-0.02-0.52-0.04-0.86-0.35-1.75-0.76 1.89 0.14 3.73 0.32zm-25.92-0.24c3.56 0.72 6.87 0.79 9.99 0.35q0.46 0.16 0.9 0.31c-3.9 0.65-8.1 0.56-12.67-0.62q0.26-0.02 0.51-0.05 0.38 0.01 0.75 0.01 0.26 0 0.52 0zm11.6 0.08q0.92 0.02 1.84 0.04-0.74 0.19-1.48 0.34-0.45-0.13-0.91-0.28 0.28-0.04 0.55-0.1zm-13.58-0.09q-0.86-0.23-1.74-0.5 0.64-0.04 1.28-0.09 1 0.29 1.99 0.5-0.41 0.05-0.82 0.09 0 0 0 0-0.36 0-0.71 0zm4.97-0.63q2.32 0.01 4.62 0.04 0.78 0.34 1.55 0.64-4.51-0.05-9.16-0.04-0.22-0.05-0.45-0.1 1.74-0.21 3.44-0.54zm10.95 0.16q-1.15 0.33-2.34 0.56-0.45-0.01-0.91-0.02-0.86-0.29-1.74-0.64 2.52 0.03 4.99 0.1zm-136.29-23.89c4.25 0 8.58 0.16 13 0.57 25.83 2.21 50.12 10.63 70.48 18.48 7.59 2.96 15.07 4.12 22.34 4.25q0.61 0.15 1.22 0.28-6.05-0.13-12.07-0.57c-3.82-0.68-7.68-1.72-11.57-3.23-20.28-7.85-44.57-16.18-70.32-18.39-27.15-2.29-52.17 2.53-76.53 14.8-8.59 4.33-16.52 10.79-24.21 17.01-12.75 10.3-24.69 20.03-39 20.52v-0.66c14.06-0.48 26-10.14 38.59-20.44 7.69-6.29 15.62-12.75 24.29-17.09 20.52-10.3 41.54-15.37 63.78-15.53zm135.72 19.67c-32.75-20.77-60.88-32.83-88.3-37.91-34.75-6.46-69.66-1.71-106.54 14.32-11.37 4.9-21.18 14.22-30.58 23.13-12.18 11.45-23.63 22.32-37.37 23.22v-0.57c13.49-0.82 24.94-11.61 36.96-23.06 9.49-8.99 19.3-18.23 30.75-23.22 26.32-11.44 51.67-17.17 76.53-17.09 10.14 0 20.2 0.9 30.25 2.78 27.63 5.1 55.96 17.25 88.98 38.27q-0.21 0.04-0.43 0.08-0.12 0.03-0.25 0.05zm1.76-0.34q-0.43 0.17-0.87 0.34-0.11-0.06-0.21-0.13 0.54-0.11 1.08-0.21zm-4.59 1.67q-2.67 0.52-5.42 1.01-0.53-0.28-1.07-0.59c3.18-0.54 6.29-1.15 9.32-1.75q0.17 0.11 0.33 0.21-1.56 0.59-3.16 1.12zm-16.02 1.77q4.44-0.48 8.73-1.21 0.53 0.3 1.05 0.59-4.01 0.7-8.15 1.19 0.6 0.2 1.19 0.37-0.76 0-1.52 0-0.36-0.12-0.72-0.25 0.53-0.05 1.05-0.12 0 0 0 0-0.81-0.26-1.63-0.57-0.49 0.05-0.99 0.1-2.28-0.91-4.68-2.19c-49.47-26.24-104.66-46.11-172.45-14.63-10.06 4.66-18.97 12.59-27.63 20.2-12.35 10.87-24.04 21.17-37.94 21.83v-0.58c13.65-0.65 25.26-10.87 37.53-21.66 8.74-7.69 17.66-15.62 27.8-20.28 24.86-11.53 47.91-16.19 69.66-16.11 37.86 0 71.71 14.15 103.19 30.83q2.84 1.5 5.51 2.49zm-1.82 0.93q-1.66-0.01-3.32-0.03-1.33-0.15-2.69-0.38 3.46-0.09 6.84-0.42 0.79 0.32 1.57 0.59-1.2 0.13-2.4 0.24zm56.16-5.71q4.32 1.31 8.62 2.5-0.2 0.31-0.41 0.61-4.14-1.14-8.29-2.38-0.64-0.19-1.28-0.36 0.24-0.31 0.47-0.63 0.45 0.12 0.89 0.26zm43.99 11.36c18.65 4.42 37.86 9 59.2 15.78 12.11 3.85 18.81 12.76 25.35 21.35 5.4 7.11 10.55 13.89 18.32 17.08 19.86 8.18 31.39-6.78 41.61-19.86 4.42-5.65 8.51-10.96 12.76-13.5l0.33 0.5c-4.17 2.45-8.26 7.76-12.59 13.32-9.81 12.68-22.08 28.46-42.28 20.2-7.93-3.27-13.08-10.06-18.56-17.25-6.38-8.51-13.08-17.34-25.02-21.1-21.34-6.79-40.55-11.37-59.2-15.78-8.23-1.96-16.23-3.87-24.15-5.91q0.22-0.3 0.43-0.61c7.81 1.99 15.69 3.85 23.8 5.78zm-35.21-8.09q0.21-0.3 0.42-0.61 5.16 1.43 10.35 2.76-0.21 0.31-0.43 0.61-5.18-1.33-10.34-2.76zm-20.14-4.08q0.01-0.01 0.02-0.02-0.21-0.15-0.43-0.31-0.16 0.17-0.33 0.34-0.06 0-0.11 0 0.03 0.02 0.06 0.04 0.03-0.02 0.05-0.04 0.37-0.01 0.74-0.01-0.18 0.18-0.36 0.36 3.1 2.2 6.23 4.52 0.2-0.18 0.39-0.37-3.13-2.31-6.21-4.51-0.03 0-0.05 0zm0.7-0.73c3.13 0.05 6.18 0.39 9.13 1.12q-0.24 0.32-0.48 0.63c-3-0.71-6.11-1.01-9.3-1.02q-0.01-0.01-0.03-0.02 0.34-0.35 0.68-0.71zm-11.22 1.56q0.68-0.46 1.34-0.93 3.73-0.48 7.32-0.61 0.51 0.36 1.01 0.72c-3.15 0.04-6.37 0.35-9.67 0.82zm10.51-1.56q-0.2 0.2-0.4 0.4-0.28-0.2-0.56-0.4 0.48 0 0.96 0zm-22.43 3.67q1.82-0.71 3.59-1.46 2.59-0.49 5.14-0.91 0.45 0.3 0.9 0.61c-3.15 0.5-6.37 1.12-9.63 1.76zm12.09-2.88q-0.69 0.48-1.4 0.95-0.1 0.02-0.21 0.03-0.45-0.3-0.91-0.61 1.27-0.2 2.52-0.37zm-145.91-22.56c33.61 0 64.52 11.37 93.71 24.86 4.07 1.89 7.98 3.09 11.74 3.75q-1.6 0.03-3.22 0.01-4.22-1.05-8.68-3.1c-47.35-21.92-99.43-38.19-159.61-9.16-9.33 4.49-17.83 11.69-26 18.64-12.44 10.63-24.29 20.6-38.35 21.18v-0.58c13.9-0.57 25.59-10.46 38.02-21.01 8.18-6.95 16.68-14.23 26.08-18.73 23.3-11.28 45.47-15.69 66.31-15.86zm137.41 23.98q-1.75 0.33-3.52 0.67 3.44-1.37 6.74-2.87 0.35 0.24 0.71 0.48-1.94 0.87-3.93 1.72zm6.34-3.62q2.64-1.19 5.24-2.33 0.35 0.24 0.7 0.48-2.78 1.21-5.61 2.51-1.05 0.47-2.12 0.95-0.36-0.23-0.71-0.47 1.26-0.57 2.5-1.14zm11.23-4.75q-0.26 0.21-0.52 0.42-0.64 0.51-1.28 1.02-1.46 0.58-2.92 1.21-0.35-0.24-0.7-0.48 2.73-1.18 5.42-2.17zm20.17-2.03q3.07 0.77 6.21 1.62-0.11 0.3-0.23 0.61-3.06-0.82-6.06-1.58-1.35-0.34-2.68-0.52 0.16-0.31 0.32-0.63 1.22 0.19 2.44 0.5zm100.81 34.01c10.31 3.93 16.77 12.02 23.06 19.87 5.65 7.03 10.88 13.65 18.48 16.6 18.97 7.36 30.58-8.99 39.98-22.08 4.09-5.72 7.61-10.63 11.21-13.08l0.33 0.49c-3.52 2.37-7.04 7.28-11.04 12.92-9.49 13.32-21.26 29.85-40.64 22.32-7.69-3.03-13.09-9.65-18.73-16.76-6.21-7.77-12.67-15.78-22.81-19.63-27.93-10.6-57.12-21.48-83.74-29.34q0.09-0.31 0.18-0.63c26.63 7.85 55.75 18.72 83.72 29.32zm-94.27-31.63q0.11-0.31 0.23-0.61 4.79 1.29 9.71 2.74-0.09 0.32-0.18 0.63-4.95-1.46-9.76-2.76zm-18.08-2.02q0.31-0.41 0.63-0.81c2.6-0.39 5.21-0.47 7.83-0.14q-0.16 0.32-0.33 0.64c-2.73-0.31-5.43-0.16-8.13 0.31zm-8.69 2.44q0.02-0.01 0.03-0.02 0.83-0.66 1.65-1.32c2.29-0.77 4.58-1.39 6.86-1.78q-0.32 0.41-0.65 0.82c-2.62 0.52-5.25 1.32-7.89 2.3zm-51.47 12.52q2.35 0.06 4.69 0.09 0.87 0.09 1.73 0.15-2.07 0.15-4.18 0.2-1.11-0.19-2.24-0.44zm4.05 0.7q4.65 0.07 9.28 0.08 0.1 0.03 0.2 0.05c-3.06 0.29-6.21 0.28-9.48-0.13zm49.1-14.56q-0.81 0.28-1.62 0.57c4.8-3.85 9.5-7.55 14.47-9.81q-0.43 0.51-0.86 1.03c-4.08 2.05-8 5.04-11.99 8.21zm26.32-11.03q1 0.2 2.02 0.43-0.07 0.23-0.14 0.46-0.95-0.21-1.88-0.4-2.95-0.59-5.72-0.31 0.14-0.27 0.28-0.55 2.64-0.2 5.44 0.37zm77.83 31.07c7.29 3.44 14.15 6.79 20.61 9.73 8.42 3.85 14.56 11.12 20.44 18.07 5.97 7.03 11.53 13.66 18.97 16.35 18.07 6.55 29.28-10.63 38.35-24.44 3.51-5.48 6.62-10.14 9.57-12.43l0.41 0.49c-2.87 2.21-5.89 6.87-9.41 12.26-8.66 13.25-20.52 31.4-39.08 24.7-7.52-2.78-13.25-9.4-19.21-16.6-5.9-6.95-11.94-14.15-20.2-17.91-6.46-2.94-13.33-6.21-20.61-9.73-21.55-10.36-45.49-21.87-65.93-28.06q0.04-0.23 0.08-0.46c20.45 6.19 44.43 17.68 66.01 28.03zm-75.37-30.05q0.07-0.23 0.14-0.46 4.2 0.97 8.64 2.3-0.04 0.23-0.08 0.47-4.48-1.34-8.7-2.31zm-15.72 1.28q0.4-0.48 0.8-0.95c2.05-0.84 4.15-1.42 6.32-1.65q-0.15 0.28-0.29 0.56c-2.35 0.31-4.62 1.03-6.83 2.04zm-25.15 17.2q0.62-0.09 1.23-0.18-0.44 0.3-0.88 0.59-0.24-0.16-0.48-0.32 0 0 0 0-0.04-0.03-0.08-0.06-0.42 0.07-0.85 0.14 0.2 0.13 0.4 0.26 0.27-0.17 0.53-0.34 0.07-0.04 0.13-0.09zm-6.84 4.39q-0.26-0.14-0.52-0.3 0 0 0 0c2.32-1.01 4.54-2.26 6.7-3.66q0.24 0.17 0.48 0.33c-2.14 1.37-4.35 2.61-6.66 3.63zm-0.52-0.3q-0.27 0.12-0.55 0.24-0.67-0.41-1.36-0.86-1.02-0.65-2.03-1.3 0.28-0.11 0.55-0.21 0.86 0.55 1.73 1.11 0.84 0.54 1.66 1.02zm-3.02 1.66q-0.71-0.03-1.43-0.05 2-0.57 3.9-1.37 0.26 0.15 0.51 0.3-1.46 0.62-2.98 1.12zm19.05-12.21q0.87-0.34 1.74-0.67-1.69 1.36-3.43 2.73-0.25-0.17-0.49-0.34 1.09-0.85 2.18-1.72zm-6.1 5.35q-0.58 0.08-1.17 0.16 2.36-1.66 4.66-3.45 0.24 0.17 0.48 0.34-1.94 1.51-3.97 2.95zm-138.08-33.19q13.12 0 26.24 2.21c26.66 4.41 53.32 15.13 86.43 34.67q0.58 0.34 1.14 0.65-0.4 0.07-0.8 0.14-0.33-0.19-0.67-0.39c-32.94-19.54-59.6-30.17-86.18-34.58-32.87-5.4-65.17-0.66-98.93 14.47-10.71 4.83-20.04 13.41-29.11 21.67-12.27 11.12-23.8 21.75-37.62 22.49v-0.58c13.58-0.73 25.03-11.2 37.21-22.32 9.08-8.34 18.48-16.93 29.27-21.75 24.77-11.12 48.9-16.68 73.02-16.68zm155.24 23.92q-0.39 0.06-0.78 0.13 0.61-0.78 1.22-1.56 1.96-2.5 3.91-4.87 0.53-0.27 1.07-0.52c-1.5 1.8-2.99 3.71-4.49 5.63q-0.46 0.6-0.93 1.19zm6.22-7.77q-0.51 0.21-1.01 0.44c3.67-4.33 7.44-8.06 11.75-10.06q-0.23 0.36-0.46 0.73c-3.73 1.9-7.05 5.12-10.28 8.89zm20.14-11q2.71 0.42 5.62 1.14-0.04 0.25-0.09 0.5-2.91-0.73-5.61-1.15-0.91-0.13-1.79-0.17 0.09-0.24 0.17-0.49 0.84 0.05 1.7 0.17zm78.82 37.53c6.3 3.77 12.19 7.28 17.34 10.22 6.46 3.68 12.02 9.89 17.33 15.86 6.38 7.2 12.51 14.07 19.87 16.52 17.34 5.73 28.7-13.25 36.96-27.14 3.03-4.99 5.56-9.32 7.85-11.45l0.41 0.41c-2.21 2.04-4.74 6.29-7.69 11.28-8.42 14.07-19.87 33.36-37.69 27.39-7.61-2.53-13.65-9.4-20.2-16.68-5.31-5.97-10.79-12.18-17.17-15.78-5.15-2.94-11.04-6.46-17.33-10.22-23.09-13.8-51.35-30.7-72.4-36.15q0.05-0.25 0.1-0.5c21.17 5.44 49.46 22.36 72.62 36.24zm-87.66-35.9q0.21-0.34 0.43-0.68c1.91-0.75 3.92-1.16 6.08-1.13q-0.08 0.24-0.17 0.48c-2.26-0.01-4.36 0.47-6.34 1.33zm-54.05 33.12q-0.67-0.01-1.34-0.02-0.77-0.34-1.56-0.72 0.39-0.1 0.77-0.2 1.08 0.52 2.13 0.94zm22.53-1.49q-0.23-0.16-0.46-0.32c2.01-1.33 3.89-2.95 5.69-4.75q0.22 0.16 0.43 0.31c-1.79 1.79-3.66 3.41-5.66 4.76zm-4.44 2.43q-0.56-0.06-1.12-0.12 2.39-0.89 4.57-2.28 0.23 0.16 0.46 0.32-1.88 1.22-3.91 2.08zm-17.88-0.32q0.77 0.01 1.53 0.02 0.18 0.07 0.36 0.12-0.52 0.1-1.06 0.17-0.41-0.15-0.83-0.31zm34.89-15.65q0.4-0.07 0.8-0.14c-2.15 2.72-4.34 5.41-6.65 7.83q-0.35 0-0.71 0c2.28-2.37 4.44-5 6.56-7.69zm9.9-1q-0.32-0.05-0.64-0.09 1.4-2.67 2.75-5.38 0.84-1.69 1.67-3.34 0.36-0.05 0.71-0.08-0.9 1.77-1.81 3.58-1.32 2.67-2.68 5.31zm9.48-17.77q-0.5 0.2-0.99 0.43c3.05-4.86 6.46-8.69 10.78-10.33q-0.19 0.37-0.38 0.74c-3.68 1.64-6.69 4.97-9.41 9.16zm14.54-10.76c0.49 0 0.98 0 1.47 0.08q0.16 0.01 0.31 0.03-0.06 0.24-0.12 0.48-0.09-0.01-0.19-0.02c-2.11-0.2-4.03 0.06-5.8 0.71q0.18-0.35 0.36-0.69 1.87-0.58 3.97-0.59zm87.82 49.23c2.7 1.95 5.23 3.76 7.44 5.39 4.5 3.19 8.83 7.85 13.41 12.83 6.87 7.45 14.06 15.21 21.67 17.5 16.84 4.99 28.21-16.27 35.73-30.33 2.29-4.25 4.25-8.01 5.89-9.89l0.49 0.41c-1.56 1.88-3.52 5.55-5.81 9.8-7.6 14.23-19.05 35.82-36.38 30.59-7.77-2.37-14.96-10.14-21.92-17.66-4.58-4.99-8.91-9.65-13.33-12.84-2.2-1.55-4.74-3.43-7.43-5.4-23.6-17.37-62.85-46.24-85.31-48.97q0.06-0.24 0.12-0.48c22.56 2.82 61.88 31.7 85.43 49.05zm-152.09-8.58q0.28-0.1 0.56-0.21 0.36 0.23 0.73 0.47-0.34 0.06-0.68 0.13-0.3-0.19-0.61-0.39zm33.15-1.68q0.33 0.08 0.65 0.16-1.54 2.03-3.25 3.69-0.25-0.18-0.49-0.36 1.63-1.57 3.09-3.49zm-8.57 7.88q-0.35-0.15-0.7-0.31c2.12-0.81 4.03-2.09 5.79-3.71q0.25 0.18 0.49 0.35c-1.7 1.57-3.55 2.83-5.58 3.67zm-1.13 0.42q-0.51-0.13-1.04-0.25 0.32-0.09 0.63-0.19 0.36 0.17 0.72 0.33-0.15 0.06-0.31 0.11zm-18.8-3.68q0.28-0.11 0.56-0.24 1.68 0.97 3.28 1.71-0.67-0.05-1.35-0.09-1.22-0.63-2.49-1.38zm34.63-14.51q0.32 0.03 0.65 0.08c-1.76 3.34-3.6 6.55-5.66 9.34q-0.32-0.08-0.64-0.16c2.04-2.76 3.89-5.95 5.65-9.26zm9-17.16q0.51-0.25 1.02-0.48c-1.48 2.36-2.89 4.95-4.28 7.65q-0.35 0.03-0.7 0.07c1.29-2.54 2.59-4.99 3.96-7.24zm7.36-1.81q0.31 0 0.63 0.02c-1.05 2.98-2.03 6.13-3.03 9.33q-0.09 0.28-0.18 0.56-0.29-0.06-0.58-0.13 0.09-0.3 0.18-0.59c0.96-3.09 1.93-6.21 2.98-9.19zm-38.32 32.64q-0.27 0.18-0.53 0.35-0.01 0-0.02-0.01-2.47-1.72-4.9-3.37 0.26-0.17 0.53-0.35 2.33 1.59 4.7 3.23 0.11 0.08 0.22 0.15zm-8.53-5.8q-0.31 0.14-0.62 0.28c-32.05-21.28-60.26-33.88-88.05-39.44-36.72-7.44-74.08-2.78-114.15 14.15-11.94 5.07-22.07 14.96-31.88 24.61-12.02 11.86-23.47 23.06-37.13 24.04l-0.08-0.57c13.49-0.99 24.78-12.11 36.79-23.88 9.82-9.65 19.96-19.62 32.06-24.69 40.23-17.01 77.67-21.59 114.47-14.23 27.96 5.65 56.34 18.32 88.59 39.73zm51.51-36.36q-0.39 0.12-0.78 0.27c2.48-4.75 5.5-8.39 9.53-9.87q-0.18 0.42-0.36 0.85c-3.48 1.42-6.15 4.58-8.39 8.75zm12.8-10.32q0.25 0 0.5 0c23.63 0.9 75.22 45.79 91.41 61.49 2.21 2.04 4.58 4.66 7.11 7.44 7.61 8.34 17.17 18.72 25.76 20.93 16.6 4.34 28.37-20.85 34.67-34.34 1.55-3.36 2.78-5.97 3.76-7.52l0.49 0.33c-0.98 1.46-2.21 4.08-3.76 7.43-6.46 13.74-18.32 39.17-35.32 34.84-8.75-2.3-18.4-12.76-26.09-21.1-2.53-2.78-4.9-5.39-7.03-7.44-9.73-9.48-26.9-24.36-43.34-36.55-21.42-15.86-37.93-24.45-47.75-24.77q-0.25 0-0.49 0-1.9 0-3.55 0.54 0.17-0.41 0.36-0.82 1.54-0.45 3.27-0.46zm-24.43 40.99q0.28 0.08 0.56 0.15c-1.43 3.73-3 7.17-4.87 10.01q-0.29-0.08-0.58-0.16c1.89-2.81 3.47-6.26 4.89-10zm-39.79 6.45q0.31-0.14 0.62-0.29 0.72 0.48 1.43 0.96-0.42 0.07-0.84 0.14-0.61-0.41-1.21-0.81zm43.46-17.36q0.29 0.06 0.58 0.13c-1.1 3.5-2.23 7.01-3.46 10.32q-0.28-0.08-0.56-0.15c1.23-3.3 2.35-6.81 3.44-10.3zm6.8-18.75q0.4-0.17 0.8-0.32c-1.28 2.5-2.42 5.34-3.5 8.36q-0.31-0.01-0.63-0.01c1.02-2.85 2.11-5.57 3.33-8.03zm-35.26 44.94q-0.41 0.16-0.84 0.29-2.74-1.32-5.79-3.41 0.27-0.17 0.53-0.35 3.23 2.16 6.1 3.47zm57.24-65.84c-5.7 0.16-9.42 4.23-12.07 10.29q0.38-0.14 0.78-0.26c2.54-5.56 6.04-9.27 11.29-9.45 12.34-0.41 35.08 16.92 47.5 27.22 19.05 15.78 35.41 32.87 41.13 40.89 5.48 7.68 20.28 24.2 31.07 26.57 17.5 3.76 30.01-28.62 34.67-40.72 0.49-1.31 0.9-2.45 1.23-3.19l-0.58-0.24q-0.48 1.23-1.22 3.19c-4.66 12.02-17.01 43.99-33.93 40.31-9.73-2.05-23.8-16.6-30.66-26.33-12.11-16.93-66.73-68.36-88.72-68.36-0.16 0.08-0.33 0.08-0.49 0.08zm-18.24 35.16q-0.57 3.24-1.18 6.46 0.29 0.09 0.58 0.18 0.6-3.23 1.18-6.56 0.39-2.17 0.78-4.34-0.28-0.08-0.57-0.15-0.4 2.2-0.79 4.41zm-13.57 33.04c-3.09 1.19-6.75 0.76-11.13-1.32q-0.29 0.16-0.59 0.31c4.71 2.31 8.66 2.78 11.97 1.5 2.12-0.85 3.88-2.38 5.36-4.44q-0.32-0.08-0.64-0.16c-1.4 1.92-3.03 3.34-4.97 4.11zm-18.4-5.81q-0.18-0.14-0.36-0.27-0.2 0.18-0.39 0.36 0.21 0.16 0.43 0.32 3.37 2.5 6.33 4.05 0.31-0.14 0.61-0.29-3.07-1.55-6.62-4.17zm-102.04-50.69c-38.76-8.35-78.66-3.77-122.08 14.06-12.67 5.23-23.22 15.86-33.36 26.17-11.94 12.1-23.22 23.54-36.63 24.61v0.49c13.66-1.07 25.02-12.59 37.04-24.78 10.14-10.22 20.61-20.85 33.2-26 43.25-17.75 83.07-22.32 121.74-14.06 28.1 6.06 56.32 19.08 87.75 40.59q0.29-0.12 0.57-0.25c-31.61-21.67-59.99-34.76-88.23-40.83zm125.84 51.78q0.32 0.08 0.64 0.16c1.76-2.65 3.12-6.08 4.25-9.99q-0.3-0.09-0.61-0.18c-1.14 3.91-2.52 7.37-4.28 10.01zm-32.77-6.94q0.45-0.01 0.89-0.02-1.91-1.35-3.8-2.66-0.22 0.17-0.44 0.34 1.67 1.16 3.35 2.34zm-4.14-3.53q-0.29 0.12-0.57 0.25 0.44 0.3 0.88 0.6 0.21-0.17 0.43-0.34-0.37-0.25-0.74-0.51zm41.37-0.17q0.31 0.09 0.61 0.18c0.93-3.32 1.7-6.96 2.42-10.76q-0.29-0.09-0.58-0.17c-0.72 3.75-1.51 7.4-2.45 10.75zm4.59-22.59q0.29 0.07 0.58 0.15c0.66-3.59 1.37-7.13 2.2-10.44q-0.31-0.04-0.61-0.07c-0.82 3.3-1.51 6.81-2.17 10.36zm2.29-10.84q0.3 0.03 0.61 0.07c0.8-3.13 1.71-6.06 2.81-8.63q-0.4 0.13-0.78 0.29c-1.02 2.49-1.88 5.29-2.64 8.27z"/></clipPath><linearGradient id="P" gradientUnits="userSpaceOnUse"/><linearGradient id="g1" x2="1" href="#P" gradientTransform="matrix(-500,0,0,-160.833,500,72.355)"><stop stop-color="#0097ee"/><stop offset="0" stop-color="#0197ed"/><stop offset=".01" stop-color="#0298ec"/><stop offset=".01" stop-color="#0398eb"/><stop offset=".02" stop-color="#0499ea"/><stop offset=".02" stop-color="#0599e8"/><stop offset=".02" stop-color="#059ae7"/><stop offset=".03" stop-color="#069ae6"/><stop offset=".03" stop-color="#079be5"/><stop offset=".04" stop-color="#089be4"/><stop offset=".04" stop-color="#099ce3"/><stop offset=".04" stop-color="#0a9ce2"/><stop offset=".05" stop-color="#0b9de1"/><stop offset=".05" stop-color="#0c9de0"/><stop offset=".05" stop-color="#0d9edf"/><stop offset=".06" stop-color="#0e9edd"/><stop offset=".06" stop-color="#0f9fdc"/><stop offset=".07" stop-color="#109fdb"/><stop offset=".07" stop-color="#10a0da"/><stop offset=".07" stop-color="#11a0d9"/><stop offset=".08" stop-color="#12a1d8"/><stop offset=".08" stop-color="#13a1d7"/><stop offset=".09" stop-color="#14a2d6"/><stop offset=".09" stop-color="#15a2d5"/><stop offset=".09" stop-color="#16a2d4"/><stop offset=".1" stop-color="#17a3d2"/><stop offset=".1" stop-color="#18a3d1"/><stop offset=".11" stop-color="#19a4d0"/><stop offset=".11" stop-color="#1aa4cf"/><stop offset=".11" stop-color="#1ba5ce"/><stop offset=".12" stop-color="#1ba5cd"/><stop offset=".12" stop-color="#1ca6cc"/><stop offset=".13" stop-color="#1da6cb"/><stop offset=".13" stop-color="#1ea7ca"/><stop offset=".13" stop-color="#1fa7c9"/><stop offset=".14" stop-color="#20a8c7"/><stop offset=".14" stop-color="#21a8c6"/><stop offset=".14" stop-color="#22a9c5"/><stop offset=".15" stop-color="#23a9c4"/><stop offset=".15" stop-color="#24aac3"/><stop offset=".16" stop-color="#25aac2"/><stop offset=".16" stop-color="#26abc1"/><stop offset=".16" stop-color="#26abc0"/><stop offset=".17" stop-color="#27acbf"/><stop offset=".17" stop-color="#28acbe"/><stop offset=".18" stop-color="#29adbd"/><stop offset=".18" stop-color="#2aadbb"/><stop offset=".18" stop-color="#2baeba"/><stop offset=".19" stop-color="#2caeb9"/><stop offset=".19" stop-color="#2daeb8"/><stop offset=".2" stop-color="#2eafb7"/><stop offset=".2" stop-color="#2fafb6"/><stop offset=".2" stop-color="#30b0b5"/><stop offset=".21" stop-color="#31b0b4"/><stop offset=".21" stop-color="#31b1b3"/><stop offset=".21" stop-color="#32b1b2"/><stop offset=".22" stop-color="#33b2b0"/><stop offset=".22" stop-color="#34b2af"/><stop offset=".23" stop-color="#35b3ae"/><stop offset=".23" stop-color="#36b3ad"/><stop offset=".23" stop-color="#37b4ac"/><stop offset=".24" stop-color="#38b4ab"/><stop offset=".24" stop-color="#39b5aa"/><stop offset=".25" stop-color="#3ab5a9"/><stop offset=".25" stop-color="#3bb6a8"/><stop offset=".25" stop-color="#3cb6a7"/><stop offset=".26" stop-color="#3cb7a5"/><stop offset=".26" stop-color="#3db7a4"/><stop offset=".27" stop-color="#3eb8a3"/><stop offset=".27" stop-color="#3fb8a2"/><stop offset=".27" stop-color="#40b9a1"/><stop offset=".28" stop-color="#41b9a0"/><stop offset=".28" stop-color="#42ba9f"/><stop offset=".29" stop-color="#43ba9e"/><stop offset=".29" stop-color="#44bb9d"/><stop offset=".29" stop-color="#45bb9c"/><stop offset=".3" stop-color="#46bb9a"/><stop offset=".3" stop-color="#47bc99"/><stop offset=".3" stop-color="#47bc98"/><stop offset=".31" stop-color="#48bd97"/><stop offset=".31" stop-color="#49bd96"/><stop offset=".32" stop-color="#4abe95"/><stop offset=".32" stop-color="#4bbe94"/><stop offset=".32" stop-color="#4cbf93"/><stop offset=".33" stop-color="#4dbf92"/><stop offset=".33" stop-color="#4ec091"/><stop offset=".34" stop-color="#4fc08f"/><stop offset=".34" stop-color="#50c18e"/><stop offset=".34" stop-color="#51c18d"/><stop offset=".35" stop-color="#52c28c"/><stop offset=".35" stop-color="#52c28b"/><stop offset=".36" stop-color="#53c38a"/><stop offset=".36" stop-color="#54c389"/><stop offset=".36" stop-color="#55c488"/><stop offset=".37" stop-color="#56c487"/><stop offset=".37" stop-color="#57c586"/><stop offset=".38" stop-color="#58c585"/><stop offset=".38" stop-color="#59c683"/><stop offset=".38" stop-color="#5ac682"/><stop offset=".39" stop-color="#5bc781"/><stop offset=".39" stop-color="#5cc780"/><stop offset=".39" stop-color="#5dc77f"/><stop offset=".4" stop-color="#5dc87e"/><stop offset=".4" stop-color="#5ec87d"/><stop offset=".41" stop-color="#5fc97c"/><stop offset=".41" stop-color="#60c97b"/><stop offset=".41" stop-color="#61ca7a"/><stop offset=".42" stop-color="#62ca78"/><stop offset=".42" stop-color="#63cb77"/><stop offset=".43" stop-color="#64cb76"/><stop offset=".43" stop-color="#65cc75"/><stop offset=".43" stop-color="#66cc74"/><stop offset=".44" stop-color="#67cd73"/><stop offset=".44" stop-color="#68cd72"/><stop offset=".45" stop-color="#68ce71"/><stop offset=".45" stop-color="#69ce70"/><stop offset=".45" stop-color="#6acf6f"/><stop offset=".46" stop-color="#6bcf6d"/><stop offset=".46" stop-color="#6cd06c"/><stop offset=".46" stop-color="#6dd06b"/><stop offset=".47" stop-color="#6ed16a"/><stop offset=".47" stop-color="#6fd169"/><stop offset=".48" stop-color="#70d268"/><stop offset=".48" stop-color="#71d267"/><stop offset=".48" stop-color="#72d366"/><stop offset=".49" stop-color="#73d365"/><stop offset=".49" stop-color="#73d364"/><stop offset=".5" stop-color="#74d462"/><stop offset=".5" stop-color="#75d461"/><stop offset=".5" stop-color="#76d560"/><stop offset=".51" stop-color="#77d55f"/><stop offset=".51" stop-color="#78d65e"/><stop offset=".52" stop-color="#79d65d"/><stop offset=".52" stop-color="#7ad75c"/><stop offset=".52" stop-color="#7bd75b"/><stop offset=".53" stop-color="#7cd85a"/><stop offset=".53" stop-color="#7dd859"/><stop offset=".54" stop-color="#7dd858"/><stop offset=".54" stop-color="#7ed958"/><stop offset=".54" stop-color="#7fd859"/><stop offset=".55" stop-color="#80d75a"/><stop offset=".55" stop-color="#80d65b"/><stop offset=".55" stop-color="#81d55c"/><stop offset=".56" stop-color="#82d45e"/><stop offset=".56" stop-color="#82d35f"/><stop offset=".57" stop-color="#83d260"/><stop offset=".57" stop-color="#84d161"/><stop offset=".57" stop-color="#84d063"/><stop offset=".58" stop-color="#85cf64"/><stop offset=".58" stop-color="#86ce65"/><stop offset=".59" stop-color="#86cd66"/><stop offset=".59" stop-color="#87cc67"/><stop offset=".59" stop-color="#87cc69"/><stop offset=".6" stop-color="#88cb6a"/><stop offset=".6" stop-color="#89ca6b"/><stop offset=".61" stop-color="#89c96c"/><stop offset=".61" stop-color="#8ac86d"/><stop offset=".61" stop-color="#8bc76f"/><stop offset=".62" stop-color="#8bc670"/><stop offset=".62" stop-color="#8cc571"/><stop offset=".63" stop-color="#8dc472"/><stop offset=".63" stop-color="#8dc374"/><stop offset=".63" stop-color="#8ec275"/><stop offset=".64" stop-color="#8fc176"/><stop offset=".64" stop-color="#8fc077"/><stop offset=".64" stop-color="#90c078"/><stop offset=".65" stop-color="#91bf7a"/><stop offset=".65" stop-color="#91be7b"/><stop offset=".66" stop-color="#92bd7c"/><stop offset=".66" stop-color="#93bc7d"/><stop offset=".66" stop-color="#93bb7f"/><stop offset=".67" stop-color="#94ba80"/><stop offset=".67" stop-color="#95b981"/><stop offset=".68" stop-color="#95b882"/><stop offset=".68" stop-color="#96b783"/><stop offset=".68" stop-color="#97b685"/><stop offset=".69" stop-color="#97b586"/><stop offset=".69" stop-color="#98b487"/><stop offset=".7" stop-color="#98b388"/><stop offset=".7" stop-color="#99b389"/><stop offset=".7" stop-color="#9ab28b"/><stop offset=".71" stop-color="#9ab18c"/><stop offset=".71" stop-color="#9bb08d"/><stop offset=".71" stop-color="#9caf8e"/><stop offset=".72" stop-color="#9cae90"/><stop offset=".72" stop-color="#9dad91"/><stop offset=".73" stop-color="#9eac92"/><stop offset=".73" stop-color="#9eab93"/><stop offset=".73" stop-color="#9faa94"/><stop offset=".74" stop-color="#a0a996"/><stop offset=".74" stop-color="#a0a897"/><stop offset=".75" stop-color="#a1a798"/><stop offset=".75" stop-color="#a2a799"/><stop offset=".75" stop-color="#a2a69a"/><stop offset=".76" stop-color="#a3a59c"/><stop offset=".76" stop-color="#a4a49d"/><stop offset=".77" stop-color="#a4a39e"/><stop offset=".77" stop-color="#a5a29f"/><stop offset=".77" stop-color="#a6a1a1"/><stop offset=".78" stop-color="#a6a0a2"/><stop offset=".78" stop-color="#a79fa3"/><stop offset=".79" stop-color="#a89ea4"/><stop offset=".79" stop-color="#a89da5"/><stop offset=".79" stop-color="#a99ca7"/><stop offset=".8" stop-color="#aa9ba8"/><stop offset=".8" stop-color="#aa9aa9"/><stop offset=".8" stop-color="#ab9aaa"/><stop offset=".81" stop-color="#ab99ac"/><stop offset=".81" stop-color="#ac98ad"/><stop offset=".82" stop-color="#ad97ae"/><stop offset=".82" stop-color="#ad96af"/><stop offset=".82" stop-color="#ae95b0"/><stop offset=".83" stop-color="#af94b2"/><stop offset=".83" stop-color="#af93b3"/><stop offset=".84" stop-color="#b092b4"/><stop offset=".84" stop-color="#b191b5"/><stop offset=".84" stop-color="#b190b6"/><stop offset=".85" stop-color="#b28fb8"/><stop offset=".85" stop-color="#b38eb9"/><stop offset=".86" stop-color="#b38eba"/><stop offset=".86" stop-color="#b48dbb"/><stop offset=".86" stop-color="#b58cbd"/><stop offset=".87" stop-color="#b58bbe"/><stop offset=".87" stop-color="#b68abf"/><stop offset=".88" stop-color="#b789c0"/><stop offset=".88" stop-color="#b788c1"/><stop offset=".88" stop-color="#b887c3"/><stop offset=".89" stop-color="#b986c4"/><stop offset=".89" stop-color="#b985c5"/><stop offset=".89" stop-color="#ba84c6"/><stop offset=".9" stop-color="#bb83c7"/><stop offset=".9" stop-color="#bb82c9"/><stop offset=".91" stop-color="#bc81ca"/><stop offset=".91" stop-color="#bd81cb"/><stop offset=".91" stop-color="#bd80cc"/><stop offset=".92" stop-color="#be7fce"/><stop offset=".92" stop-color="#be7ecf"/><stop offset=".93" stop-color="#bf7dd0"/><stop offset=".93" stop-color="#c07cd1"/><stop offset=".93" stop-color="#c07bd2"/><stop offset=".94" stop-color="#c17ad4"/><stop offset=".94" stop-color="#c279d5"/><stop offset=".95" stop-color="#c278d6"/><stop offset=".95" stop-color="#c377d7"/><stop offset=".95" stop-color="#c476d9"/><stop offset=".96" stop-color="#c475da"/><stop offset=".96" stop-color="#c575db"/><stop offset=".96" stop-color="#c674dc"/><stop offset=".97" stop-color="#c673dd"/><stop offset=".97" stop-color="#c772df"/><stop offset=".98" stop-color="#c871e0"/><stop offset=".98" stop-color="#c870e1"/><stop offset=".98" stop-color="#c96fe2"/><stop offset=".99" stop-color="#ca6ee3"/><stop offset=".99" stop-color="#ca6de5"/><stop offset="1" stop-color="#cb6de5"/><stop offset="1" stop-color="#cb6ce6"/></linearGradient></defs><style>.a{fill:url(#g1)}</style><g clip-path="url(#cp1)"><g clip-path="url(#cp2)"><path fill-rule="evenodd" class="a" d="m500-4.5v160.8h-500v-160.8z"/></g></g></svg>