<svg version="1.2" xmlns="http://www.w3.org/2000/svg" viewBox="0 0 500 155" width="500" height="155"><defs><clipPath clipPathUnits="userSpaceOnUse" id="cp1"><path d="m0 1.33h500v154.67h-500z"/></clipPath><clipPath clipPathUnits="userSpaceOnUse" id="cp2"><path d="m144.55 57.67c-28.06-1.84-57.62-0.68-84.21 14.93-5.64 3.36-11.28 7.36-16.68 11.29-13.4 9.65-27.22 19.54-43 19.62v-0.65c15.53-0.08 29.27-9.98 42.6-19.55 5.47-3.84 11.03-7.92 16.76-11.28 20.93-12.26 43.66-15.62 66.06-15.54 14.23 0 28.38 1.4 41.78 2.7l1.07 0.09c29.85 2.78 83.81 19.54 106.46 29.43 20.19 8.83 35.65 7.2 53.47 5.32 15.37-1.64 32.87-3.44 56.75 1.23 17.5 3.43 24.69 14.46 31.56 25.09 5.15 7.85 9.98 15.3 18.64 19.3 22.74 10.47 35-2.21 46.86-14.47 5.55-5.81 10.87-11.28 17-13.9l0.25 0.57c-6.05 2.62-11.28 8.01-16.76 13.82-11.45 11.86-24.37 25.18-47.51 14.55-8.91-4.08-13.74-11.61-18.89-19.54-6.86-10.54-13.9-21.42-31.15-24.86-23.79-4.65-41.21-2.86-56.58-1.22-17.91 1.88-33.45 3.51-53.81-5.4-22.64-9.89-76.53-26.65-106.29-29.43l-1.07-0.09q-0.09-0.01-0.18-0.02c-4.14-0.72-7.95-1.12-11.34-1.12q-0.25 0-0.53 0.01-1.27-0.12-2.55-0.22-4.03-0.68-7.47-0.69-0.64 0-1.24 0.03zm10.36 0.95q-1.69 0.06-3.42 0.11c-3.89-0.53-7.36-0.58-10.28-0.03q-1.03 0.2-2.06 0.39-2.73 0.09-5.49 0.19 3.72-0.64 7.3-1.31c1.18-0.13 2.35-0.25 3.59-0.3q4.38 0.29 8.71 0.66 0.81 0.13 1.65 0.29zm90.63 41.37c5.81 3.28 10.8 6.06 14.48 8.02 21.42 11.28 35.16 6.46 52.65 0.41 15.87-5.48 33.86-11.7 62.39-7.52 21.01 3.02 28.29 15.37 35.24 27.3 5.07 8.42 9.73 16.44 19.14 21.1 24.85 12.18 37.93 0.32 50.61-11.12 6.29-5.72 12.26-11.12 19.62-13.74l0.25 0.58c-7.2 2.61-13.16 8.01-19.38 13.65-12.84 11.53-26.17 23.55-51.35 11.2-9.57-4.66-14.31-12.83-19.38-21.34-6.95-11.77-14.14-23.96-34.83-26.98-28.38-4.17-46.28 2.04-62.06 7.52-16.93 5.89-31.48 10.88-53.15-0.49-3.68-1.88-8.67-4.74-14.47-8.01-23.85-13.39-64.68-36.31-90.47-41.29q0.1 0 0.2 0c0.49 0 0.9 0 1.39 0q0.82 0 1.68 0.03c26.04 6.14 64.6 27.8 87.44 40.68zm-119.13-38.67c-23.38 4.01-49.96 8.5-68.19 21.17-1.88 1.32-3.68 2.62-5.56 3.93-15.86 11.12-32.14 22.65-51.02 22.65-0.25 0-0.49 0-0.82 0v-0.65q0.36 0 0.73 0c18.73 0 34.92-11.45 50.62-22.57 1.88-1.31 3.67-2.62 5.56-3.92 18.39-12.76 44.97-17.26 68.44-21.35q1.18-0.2 2.34-0.4 3.04-0.16 6.06-0.27-3.98 0.69-8.16 1.41zm140.97 36.79l0.24 0.17c20.85 10.05 35.81 6.7 53.15 2.78 15.62-3.44 33.36-7.44 59.53-3.03 19.29 3.19 26.49 14.89 33.43 26.17 5.08 8.17 9.82 15.94 18.98 20.2 23.71 11.28 36.38-0.91 48.65-12.76 5.97-5.72 11.53-11.12 18.31-13.82l0.25 0.57c-6.62 2.62-12.27 8.02-18.15 13.74-12.43 12.02-25.27 24.36-49.31 13-9.24-4.42-14.06-12.18-19.13-20.44-6.95-11.21-14.06-22.73-33.03-25.92-26.09-4.42-43.67-0.49-59.28 3.02-17.42 3.93-32.55 7.28-53.56-2.86l-0.25-0.16c-22.29-10.67-79.98-38.4-109.11-39.46q-1.63-0.39-3.19-0.69 0.06 0 0.12 0 0.37-0.07 0.78-0.07 6.01 0.54 11.87 1.11c30.91 5.41 79.65 28.86 99.7 38.45zm-115.89-39.38q1.62 0.22 3.34 0.55-3.95 0.12-8.14 0.24-5.97 0.16-12.12 0.39 2.32-0.41 4.58-0.82 3.81-0.12 7.54-0.23 2.44-0.06 4.8-0.13zm-17.83 0.55q-2.54 0.44-5.15 0.9c-23.87 1.2-48.82 4.48-69.23 17.41-4.17 2.7-8.42 5.64-12.51 8.5-14.23 9.98-28.86 20.28-45.71 20.28q-0.12 0-0.24 0v-0.65q0.12 0 0.24 0c16.6 0 31.24-10.3 45.38-20.2 4.09-2.86 8.34-5.88 12.51-8.5 22.04-13.95 49.19-16.72 74.71-17.74zm-11.01-7.52c19.79 0 39.82 3.59 60.09 7.76 10.96 2.29 23.72 4.17 37.13 6.21 23.71 3.6 48.24 7.28 63.12 13.09 19.38 7.6 35.16 7.76 53.48 8.01 15.29 0.16 32.62 0.41 54.37 5.4 15.7 3.59 22.82 13.98 29.6 23.95 5.15 7.61 10.06 14.72 18.4 18.48 21.75 9.65 34.1-4.08 45.05-16.19 5.24-5.72 10.14-11.2 15.7-13.81l0.25 0.57c-5.4 2.61-10.31 8.01-15.46 13.73-11.04 12.27-23.55 26.17-45.7 16.36-8.51-3.85-13.41-11.04-18.73-18.56-6.78-9.9-13.74-20.12-29.27-23.71-21.67-4.99-39-5.24-54.21-5.4-18.4-0.25-34.26-0.49-53.73-8.1-14.88-5.8-39.32-9.48-62.95-13.08-13.41-2.04-26.17-3.92-37.12-6.21-41.54-8.5-82.01-14.4-121.35 7.35-6.78 3.76-13.33 8.67-19.7 13.42-6.38 4.82-13 9.81-19.79 13.49-7.6 4.17-14.55 6.21-21.34 6.29v-0.65c14.88-0.25 27.47-9.65 40.8-19.62 6.38-4.75 13-9.74 19.79-13.5 20.28-11.2 40.8-15.12 61.57-15.28zm1.8-4.75c25.51 0 50.04 6.38 72.44 13.17 8.14 2.44 16.63 3.71 25.23 4.36 4.85 0.86 9.63 1.13 14.31 1.01q0.91 0.16 1.81 0.27c-14.06-0.21-28.24-1.03-41.59-5.08-40.07-12.09-86.84-22.97-134.1 1.89-7.77 4.01-15.04 9.73-22.16 15.29-13 10.14-25.26 19.7-39.9 20.03v-0.65c14.39-0.25 26.57-9.82 39.49-19.87 7.12-5.56 14.48-11.28 22.24-15.37 21.02-11.04 41.95-15.05 62.23-15.05zm117.75 18.22q1.56 0.01 3.12 0.01 0.23 0.08 0.46 0.15-2.54 0.14-5.17-0.04 0.8-0.05 1.59-0.12zm5.55 0.01q-0.35 0.04-0.69 0.07-0.11-0.03-0.22-0.07 0.45 0 0.91 0zm0 0q3.5-0.34 6.83-1.14 0.49 0.25 0.97 0.48-1.51 0.38-3.06 0.68-1.75-0.01-3.51-0.02-0.62 0-1.23 0zm12.29-2.7q1.68-0.33 3.33-0.65 0.22-0.04 0.44-0.09 0.07 0.05 0.14 0.09c-2.48 0.95-5.02 1.81-7.63 2.5q-0.49-0.23-0.98-0.48 2.39-0.6 4.7-1.37zm4.52-0.88q-0.03 0.01-0.06 0.02-0.01 0-0.01-0.01 0.04-0.01 0.07-0.01zm23.56 6.76q-0.57-0.23-1.16-0.49 0.41-0.15 0.82-0.32c4.34 1.85 8.1 2.19 11.4 1.07q0.48-0.17 0.94-0.37 0.34 0.18 0.67 0.34-0.7 0.35-1.45 0.6-3.56 1.24-7.87 0.24-0.35-0.12-0.71-0.24-1.29-0.45-2.64-0.83zm18.45-5.78q0.28 0.08 0.57 0.16c-1.66 2.39-3.55 4.31-5.76 5.54q-0.32-0.15-0.65-0.32c2.24-1.14 4.16-3.01 5.84-5.38zm36.6 17.24c16.19 2.05 32.96 4.17 53.15 9.65 13.9 3.76 20.77 13.33 27.47 22.65 5.24 7.36 10.23 14.31 18.32 17.74 20.69 8.91 32.71-5.39 43.25-17.99 4.83-5.72 9.33-11.2 14.23-13.73l0.33 0.57c-4.83 2.53-9.32 7.85-14.07 13.57-10.71 12.76-22.81 27.31-43.99 18.24-8.17-3.6-13.24-10.55-18.56-17.99-6.62-9.16-13.4-18.73-27.14-22.41-20.12-5.48-36.88-7.6-53.07-9.64-17.66-2.3-34.34-4.42-52.49-10.72q-2.47-0.83-5.14-1.45 0.2-0.05 0.39-0.1 0.41-0.11 0.8-0.24 0.74 0.19 1.47 0.39 1.73 0.7 3.35 1.07c17.88 6.11 34.35 8.21 51.7 10.39zm-68.62-12.89q-0.41-0.14-0.82-0.3 0.11-0.03 0.23-0.06 0.66 0.06 1.32 0.12-0.37 0.13-0.73 0.24zm0.73-0.24q0 0 0 0 0.64-0.22 1.26-0.48 4.76 0.52 9.07 1.51 0 0 0 0-0.71 0.19-1.43 0.31-4.24-0.88-8.9-1.34 0 0 0 0zm-12.34-0.72q0.97-0.25 1.93-0.56 2.78 0.09 5.47 0.26 0.75 0.39 1.48 0.72-4.32-0.31-8.88-0.42zm12.48 0.12q-0.72 0.26-1.46 0.48-0.26-0.03-0.52-0.05-0.86-0.34-1.75-0.76 1.89 0.14 3.73 0.33zm-25.92-0.25c3.56 0.73 6.87 0.79 9.99 0.36q0.46 0.16 0.9 0.3c-3.9 0.66-8.1 0.56-12.67-0.61q0.26-0.03 0.51-0.05 0.38 0 0.75 0 0.26 0 0.52 0zm11.6 0.09q0.92 0.01 1.84 0.04-0.74 0.18-1.48 0.34-0.45-0.13-0.91-0.28 0.28-0.05 0.55-0.1zm-13.58-0.1q-0.86-0.22-1.74-0.5 0.64-0.03 1.28-0.08 1 0.28 1.99 0.5-0.41 0.04-0.82 0.09 0 0 0 0-0.36 0-0.71-0.01zm4.97-0.63q2.32 0.02 4.62 0.04 0.78 0.35 1.55 0.65-4.51-0.06-9.16-0.05-0.22-0.04-0.45-0.09 1.74-0.22 3.44-0.55zm10.95 0.16q-1.15 0.33-2.34 0.57-0.45-0.01-0.91-0.02-0.86-0.29-1.74-0.65 2.52 0.03 4.99 0.1zm-136.29-23.89c4.25 0 8.58 0.17 13 0.57 25.83 2.21 50.12 10.63 70.48 18.48 7.59 2.97 15.07 4.13 22.34 4.25q0.61 0.15 1.22 0.29-6.05-0.13-12.07-0.58c-3.82-0.67-7.68-1.71-11.57-3.22-20.28-7.85-44.57-16.19-70.32-18.4-27.15-2.28-52.17 2.54-76.53 14.8-8.59 4.34-16.52 10.8-24.21 17.01-12.75 10.3-24.69 20.03-39 20.53v-0.66c14.06-0.49 26-10.14 38.59-20.44 7.69-6.3 15.62-12.76 24.29-17.09 20.52-10.3 41.54-15.37 63.78-15.54zm135.72 19.68c-32.75-20.77-60.88-32.84-88.3-37.91-34.75-6.46-69.66-1.72-106.54 14.31-11.37 4.91-21.18 14.22-30.58 23.13-12.18 11.45-23.63 22.33-37.37 23.23v-0.57c13.49-0.82 24.94-11.61 36.96-23.06 9.49-9 19.3-18.24 30.75-23.23 26.32-11.44 51.67-17.16 76.53-17.08 10.14 0 20.2 0.9 30.25 2.78 27.63 5.09 55.96 17.24 88.98 38.26q-0.21 0.05-0.43 0.09-0.12 0.02-0.25 0.05zm1.76-0.35q-0.43 0.18-0.87 0.35-0.11-0.07-0.21-0.14 0.54-0.1 1.08-0.21zm-4.59 1.68q-2.67 0.52-5.42 1-0.53-0.28-1.07-0.58c3.18-0.55 6.29-1.16 9.32-1.75q0.17 0.1 0.33 0.21-1.56 0.59-3.16 1.12zm-16.02 1.77q4.44-0.48 8.73-1.22 0.53 0.31 1.05 0.59-4.01 0.7-8.15 1.2 0.6 0.19 1.19 0.36-0.76 0-1.52 0-0.36-0.12-0.72-0.24 0.53-0.06 1.05-0.12 0 0 0 0-0.81-0.26-1.63-0.57-0.49 0.05-0.99 0.1-2.28-0.91-4.68-2.19c-49.47-26.25-104.66-46.12-172.45-14.64-10.06 4.66-18.97 12.6-27.63 20.2-12.35 10.88-24.04 21.18-37.94 21.83v-0.57c13.65-0.65 25.26-10.88 37.53-21.67 8.74-7.69 17.66-15.61 27.8-20.28 24.86-11.53 47.91-16.19 69.66-16.11 37.86 0 71.71 14.15 103.19 30.83q2.84 1.5 5.51 2.5zm-1.82 0.92q-1.66-0.01-3.32-0.03-1.33-0.14-2.69-0.38 3.46-0.08 6.84-0.41 0.79 0.31 1.57 0.59-1.2 0.13-2.4 0.23zm56.16-5.71q4.32 1.31 8.62 2.51-0.2 0.31-0.41 0.61-4.14-1.15-8.29-2.38-0.64-0.2-1.28-0.36 0.24-0.31 0.47-0.63 0.45 0.12 0.89 0.25zm43.99 11.37c18.65 4.41 37.86 8.99 59.2 15.78 12.11 3.84 18.81 12.75 25.35 21.34 5.4 7.11 10.55 13.9 18.32 17.09 19.86 8.18 31.39-6.79 41.61-19.87 4.42-5.64 8.51-10.96 12.76-13.5l0.33 0.5c-4.17 2.45-8.26 7.76-12.59 13.33-9.81 12.67-22.08 28.45-42.28 20.19-7.93-3.27-13.08-10.06-18.56-17.25-6.38-8.51-13.08-17.33-25.02-21.1-21.34-6.79-40.55-11.36-59.2-15.78-8.23-1.96-16.23-3.87-24.15-5.9q0.22-0.3 0.43-0.62c7.81 2 15.69 3.85 23.8 5.79zm-35.21-8.09q0.21-0.3 0.42-0.61 5.16 1.43 10.35 2.75-0.21 0.32-0.43 0.61-5.18-1.33-10.34-2.75zm-20.14-4.08q0.01-0.02 0.02-0.03-0.21-0.15-0.43-0.3-0.16 0.16-0.33 0.33-0.06 0-0.11 0 0.03 0.02 0.06 0.05 0.03-0.03 0.05-0.05 0.37 0 0.74 0-0.18 0.18-0.36 0.35 3.1 2.21 6.23 4.52 0.2-0.18 0.39-0.37-3.13-2.3-6.21-4.5-0.03 0-0.05 0zm0.7-0.73c3.13 0.05 6.18 0.38 9.13 1.11q-0.24 0.32-0.48 0.64c-3-0.72-6.11-1.02-9.3-1.02q-0.01-0.02-0.03-0.03 0.34-0.35 0.68-0.7zm-11.22 1.55q0.68-0.45 1.34-0.92 3.73-0.49 7.32-0.61 0.51 0.35 1.01 0.71c-3.15 0.04-6.37 0.36-9.67 0.82zm10.51-1.56q-0.2 0.21-0.4 0.41-0.28-0.2-0.56-0.4 0.48-0.01 0.96-0.01zm-22.43 3.68q1.82-0.71 3.59-1.47 2.59-0.49 5.14-0.91 0.45 0.31 0.9 0.61c-3.15 0.51-6.37 1.13-9.63 1.77zm12.09-2.89q-0.69 0.49-1.4 0.96-0.1 0.01-0.21 0.03-0.45-0.31-0.91-0.61 1.27-0.2 2.52-0.38zm-145.91-22.55c33.61 0 64.52 11.36 93.71 24.85 4.07 1.9 7.98 3.1 11.74 3.75q-1.6 0.04-3.22 0.01-4.22-1.04-8.68-3.1c-47.35-21.91-99.43-38.19-159.61-9.16-9.33 4.5-17.83 11.7-26 18.64-12.44 10.63-24.29 20.61-38.35 21.18v-0.57c13.9-0.58 25.59-10.47 38.02-21.02 8.18-6.95 16.68-14.22 26.08-18.72 23.3-11.28 45.47-15.7 66.31-15.86zm137.41 23.97q-1.75 0.33-3.52 0.67 3.44-1.37 6.74-2.86 0.35 0.23 0.71 0.47-1.94 0.87-3.93 1.72zm6.34-3.61q2.64-1.2 5.24-2.34 0.35 0.24 0.7 0.48-2.78 1.21-5.61 2.51-1.05 0.48-2.12 0.96-0.36-0.24-0.71-0.47 1.26-0.57 2.5-1.14zm11.23-4.75q-0.26 0.2-0.52 0.41-0.64 0.52-1.28 1.03-1.46 0.58-2.92 1.2-0.35-0.24-0.7-0.47 2.73-1.18 5.42-2.17zm20.17-2.04q3.07 0.78 6.21 1.62-0.11 0.31-0.23 0.61-3.06-0.82-6.06-1.58-1.35-0.33-2.68-0.52 0.16-0.31 0.32-0.62 1.22 0.18 2.44 0.49zm100.81 34.02c10.31 3.92 16.77 12.01 23.06 19.87 5.65 7.03 10.88 13.65 18.48 16.59 18.97 7.36 30.58-8.99 39.98-22.07 4.09-5.73 7.61-10.63 11.21-13.09l0.33 0.49c-3.52 2.37-7.04 7.28-11.04 12.92-9.49 13.33-21.26 29.85-40.64 22.32-7.69-3.02-13.09-9.64-18.73-16.76-6.21-7.76-12.67-15.78-22.81-19.62-27.93-10.61-57.12-21.49-83.74-29.35q0.09-0.31 0.18-0.63c26.63 7.85 55.75 18.73 83.72 29.33zm-94.27-31.64q0.11-0.3 0.23-0.61 4.79 1.3 9.71 2.74-0.09 0.32-0.18 0.63-4.95-1.45-9.76-2.76zm-18.08-2.02q0.31-0.4 0.63-0.8c2.6-0.39 5.21-0.48 7.83-0.14q-0.16 0.31-0.33 0.63c-2.73-0.3-5.43-0.16-8.13 0.31zm-8.69 2.45q0.02-0.01 0.03-0.03 0.83-0.66 1.65-1.31c2.29-0.77 4.58-1.39 6.86-1.79q-0.32 0.42-0.65 0.83c-2.62 0.51-5.25 1.32-7.89 2.3zm-51.47 12.52q2.35 0.05 4.69 0.08 0.87 0.1 1.73 0.15-2.07 0.15-4.18 0.2-1.11-0.18-2.24-0.43zm4.05 0.7q4.65 0.06 9.28 0.07 0.1 0.03 0.2 0.06c-3.06 0.28-6.21 0.27-9.48-0.13zm49.1-14.56q-0.81 0.27-1.62 0.57c4.8-3.85 9.5-7.56 14.47-9.82q-0.43 0.51-0.86 1.03c-4.08 2.05-8 5.04-11.99 8.22zm26.32-11.04q1 0.21 2.02 0.44-0.07 0.22-0.14 0.45-0.95-0.21-1.88-0.4-2.95-0.58-5.72-0.31 0.14-0.27 0.28-0.54 2.64-0.2 5.44 0.36zm77.83 31.08c7.29 3.43 14.15 6.78 20.61 9.73 8.42 3.84 14.56 11.12 20.44 18.06 5.97 7.03 11.53 13.66 18.97 16.36 18.07 6.54 29.28-10.63 38.35-24.45 3.51-5.48 6.62-10.14 9.57-12.43l0.41 0.49c-2.87 2.21-5.89 6.87-9.41 12.27-8.66 13.24-20.52 31.39-39.08 24.69-7.52-2.78-13.25-9.4-19.21-16.6-5.9-6.95-11.94-14.14-20.2-17.9-6.46-2.95-13.33-6.22-20.61-9.73-21.55-10.37-45.49-21.88-65.93-28.06q0.04-0.24 0.08-0.47c20.45 6.19 44.43 17.68 66.01 28.04zm-75.37-30.06q0.07-0.22 0.14-0.45 4.2 0.96 8.64 2.3-0.04 0.23-0.08 0.46-4.48-1.34-8.7-2.31zm-15.72 1.29q0.4-0.48 0.8-0.95c2.05-0.84 4.15-1.43 6.32-1.66q-0.15 0.28-0.29 0.56c-2.35 0.31-4.62 1.03-6.83 2.05zm-25.15 17.2q0.62-0.1 1.23-0.19-0.44 0.3-0.88 0.6-0.24-0.17-0.48-0.33 0 0 0 0-0.04-0.02-0.08-0.05-0.42 0.06-0.85 0.13 0.2 0.13 0.4 0.27 0.27-0.17 0.53-0.35 0.07-0.04 0.13-0.08zm-6.84 4.39q-0.26-0.15-0.52-0.3-0.27 0.12-0.55 0.23-0.67-0.41-1.36-0.85-1.02-0.66-2.03-1.31 0.28-0.1 0.55-0.21 0.86 0.55 1.73 1.11 0.84 0.54 1.66 1.03 0 0 0 0c2.32-1.02 4.54-2.27 6.7-3.66q0.24 0.16 0.48 0.32c-2.14 1.37-4.35 2.61-6.66 3.64zm-3.54 1.35q-0.71-0.02-1.43-0.05 2-0.56 3.9-1.37 0.26 0.16 0.51 0.31-1.46 0.62-2.98 1.11zm19.05-12.2q0.87-0.35 1.74-0.67-1.69 1.36-3.43 2.72-0.25-0.17-0.49-0.33 1.09-0.86 2.18-1.72zm-6.1 5.35q-0.58 0.07-1.17 0.15 2.36-1.65 4.66-3.44 0.24 0.16 0.48 0.33-1.94 1.52-3.97 2.96zm-138.08-33.2q13.12 0 26.24 2.21c26.66 4.42 53.32 15.13 86.43 34.67q0.58 0.34 1.14 0.66-0.4 0.07-0.8 0.13-0.33-0.18-0.67-0.38c-32.94-19.54-59.6-30.17-86.18-34.59-32.87-5.4-65.17-0.65-98.93 14.47-10.71 4.83-20.04 13.42-29.11 21.68-12.27 11.12-23.8 21.75-37.62 22.48v-0.57c13.58-0.74 25.03-11.21 37.21-22.33 9.08-8.33 18.48-16.92 29.27-21.75 24.77-11.12 48.9-16.68 73.02-16.68zm155.24 23.93q-0.39 0.05-0.78 0.12 0.61-0.78 1.22-1.56 1.96-2.49 3.91-4.87 0.53-0.27 1.07-0.51c-1.5 1.8-2.99 3.7-4.49 5.63q-0.46 0.59-0.93 1.19zm6.22-7.77q-0.51 0.2-1.01 0.43c3.67-4.33 7.44-8.06 11.75-10.06q-0.23 0.37-0.46 0.73c-3.73 1.9-7.05 5.13-10.28 8.9zm20.14-11q2.71 0.41 5.62 1.14-0.04 0.25-0.09 0.49-2.91-0.73-5.61-1.14-0.91-0.14-1.79-0.18 0.09-0.24 0.17-0.48 0.84 0.04 1.7 0.17zm78.82 37.52c6.3 3.77 12.19 7.29 17.34 10.23 6.46 3.68 12.02 9.89 17.33 15.86 6.38 7.2 12.51 14.07 19.87 16.52 17.34 5.72 28.7-13.25 36.96-27.15 3.03-4.99 5.56-9.32 7.85-11.45l0.41 0.41c-2.21 2.05-4.74 6.3-7.69 11.29-8.42 14.06-19.87 33.36-37.69 27.39-7.61-2.54-13.65-9.41-20.2-16.68-5.31-5.97-10.79-12.19-17.17-15.79-5.15-2.94-11.04-6.45-17.33-10.21-23.09-13.81-51.35-30.71-72.4-36.16q0.05-0.25 0.1-0.5c21.17 5.44 49.46 22.36 72.62 36.24zm-87.66-35.89q0.21-0.35 0.43-0.68c1.91-0.75 3.92-1.16 6.08-1.14q-0.08 0.24-0.17 0.49c-2.26-0.01-4.36 0.47-6.34 1.33zm-58.7 31.47q0.41-0.07 0.82-0.14 0.36 0.19 0.72 0.37-0.38 0.1-0.76 0.19-0.38-0.21-0.78-0.42zm4.65 1.64q-0.67-0.01-1.34-0.02-0.77-0.33-1.56-0.72 0.39-0.09 0.77-0.19 1.08 0.51 2.13 0.93zm1.94 1.24q0.54-0.09 1.07-0.19c4.23 1.24 8 1.31 11.41 0.54q0.41 0.17 0.82 0.33c-3.9 1.03-8.27 0.96-13.3-0.68zm20.59-2.73q-0.23-0.15-0.46-0.31c2.01-1.34 3.89-2.96 5.69-4.75q0.22 0.15 0.43 0.3c-1.79 1.79-3.66 3.41-5.66 4.76zm-4.44 2.44q-0.56-0.07-1.12-0.12 2.39-0.89 4.57-2.28 0.23 0.16 0.46 0.32-1.88 1.22-3.91 2.08zm-17.88-0.32q0.77 0.01 1.53 0.02 0.18 0.06 0.36 0.12-0.52 0.09-1.06 0.17-0.41-0.15-0.83-0.31zm34.89-15.65q0.4-0.08 0.8-0.15c-2.15 2.72-4.34 5.41-6.65 7.84q-0.35-0.01-0.71-0.01c2.28-2.37 4.44-5 6.56-7.68zm9.9-1q-0.32-0.05-0.64-0.09 1.4-2.68 2.75-5.39 0.84-1.68 1.67-3.34 0.36-0.04 0.71-0.08-0.9 1.78-1.81 3.58-1.32 2.68-2.68 5.32zm18.89-26.93q0.19-0.38 0.38-0.75c2.48-4.74 5.5-8.39 9.53-9.87q-0.18 0.42-0.36 0.85c-3.48 1.42-6.15 4.58-8.39 8.76q-0.39 0.12-0.78 0.26 0 0 0 0c-4.32 1.64-7.73 5.48-10.78 10.33q0.49-0.23 0.99-0.42c2.72-4.19 5.73-7.53 9.41-9.16zm13.96-11.34q0.25 0 0.5 0c23.63 0.9 75.22 45.79 91.41 61.49 2.21 2.05 4.58 4.66 7.11 7.44 7.61 8.34 17.17 18.73 25.76 20.94 16.6 4.33 28.37-20.86 34.67-34.35 1.55-3.35 2.78-5.97 3.76-7.52l0.49 0.33c-0.98 1.47-2.21 4.09-3.76 7.44-6.46 13.74-18.32 39.16-35.32 34.83-8.75-2.29-18.4-12.76-26.09-21.09-2.53-2.78-4.9-5.4-7.03-7.45-9.73-9.48-26.9-24.36-43.34-36.54-21.42-15.87-37.93-24.45-47.75-24.78q-0.25 0-0.49 0-1.9 0.01-3.55 0.55 0.17-0.42 0.36-0.82 1.54-0.45 3.27-0.47zm-8.83 9.74c0.49 0 0.98 0 1.47 0.07q0.16 0.02 0.31 0.03-0.06 0.25-0.12 0.49-0.09-0.01-0.19-0.02c-2.11-0.21-4.03 0.06-5.8 0.7q0.18-0.34 0.36-0.68 1.87-0.59 3.97-0.59zm87.82 49.21c2.7 1.97 5.23 3.77 7.44 5.41 4.5 3.18 8.83 7.84 13.41 12.83 6.87 7.44 14.06 15.21 21.67 17.5 16.84 4.99 28.21-16.27 35.73-30.33 2.29-4.26 4.25-8.02 5.89-9.9l0.49 0.41c-1.56 1.88-3.52 5.56-5.81 9.81-7.6 14.23-19.05 35.82-36.38 30.58-7.77-2.37-14.96-10.14-21.92-17.66-4.58-4.99-8.91-9.65-13.33-12.84-2.2-1.55-4.74-3.43-7.43-5.39-23.6-17.38-62.85-46.25-85.31-48.98q0.06-0.24 0.12-0.48c22.57 2.82 61.88 31.7 85.43 49.04zm-152.09-8.56q0.28-0.11 0.56-0.21 0.36 0.23 0.73 0.46-0.34 0.07-0.68 0.13-0.3-0.19-0.61-0.38zm10.49 5.82q0.43-0.12 0.86-0.25 5.22 1.84 9.63 1.1 0.65 0.14 1.28 0.28c-3.59 0.88-7.47 0.51-11.77-1.13zm22.66-7.5q0.33 0.07 0.65 0.16-1.54 2.02-3.25 3.68-0.25-0.18-0.49-0.36 1.63-1.57 3.09-3.48zm-8.57 7.87q-0.35-0.14-0.7-0.31c2.12-0.81 4.03-2.09 5.79-3.71q0.25 0.18 0.49 0.36c-1.7 1.56-3.55 2.82-5.58 3.66zm-1.13 0.42q-0.51-0.13-1.04-0.25 0.32-0.09 0.63-0.18 0.36 0.17 0.72 0.33-0.15 0.05-0.31 0.1zm-18.8-3.67q0.28-0.12 0.56-0.24 1.68 0.96 3.28 1.7-0.67-0.04-1.35-0.09-1.22-0.62-2.49-1.37zm5.88 2.33q-0.43 0.12-0.86 0.22-0.52-0.22-1.05-0.46 0.82 0.06 1.62 0.13 0.15 0.06 0.29 0.11zm28.75-16.85q0.32 0.04 0.65 0.08c-1.76 3.34-3.6 6.55-5.66 9.35q-0.32-0.09-0.64-0.17c2.04-2.76 3.89-5.94 5.65-9.26zm9-17.16q0.51-0.25 1.02-0.47c-1.48 2.35-2.89 4.95-4.28 7.65q-0.35 0.02-0.7 0.06c1.29-2.54 2.59-4.99 3.96-7.24zm7.36-1.8q0.31 0 0.63 0.01c-1.05 2.98-2.03 6.14-3.03 9.33q-0.09 0.29-0.18 0.57-0.29-0.07-0.58-0.13 0.09-0.3 0.18-0.6c0.96-3.09 1.93-6.2 2.98-9.18zm-38.32 32.64q-0.27 0.18-0.53 0.35-0.01-0.01-0.02-0.02-2.47-1.72-4.9-3.37 0.26-0.17 0.53-0.34 2.33 1.58 4.7 3.22 0.11 0.08 0.22 0.16zm-8.53-5.8q-0.31 0.14-0.62 0.28c-32.05-21.29-60.26-33.89-88.05-39.44-36.72-7.45-74.08-2.78-114.15 14.14-11.94 5.07-22.07 14.97-31.88 24.61-12.02 11.86-23.47 23.06-37.13 24.04l-0.08-0.57c13.49-0.98 24.78-12.1 36.8-23.87 9.81-9.65 19.95-19.63 32.05-24.7 40.23-17.01 77.67-21.59 114.47-14.23 27.96 5.65 56.34 18.32 88.59 39.74zm39.88-5.7q0.28 0.08 0.56 0.15c-1.43 3.73-3 7.17-4.87 10.02q-0.29-0.08-0.58-0.16c1.89-2.82 3.47-6.26 4.89-10.01zm-39.79 6.45q0.31-0.14 0.62-0.28 0.72 0.48 1.43 0.96-0.42 0.06-0.84 0.13-0.61-0.41-1.21-0.81zm43.46-17.36q0.29 0.07 0.58 0.13c-1.1 3.5-2.23 7.01-3.46 10.32q-0.28-0.08-0.56-0.15c1.23-3.3 2.35-6.8 3.44-10.3zm6.8-18.74q0.4-0.18 0.8-0.33c-1.28 2.51-2.42 5.34-3.5 8.37q-0.31-0.02-0.63-0.02c1.02-2.85 2.11-5.57 3.33-8.02zm-35.26 44.93q-0.41 0.16-0.84 0.3-2.74-1.33-5.79-3.41 0.27-0.18 0.53-0.36 3.23 2.17 6.1 3.47zm57.24-65.83c-5.7 0.15-9.42 4.22-12.07 10.28q0.38-0.14 0.78-0.25c2.54-5.57 6.04-9.27 11.29-9.46 12.34-0.41 35.08 16.92 47.5 27.23 19.05 15.78 35.41 32.87 41.13 40.88 5.48 7.69 20.28 24.2 31.07 26.57 17.5 3.76 30.01-28.62 34.67-40.71 0.49-1.31 0.9-2.46 1.23-3.19l-0.58-0.25q-0.48 1.23-1.22 3.19c-4.66 12.02-17.01 43.99-33.93 40.31-9.73-2.04-23.8-16.6-30.66-26.33-12.11-16.92-66.73-68.35-88.72-68.35-0.16 0.08-0.33 0.08-0.49 0.08zm-18.24 35.15q-0.57 3.25-1.18 6.47 0.29 0.08 0.58 0.17 0.6-3.23 1.18-6.55 0.39-2.18 0.78-4.35-0.28-0.07-0.57-0.15-0.4 2.21-0.79 4.41zm-13.57 33.04c-3.09 1.19-6.75 0.77-11.13-1.32q-0.29 0.16-0.59 0.31c4.71 2.31 8.66 2.79 11.97 1.5 2.12-0.85 3.88-2.38 5.36-4.43q-0.32-0.08-0.64-0.17c-1.4 1.92-3.03 3.34-4.97 4.11zm-18.4-5.81q-0.18-0.13-0.36-0.27-0.2 0.19-0.39 0.37 0.21 0.16 0.43 0.32 3.37 2.5 6.33 4.04 0.31-0.14 0.61-0.29-3.07-1.55-6.62-4.17zm-102.04-50.69c-38.76-8.34-78.66-3.76-122.08 14.06-12.67 5.24-23.22 15.86-33.36 26.17-11.94 12.1-23.22 23.55-36.63 24.61v0.49c13.66-1.06 25.02-12.59 37.04-24.78 10.14-10.22 20.61-20.85 33.2-26 43.25-17.74 83.07-22.32 121.74-14.06 28.1 6.06 56.32 19.09 87.75 40.59q0.29-0.12 0.57-0.24c-31.61-21.68-59.99-34.76-88.23-40.84zm125.84 51.78q0.32 0.08 0.64 0.16c1.76-2.65 3.12-6.07 4.25-9.99q-0.3-0.09-0.61-0.18c-1.14 3.92-2.52 7.37-4.28 10.01zm-32.77-6.93q0.45-0.01 0.89-0.02-1.91-1.36-3.8-2.67-0.22 0.17-0.44 0.34 1.67 1.16 3.35 2.35zm-4.14-3.54q-0.29 0.13-0.57 0.25 0.44 0.3 0.88 0.61 0.21-0.17 0.43-0.34-0.37-0.26-0.74-0.52zm41.37-0.17q0.31 0.09 0.61 0.18c0.93-3.31 1.7-6.95 2.42-10.75q-0.29-0.09-0.58-0.18c-0.72 3.75-1.51 7.41-2.45 10.75zm4.59-22.58q0.29 0.07 0.58 0.14c0.66-3.59 1.37-7.12 2.2-10.44q-0.31-0.03-0.61-0.06c-0.82 3.29-1.51 6.8-2.17 10.36zm5.71-19.4q-0.4 0.12-0.78 0.28c-1.02 2.5-1.88 5.29-2.64 8.27q0.3 0.04 0.61 0.07c0.8-3.13 1.71-6.05 2.81-8.62z"/></clipPath><linearGradient id="P" gradientUnits="userSpaceOnUse"/><linearGradient id="g1" x2="1" href="#P" gradientTransform="matrix(-500,0,0,-160.833,500,78.231)"><stop/><stop offset="0" stop-color="#020202"/><stop offset=".01" stop-color="#030303"/><stop offset=".01" stop-color="#050505"/><stop offset=".02" stop-color="#060606"/><stop offset=".02" stop-color="#080808"/><stop offset=".02" stop-color="#090909"/><stop offset=".03" stop-color="#0b0b0b"/><stop offset=".03" stop-color="#0d0d0d"/><stop offset=".04" stop-color="#0e0e0e"/><stop offset=".04" stop-color="#101010"/><stop offset=".04" stop-color="#111"/><stop offset=".05" stop-color="#131313"/><stop offset=".05" stop-color="#151515"/><stop offset=".05" stop-color="#161616"/><stop offset=".06" stop-color="#181818"/><stop offset=".06" stop-color="#191919"/><stop offset=".07" stop-color="#1b1b1b"/><stop offset=".07" stop-color="#1c1c1c"/><stop offset=".07" stop-color="#1e1e1e"/><stop offset=".08" stop-color="#202020"/><stop offset=".08" stop-color="#212121"/><stop offset=".09" stop-color="#232323"/><stop offset=".09" stop-color="#242424"/><stop offset=".09" stop-color="#262626"/><stop offset=".1" stop-color="#272727"/><stop offset=".1" stop-color="#292929"/><stop offset=".11" stop-color="#2b2b2b"/><stop offset=".11" stop-color="#2c2c2c"/><stop offset=".11" stop-color="#2e2e2e"/><stop offset=".12" stop-color="#2f2f2f"/><stop offset=".12" stop-color="#313131"/><stop offset=".13" stop-color="#333"/><stop offset=".13" stop-color="#343434"/><stop offset=".13" stop-color="#363636"/><stop offset=".14" stop-color="#373737"/><stop offset=".14" stop-color="#393939"/><stop offset=".14" stop-color="#3a3a3a"/><stop offset=".15" stop-color="#3c3c3c"/><stop offset=".15" stop-color="#3e3e3e"/><stop offset=".16" stop-color="#3f3f3f"/><stop offset=".16" stop-color="#414141"/><stop offset=".16" stop-color="#424242"/><stop offset=".17" stop-color="#444"/><stop offset=".17" stop-color="#454545"/><stop offset=".18" stop-color="#474747"/><stop offset=".18" stop-color="#494949"/><stop offset=".18" stop-color="#4a4a4a"/><stop offset=".19" stop-color="#4c4c4c"/><stop offset=".19" stop-color="#4d4d4d"/><stop offset=".2" stop-color="#4f4f4f"/><stop offset=".2" stop-color="#505050"/><stop offset=".2" stop-color="#525252"/><stop offset=".21" stop-color="#545454"/><stop offset=".21" stop-color="#555"/><stop offset=".21" stop-color="#575757"/><stop offset=".22" stop-color="#585858"/><stop offset=".22" stop-color="#5a5a5a"/><stop offset=".23" stop-color="#5c5c5c"/><stop offset=".23" stop-color="#5d5d5d"/><stop offset=".23" stop-color="#5f5f5f"/><stop offset=".24" stop-color="#606060"/><stop offset=".24" stop-color="#626262"/><stop offset=".25" stop-color="#636363"/><stop offset=".25" stop-color="#656565"/><stop offset=".25" stop-color="#676767"/><stop offset=".26" stop-color="#686868"/><stop offset=".26" stop-color="#6a6a6a"/><stop offset=".27" stop-color="#6b6b6b"/><stop offset=".27" stop-color="#6d6d6d"/><stop offset=".27" stop-color="#6e6e6e"/><stop offset=".28" stop-color="#707070"/><stop offset=".28" stop-color="#727272"/><stop offset=".29" stop-color="#737373"/><stop offset=".29" stop-color="#757575"/><stop offset=".29" stop-color="#767676"/><stop offset=".3" stop-color="#787878"/><stop offset=".3" stop-color="#7a7a7a"/><stop offset=".3" stop-color="#7b7b7b"/><stop offset=".31" stop-color="#7d7d7d"/><stop offset=".31" stop-color="#7e7e7e"/><stop offset=".32" stop-color="#808080"/><stop offset=".32" stop-color="#818181"/><stop offset=".32" stop-color="#838383"/><stop offset=".33" stop-color="#858585"/><stop offset=".33" stop-color="#868686"/><stop offset=".34" stop-color="#888"/><stop offset=".34" stop-color="#898989"/><stop offset=".34" stop-color="#8b8b8b"/><stop offset=".35" stop-color="#8c8c8c"/><stop offset=".35" stop-color="#8e8e8e"/><stop offset=".36" stop-color="#909090"/><stop offset=".36" stop-color="#919191"/><stop offset=".36" stop-color="#939393"/><stop offset=".37" stop-color="#949494"/><stop offset=".37" stop-color="#969696"/><stop offset=".38" stop-color="#989898"/><stop offset=".38" stop-color="#999"/><stop offset=".38" stop-color="#9b9b9b"/><stop offset=".39" stop-color="#9c9c9c"/><stop offset=".39" stop-color="#9e9e9e"/><stop offset=".39" stop-color="#9f9f9f"/><stop offset=".4" stop-color="#a1a1a1"/><stop offset=".4" stop-color="#a3a3a3"/><stop offset=".41" stop-color="#a4a4a4"/><stop offset=".41" stop-color="#a6a6a6"/><stop offset=".41" stop-color="#a7a7a7"/><stop offset=".42" stop-color="#a9a9a9"/><stop offset=".42" stop-color="#aaa"/><stop offset=".43" stop-color="#acacac"/><stop offset=".43" stop-color="#aeaeae"/><stop offset=".43" stop-color="#afafaf"/><stop offset=".44" stop-color="#b1b1b1"/><stop offset=".44" stop-color="#b2b2b2"/><stop offset=".45" stop-color="#b4b4b4"/><stop offset=".45" stop-color="#b6b6b6"/><stop offset=".45" stop-color="#b7b7b7"/><stop offset=".46" stop-color="#b9b9b9"/><stop offset=".46" stop-color="#bababa"/><stop offset=".46" stop-color="#bcbcbc"/><stop offset=".47" stop-color="#bdbdbd"/><stop offset=".47" stop-color="#bfbfbf"/><stop offset=".48" stop-color="#c1c1c1"/><stop offset=".48" stop-color="#c2c2c2"/><stop offset=".48" stop-color="#c4c4c4"/><stop offset=".49" stop-color="#c5c5c5"/><stop offset=".49" stop-color="#c7c7c7"/><stop offset=".5" stop-color="#c8c8c8"/><stop offset=".5" stop-color="#cacaca"/><stop offset=".5" stop-color="#ccc"/><stop offset=".51" stop-color="#cdcdcd"/><stop offset=".51" stop-color="#cfcfcf"/><stop offset=".52" stop-color="#d0d0d0"/><stop offset=".52" stop-color="#d2d2d2"/><stop offset=".52" stop-color="#d3d3d3"/><stop offset=".53" stop-color="#d5d5d5"/><stop offset=".53" stop-color="#d7d7d7"/><stop offset=".54" stop-color="#d8d8d8"/><stop offset=".54" stop-color="#d8d8d8"/><stop offset=".54" stop-color="#d7d7d7"/><stop offset=".55" stop-color="#d6d6d6"/><stop offset=".55" stop-color="#d5d5d5"/><stop offset=".55" stop-color="#d4d4d4"/><stop offset=".56" stop-color="#d3d3d3"/><stop offset=".56" stop-color="#d2d2d2"/><stop offset=".57" stop-color="#d0d0d0"/><stop offset=".57" stop-color="#cfcfcf"/><stop offset=".57" stop-color="#cecece"/><stop offset=".58" stop-color="#cdcdcd"/><stop offset=".58" stop-color="#ccc"/><stop offset=".59" stop-color="#cbcbcb"/><stop offset=".59" stop-color="#cacaca"/><stop offset=".59" stop-color="#c9c9c9"/><stop offset=".6" stop-color="#c7c7c7"/><stop offset=".6" stop-color="#c6c6c6"/><stop offset=".61" stop-color="#c5c5c5"/><stop offset=".61" stop-color="#c4c4c4"/><stop offset=".61" stop-color="#c3c3c3"/><stop offset=".62" stop-color="#c2c2c2"/><stop offset=".62" stop-color="#c1c1c1"/><stop offset=".63" stop-color="#c0c0c0"/><stop offset=".63" stop-color="#bebebe"/><stop offset=".63" stop-color="#bdbdbd"/><stop offset=".64" stop-color="#bcbcbc"/><stop offset=".64" stop-color="#bbb"/><stop offset=".64" stop-color="#bababa"/><stop offset=".65" stop-color="#b9b9b9"/><stop offset=".65" stop-color="#b8b8b8"/><stop offset=".66" stop-color="#b6b6b6"/><stop offset=".66" stop-color="#b5b5b5"/><stop offset=".66" stop-color="#b4b4b4"/><stop offset=".67" stop-color="#b3b3b3"/><stop offset=".67" stop-color="#b2b2b2"/><stop offset=".68" stop-color="#b1b1b1"/><stop offset=".68" stop-color="#b0b0b0"/><stop offset=".68" stop-color="#afafaf"/><stop offset=".69" stop-color="#adadad"/><stop offset=".69" stop-color="#acacac"/><stop offset=".7" stop-color="#ababab"/><stop offset=".7" stop-color="#aaa"/><stop offset=".7" stop-color="#a9a9a9"/><stop offset=".71" stop-color="#a8a8a8"/><stop offset=".71" stop-color="#a7a7a7"/><stop offset=".71" stop-color="#a5a5a5"/><stop offset=".72" stop-color="#a4a4a4"/><stop offset=".72" stop-color="#a3a3a3"/><stop offset=".73" stop-color="#a2a2a2"/><stop offset=".73" stop-color="#a1a1a1"/><stop offset=".73" stop-color="#a0a0a0"/><stop offset=".74" stop-color="#9f9f9f"/><stop offset=".74" stop-color="#9e9e9e"/><stop offset=".75" stop-color="#9c9c9c"/><stop offset=".75" stop-color="#9b9b9b"/><stop offset=".75" stop-color="#9a9a9a"/><stop offset=".76" stop-color="#999"/><stop offset=".76" stop-color="#989898"/><stop offset=".77" stop-color="#979797"/><stop offset=".77" stop-color="#969696"/><stop offset=".77" stop-color="#959595"/><stop offset=".78" stop-color="#939393"/><stop offset=".78" stop-color="#929292"/><stop offset=".79" stop-color="#919191"/><stop offset=".79" stop-color="#909090"/><stop offset=".79" stop-color="#8f8f8f"/><stop offset=".8" stop-color="#8e8e8e"/><stop offset=".8" stop-color="#8d8d8d"/><stop offset=".8" stop-color="#8b8b8b"/><stop offset=".81" stop-color="#8a8a8a"/><stop offset=".81" stop-color="#898989"/><stop offset=".82" stop-color="#888"/><stop offset=".82" stop-color="#878787"/><stop offset=".82" stop-color="#868686"/><stop offset=".83" stop-color="#858585"/><stop offset=".83" stop-color="#848484"/><stop offset=".84" stop-color="#828282"/><stop offset=".84" stop-color="#818181"/><stop offset=".84" stop-color="#808080"/><stop offset=".85" stop-color="#7f7f7f"/><stop offset=".85" stop-color="#7e7e7e"/><stop offset=".86" stop-color="#7d7d7d"/><stop offset=".86" stop-color="#7c7c7c"/><stop offset=".86" stop-color="#7a7a7a"/><stop offset=".87" stop-color="#797979"/><stop offset=".87" stop-color="#787878"/><stop offset=".88" stop-color="#777"/><stop offset=".88" stop-color="#767676"/><stop offset=".88" stop-color="#757575"/><stop offset=".89" stop-color="#747474"/><stop offset=".89" stop-color="#737373"/><stop offset=".89" stop-color="#717171"/><stop offset=".9" stop-color="#707070"/><stop offset=".9" stop-color="#6f6f6f"/><stop offset=".91" stop-color="#6e6e6e"/><stop offset=".91" stop-color="#6d6d6d"/><stop offset=".91" stop-color="#6c6c6c"/><stop offset=".92" stop-color="#6b6b6b"/><stop offset=".92" stop-color="#696969"/><stop offset=".93" stop-color="#686868"/><stop offset=".93" stop-color="#676767"/><stop offset=".93" stop-color="#666"/><stop offset=".94" stop-color="#656565"/><stop offset=".94" stop-color="#646464"/><stop offset=".95" stop-color="#636363"/><stop offset=".95" stop-color="#626262"/><stop offset=".95" stop-color="#606060"/><stop offset=".96" stop-color="#5f5f5f"/><stop offset=".96" stop-color="#5e5e5e"/><stop offset=".96" stop-color="#5d5d5d"/><stop offset=".97" stop-color="#5c5c5c"/><stop offset=".97" stop-color="#5b5b5b"/><stop offset=".98" stop-color="#5a5a5a"/><stop offset=".98" stop-color="#595959"/><stop offset=".98" stop-color="#575757"/><stop offset=".99" stop-color="#565656"/><stop offset=".99" stop-color="#555"/><stop offset="1" stop-color="#555"/><stop offset="1" stop-color="#545454"/></linearGradient></defs><style>.a{fill:url(#g1)}</style><g clip-path="url(#cp1)"><g clip-path="url(#cp2)"><path class="a" d="m500 162.2v-160.8h-500v160.8z"/></g></g></svg>