<svg xmlns="http://www.w3.org/2000/svg" xmlns:xlink="http://www.w3.org/1999/xlink" width="500" zoomAndPan="magnify" viewBox="0 0 375 374.999991" height="500" preserveAspectRatio="xMidYMid meet" version="1.2"><g id="ab397f5bd1"><path style=" stroke:none;fill-rule:nonzero;fill:#57ffdc;fill-opacity:1;" d="M 337.902344 293.011719 C 328.910156 286.265625 318.714844 281.46875 308.144531 278.019531 L 307.019531 277.570312 L 306.195312 277.195312 L 305.445312 276.746094 L 304.773438 276.296875 L 304.171875 275.847656 L 303.496094 275.246094 C 303.273438 275.023438 303.046875 274.796875 302.824219 274.570312 C 302.597656 274.347656 302.449219 274.121094 302.296875 273.898438 L 301.847656 273.148438 L 301.472656 272.398438 C 301.324219 272.097656 301.175781 271.796875 301.097656 271.574219 L 300.800781 270.824219 C 300.347656 269.324219 299.824219 267.824219 299.300781 266.328125 C 296.375 258.15625 293.078125 248.9375 286.105469 242.640625 C 272.613281 230.347656 250.800781 234.394531 237.160156 244.4375 C 235.359375 245.789062 233.636719 247.210938 231.988281 248.710938 C 231.089844 249.386719 230.1875 250.136719 229.289062 250.808594 C 228.464844 251.410156 227.566406 252.007812 226.742188 252.683594 C 225.765625 253.285156 224.867188 253.882812 223.890625 254.558594 C 222.917969 255.082031 221.941406 255.683594 220.96875 256.207031 C 219.996094 256.730469 218.871094 257.257812 217.820312 257.78125 C 216.847656 258.15625 215.871094 258.605469 214.898438 258.980469 C 213.773438 259.355469 212.648438 259.730469 211.449219 260.105469 C 210.324219 260.40625 209.199219 260.703125 208.074219 261.003906 C 206.953125 261.304688 205.675781 261.378906 204.402344 261.605469 L 200.65625 261.980469 L 196.757812 262.054688 L 192.785156 261.828125 C 166.550781 258.304688 140.613281 252.910156 116.402344 242.488281 C 108.382812 239.042969 100.660156 234.917969 93.390625 230.195312 C 93.539062 228.621094 93.691406 227.046875 93.839844 225.472656 C 95.339844 211.90625 98.335938 198.265625 101.261719 185.148438 C 103.359375 175.851562 105.457031 166.257812 107.03125 156.664062 C 108.832031 145.867188 110.332031 133.125 107.707031 120.757812 C 105.15625 108.765625 98.9375 98.796875 90.390625 92.949219 C 88.96875 91.523438 87.46875 90.25 85.820312 89.125 C 84.394531 87.625 82.746094 86.351562 81.097656 85.152344 C 79.898438 83.878906 78.546875 82.753906 77.199219 81.703125 C 76.972656 81.554688 76.75 81.40625 76.523438 81.253906 C 75.625 80.28125 74.574219 79.304688 73.527344 78.40625 C 72.925781 77.957031 72.402344 77.507812 71.800781 77.058594 C 71.203125 76.382812 70.527344 75.707031 69.851562 75.109375 C 68.953125 74.285156 68.054688 73.535156 67.152344 72.859375 C 66.855469 72.484375 66.554688 72.183594 66.179688 71.808594 C 65.054688 70.609375 63.78125 69.488281 62.507812 68.511719 C 61.082031 66.863281 59.507812 65.289062 57.785156 63.9375 C 56.359375 62.214844 54.785156 60.566406 53.136719 59.066406 C 51.710938 57.191406 50.214844 55.46875 48.566406 53.894531 C 47.214844 51.871094 45.714844 49.996094 44.140625 48.199219 C 42.867188 46.097656 41.519531 44.074219 40.019531 42.125 C 38.894531 39.878906 37.621094 37.628906 36.269531 35.53125 C 35.070312 32.53125 33.648438 29.683594 32.148438 26.835938 C 26.378906 16.042969 18.355469 6.972656 8.613281 0 L 8.386719 0.226562 C 20.304688 8.769531 29.601562 20.386719 35.371094 33.882812 C 33.648438 31.257812 31.773438 28.785156 29.824219 26.386719 C 24.578125 19.9375 17.605469 13.117188 8.011719 5.023438 L 7.789062 5.246094 C 17.382812 13.34375 24.351562 20.164062 29.601562 26.609375 C 31.925781 29.457031 34.097656 32.457031 36.121094 35.605469 C 36.496094 36.503906 36.796875 37.402344 37.171875 38.304688 C 35.296875 36.054688 33.125 33.804688 30.722656 31.40625 C 27.203125 27.960938 23.152344 24.363281 19.257812 20.914062 C 15.359375 17.464844 11.085938 13.71875 7.335938 10.042969 L 7.113281 10.269531 C 10.859375 13.941406 14.984375 17.613281 18.957031 21.136719 C 22.929688 24.660156 26.902344 28.183594 30.425781 31.632812 C 33.046875 34.179688 35.371094 36.730469 37.394531 39.128906 C 37.769531 40.175781 38.070312 41.152344 38.371094 42.203125 C 36.269531 40.253906 33.949219 38.378906 31.472656 36.355469 C 29.898438 35.082031 28.25 33.804688 26.453125 32.457031 C 19.855469 27.285156 12.285156 21.4375 6.664062 15.066406 L 6.4375 15.292969 C 12.136719 21.738281 19.707031 27.585938 26.300781 32.757812 C 28.027344 34.179688 29.675781 35.457031 31.324219 36.730469 C 33.949219 38.828125 36.347656 40.851562 38.59375 42.875 C 38.894531 44 39.195312 45.125 39.496094 46.25 C 37.171875 44.601562 34.773438 43.027344 32.375 41.453125 L 31.773438 41.078125 C 23.304688 35.605469 12.734375 28.785156 6.136719 20.089844 L 5.839844 20.3125 C 12.507812 29.007812 23.078125 35.828125 31.625 41.378906 L 32.222656 41.75 C 34.699219 43.324219 37.171875 44.976562 39.644531 46.699219 C 39.945312 47.898438 40.167969 49.097656 40.394531 50.296875 C 38.519531 49.324219 36.644531 48.273438 34.773438 47.296875 L 33.273438 46.550781 C 23.003906 41.226562 11.761719 34.480469 5.539062 25.1875 L 5.238281 25.335938 C 11.535156 34.707031 22.855469 41.453125 33.125 46.773438 L 34.621094 47.523438 C 36.644531 48.574219 38.59375 49.621094 40.542969 50.671875 C 40.769531 51.871094 40.992188 53.144531 41.144531 54.34375 C 39.945312 53.820312 38.671875 53.296875 37.472656 52.84375 C 36.347656 52.394531 35.296875 51.945312 34.171875 51.496094 C 19.332031 45.273438 9.8125 38.304688 4.9375 30.132812 L 4.5625 30.359375 C 9.4375 38.601562 19.03125 45.574219 33.949219 51.796875 L 37.246094 53.144531 C 38.519531 53.671875 39.871094 54.195312 41.144531 54.71875 C 41.292969 55.992188 41.445312 57.269531 41.59375 58.542969 L 39.71875 57.941406 C 38.144531 57.417969 36.570312 56.96875 34.996094 56.445312 C 24.203125 53.070312 10.109375 46.472656 4.1875 35.304688 L 3.890625 35.457031 C 9.8125 46.773438 23.976562 53.371094 34.773438 56.96875 C 36.347656 57.492188 37.996094 58.019531 39.496094 58.46875 L 41.519531 59.066406 C 41.59375 59.59375 41.59375 60.117188 41.667969 60.640625 C 41.742188 61.464844 41.742188 62.214844 41.742188 63.039062 L 41.667969 63.039062 C 39.71875 62.589844 37.695312 62.140625 35.671875 61.617188 C 26.378906 59.21875 9.585938 53.296875 3.589844 40.253906 L 3.289062 40.402344 C 9.363281 53.59375 26.226562 59.515625 35.671875 61.914062 C 37.695312 62.441406 39.71875 62.890625 41.667969 63.339844 L 41.820312 63.339844 C 41.820312 64.6875 41.820312 66.113281 41.820312 67.460938 C 40.09375 67.164062 38.371094 66.863281 36.644531 66.5625 C 28.550781 65.0625 9.0625 59.964844 2.988281 45.199219 L 2.691406 45.351562 C 8.761719 60.265625 28.402344 65.4375 36.570312 66.9375 C 38.296875 67.238281 40.09375 67.539062 41.820312 67.835938 C 41.820312 69.261719 41.742188 70.6875 41.59375 72.109375 C 40.246094 71.960938 38.820312 71.808594 37.472656 71.660156 C 30.800781 70.761719 8.3125 66.710938 2.390625 50.222656 L 2.089844 50.371094 C 8.085938 67.011719 30.722656 71.058594 37.546875 71.960938 C 38.894531 72.109375 40.320312 72.261719 41.667969 72.410156 C 41.59375 73.910156 41.445312 75.332031 41.292969 76.832031 C 40.320312 76.757812 39.417969 76.757812 38.445312 76.683594 C 23.679688 75.632812 6.289062 69.410156 1.789062 55.320312 L 1.414062 55.394531 C 5.988281 69.636719 23.527344 75.859375 38.371094 76.980469 C 39.34375 77.058594 40.246094 77.132812 41.21875 77.132812 C 41.070312 78.632812 40.84375 80.128906 40.617188 81.703125 C 40.167969 81.703125 39.71875 81.703125 39.195312 81.703125 C 24.277344 81.253906 5.3125 75.484375 1.042969 60.339844 L 0.742188 60.417969 C 5.089844 75.707031 24.128906 81.554688 39.195312 82.003906 L 40.542969 82.003906 C 40.320312 83.578125 40.09375 85.152344 39.792969 86.652344 C 30.949219 86.726562 22.328125 85.078125 15.582031 81.929688 C 7.414062 78.179688 2.164062 72.410156 0.441406 65.289062 L 0.0664062 65.4375 C 1.867188 72.710938 7.1875 78.480469 15.433594 82.304688 C 22.253906 85.453125 30.875 87.101562 39.792969 87.027344 C 39.046875 91.375 38.296875 95.648438 37.472656 99.917969 C 35.296875 111.3125 32.972656 123.082031 33.046875 134.773438 C 33.125 152.015625 38.21875 169.179688 47.890625 185.222656 C 49.3125 188.070312 50.8125 190.84375 52.460938 193.617188 C 53.8125 196.390625 55.3125 199.164062 56.960938 201.863281 C 58.382812 204.785156 59.957031 207.632812 61.683594 210.484375 C 63.03125 213.332031 64.605469 216.179688 66.253906 218.953125 C 67.605469 221.726562 69.027344 224.425781 70.601562 227.125 C 71.953125 229.972656 73.375 232.671875 75.023438 235.367188 C 76.375 238.21875 77.796875 240.914062 79.371094 243.613281 C 80.648438 246.238281 81.996094 248.863281 83.421875 251.335938 C 84.695312 254.183594 86.195312 256.957031 87.769531 259.65625 C 89.042969 262.429688 90.464844 265.128906 92.039062 267.75 C 93.316406 270.523438 94.738281 273.296875 96.3125 275.921875 C 97.511719 278.542969 98.863281 281.167969 100.359375 283.640625 C 101.785156 286.941406 103.507812 290.089844 105.382812 293.160156 C 111.753906 303.207031 120.824219 311.226562 131.617188 316.25 C 142.9375 321.570312 154.628906 322.695312 165.351562 319.546875 C 183.113281 314.375 195.558594 298.558594 204.402344 285.441406 C 206.050781 283.042969 207.699219 280.492188 209.273438 278.09375 C 212.125 273.671875 215.046875 269.25 218.195312 264.976562 C 224.191406 265.578125 230.1875 266.175781 236.183594 266.777344 C 243.15625 267.449219 250.351562 268.125 257.398438 268.875 C 271.789062 270.375 287.230469 272.398438 302 276.519531 C 303.949219 284.167969 305.222656 291.886719 306.496094 299.457031 C 308.296875 310.476562 310.167969 321.796875 314.066406 332.664062 C 317.738281 342.933594 322.988281 352.453125 328.910156 359.648438 C 336.328125 368.644531 344.5 373.816406 353.269531 374.941406 L 353.269531 374.640625 C 334.832031 372.242188 321.039062 351.328125 314.367188 332.589844 C 310.542969 321.796875 308.667969 310.476562 306.796875 299.457031 C 305.597656 291.960938 304.320312 284.242188 302.375 276.671875 L 302.523438 276.671875 C 305.070312 284.316406 306.796875 292.1875 308.667969 300.359375 C 309.195312 302.757812 309.792969 305.230469 310.394531 307.703125 C 312.117188 315.574219 314.367188 323.371094 317.140625 330.941406 C 319.914062 338.210938 324.636719 348.78125 331.605469 358 C 338.578125 367.21875 345.925781 372.617188 353.644531 374.339844 L 353.71875 374.042969 C 333.554688 369.621094 320.8125 339.859375 317.441406 330.867188 C 314.667969 323.296875 312.417969 315.5 310.695312 307.628906 C 310.09375 305.15625 309.570312 302.679688 309.042969 300.28125 C 307.246094 292.488281 305.445312 284.542969 302.972656 276.746094 L 303.121094 276.746094 C 306.421875 284.839844 308.820312 293.160156 311.367188 301.78125 C 311.816406 303.355469 312.269531 304.855469 312.71875 306.429688 C 314.890625 313.699219 317.214844 321.421875 320.289062 329.214844 C 324.9375 340.761719 337.527344 368.195312 354.167969 373.742188 L 354.246094 373.441406 C 337.753906 368.046875 325.234375 340.683594 320.589844 329.140625 C 317.515625 321.347656 315.191406 313.625 313.015625 306.355469 C 312.566406 304.78125 312.117188 303.28125 311.667969 301.707031 C 309.121094 293.160156 306.722656 284.917969 303.496094 276.894531 L 303.574219 276.894531 C 307.921875 285.589844 311.21875 294.734375 314.667969 304.253906 L 315.640625 307.027344 C 318.039062 313.699219 320.511719 320.671875 323.4375 327.566406 C 330.859375 345.109375 342.25 367.21875 354.695312 373.21875 L 354.84375 372.917969 C 342.550781 366.921875 331.15625 344.882812 323.738281 327.417969 C 320.8125 320.523438 318.339844 313.550781 315.941406 306.878906 L 314.964844 304.105469 C 311.59375 294.660156 308.296875 285.589844 304.023438 276.972656 L 304.097656 276.972656 C 309.269531 285.515625 313.316406 294.660156 317.289062 304.03125 C 318.414062 306.578125 319.464844 309.203125 320.589844 311.902344 C 322.460938 316.472656 324.410156 321.195312 326.511719 325.917969 C 334.457031 343.910156 344.949219 365.496094 355.070312 372.691406 L 355.21875 372.394531 C 345.023438 365.121094 334.082031 342.335938 326.734375 325.769531 C 324.636719 321.046875 322.6875 316.324219 320.8125 311.75 C 319.6875 309.054688 318.640625 306.503906 317.515625 303.878906 C 313.542969 294.660156 309.570312 285.589844 304.472656 277.121094 C 310.542969 285.515625 315.265625 294.359375 319.464844 302.832031 C 321.789062 307.554688 324.109375 312.5 326.511719 317.671875 C 327.484375 319.847656 328.535156 322.019531 329.507812 324.269531 L 331.15625 327.792969 C 339.101562 344.957031 348.171875 364.371094 355.445312 372.09375 L 355.667969 371.867188 C 348.398438 364.148438 339.402344 344.734375 331.457031 327.640625 L 329.808594 324.121094 L 326.808594 317.523438 C 324.410156 312.351562 322.164062 307.402344 319.765625 302.679688 C 315.566406 294.359375 310.917969 285.664062 305.070312 277.421875 C 310.769531 284.089844 316.089844 291.8125 321.710938 301.632812 C 325.535156 308.304688 329.132812 315.648438 332.582031 322.621094 C 336.105469 329.890625 339.703125 337.6875 343.152344 345.257812 C 348.023438 355.902344 352.59375 366.019531 355.894531 371.566406 L 356.195312 371.417969 C 352.96875 365.796875 348.324219 355.75 343.449219 345.109375 C 340.003906 337.535156 336.40625 329.742188 332.882812 322.46875 C 329.507812 315.5 325.835938 308.152344 322.011719 301.480469 C 317.289062 293.160156 311.894531 285.292969 305.820312 277.871094 C 312.644531 284.765625 318.714844 292.335938 323.960938 300.433594 C 328.234375 307.027344 332.132812 313.925781 335.578125 320.972656 C 345.101562 339.636719 353.269531 361.597656 356.195312 371.042969 L 356.492188 370.96875 C 353.570312 361.523438 345.398438 339.484375 335.878906 320.820312 C 332.355469 313.773438 328.457031 306.878906 324.1875 300.28125 C 319.089844 292.414062 313.242188 285.066406 306.644531 278.394531 C 313.917969 284.617188 320.4375 291.664062 326.136719 299.308594 C 330.78125 305.679688 334.980469 312.351562 338.652344 319.398438 C 347.875 336.710938 355.59375 358.675781 356.644531 370.59375 L 356.941406 370.59375 C 355.894531 358.675781 348.171875 336.636719 338.953125 319.320312 C 335.28125 312.277344 331.082031 305.605469 326.433594 299.234375 C 320.886719 291.738281 314.515625 284.917969 307.46875 278.84375 C 315.191406 284.464844 322.238281 290.988281 328.457031 298.257812 C 333.480469 304.332031 337.980469 310.925781 341.726562 317.824219 C 351.996094 336.113281 358.292969 357.625 357.09375 370.144531 L 357.394531 370.144531 C 358.59375 357.625 352.296875 336.039062 342.027344 317.671875 C 338.203125 310.703125 333.78125 304.105469 328.683594 298.035156 C 322.6875 290.988281 315.941406 284.691406 308.519531 279.144531 C 316.617188 284.089844 324.109375 290.164062 330.707031 296.984375 C 336.105469 302.757812 340.902344 309.203125 344.800781 316.097656 C 355.667969 334.839844 360.839844 356.277344 357.542969 369.46875 L 357.84375 369.542969 C 361.140625 356.203125 356.042969 334.6875 345.101562 315.875 C 341.125 308.976562 336.40625 302.53125 330.933594 296.683594 C 324.5625 290.011719 317.363281 284.242188 309.570312 279.371094 C 318.039062 283.71875 325.910156 289.265625 332.957031 295.785156 C 338.726562 301.257812 343.75 307.554688 347.875 314.449219 C 359.339844 333.414062 363.316406 354.777344 357.917969 368.945312 L 358.21875 369.09375 C 358.292969 368.871094 358.367188 368.644531 358.441406 368.496094 L 358.667969 368.570312 C 358.742188 368.34375 358.816406 368.195312 358.96875 367.96875 L 359.117188 368.046875 C 374.183594 342.632812 359.792969 309.351562 337.902344 293.011719 Z M 47.066406 72.933594 C 48.566406 73.085938 50.0625 73.234375 51.5625 73.382812 C 51.636719 74.660156 51.710938 75.933594 51.710938 77.28125 L 47.140625 77.058594 L 46.914062 77.058594 C 46.992188 76.234375 46.992188 75.332031 46.992188 74.507812 C 47.066406 73.984375 47.066406 73.460938 47.066406 72.933594 Z M 46.617188 63.9375 C 46.464844 62.738281 46.316406 61.617188 46.089844 60.417969 C 47.289062 60.792969 48.414062 61.242188 49.613281 61.691406 C 49.914062 62.816406 50.214844 63.9375 50.4375 65.0625 C 49.164062 64.6875 47.890625 64.390625 46.617188 64.089844 C 46.617188 64.015625 46.617188 64.015625 46.617188 63.9375 Z M 44.066406 52.019531 C 43.765625 51.121094 43.46875 50.222656 43.167969 49.324219 C 43.992188 49.921875 44.742188 50.597656 45.566406 51.269531 C 46.015625 52.171875 46.464844 53.144531 46.914062 54.121094 C 46.015625 53.519531 45.117188 52.996094 44.21875 52.394531 C 44.140625 52.320312 44.140625 52.171875 44.066406 52.019531 Z M 42.941406 48.796875 C 42.566406 47.898438 42.269531 47 41.894531 46.097656 C 42.566406 46.773438 43.167969 47.449219 43.765625 48.125 C 44.292969 48.949219 44.742188 49.773438 45.117188 50.597656 C 44.441406 49.996094 43.691406 49.398438 42.941406 48.796875 Z M 49.6875 56.070312 C 48.9375 55.542969 48.191406 55.019531 47.441406 54.496094 C 47.066406 53.671875 46.691406 52.769531 46.242188 51.945312 C 46.914062 52.546875 47.589844 53.21875 48.265625 53.820312 C 48.714844 54.570312 49.238281 55.320312 49.6875 56.070312 Z M 58.535156 65.289062 L 58.984375 65.886719 C 58.234375 65.4375 57.484375 64.988281 56.734375 64.613281 C 56.359375 63.863281 55.910156 63.113281 55.460938 62.367188 C 56.136719 62.890625 56.808594 63.414062 57.484375 63.9375 C 57.859375 64.390625 58.160156 64.839844 58.535156 65.289062 Z M 62.207031 68.585938 C 62.730469 69.1875 63.179688 69.785156 63.632812 70.386719 C 62.882812 69.9375 62.132812 69.5625 61.382812 69.1875 C 61.007812 68.4375 60.558594 67.761719 60.109375 67.085938 C 60.78125 67.539062 61.457031 68.0625 62.207031 68.585938 Z M 66.855469 72.933594 C 67.378906 73.535156 67.828125 74.132812 68.355469 74.734375 C 67.605469 74.285156 66.855469 73.984375 66.105469 73.609375 C 65.65625 72.933594 65.28125 72.183594 64.832031 71.511719 C 65.503906 71.960938 66.179688 72.410156 66.855469 72.933594 Z M 71.5 77.058594 C 72.027344 77.65625 72.550781 78.179688 73 78.78125 C 72.25 78.40625 71.578125 78.03125 70.828125 77.730469 C 70.378906 77.058594 70.003906 76.382812 69.554688 75.78125 C 70.226562 76.234375 70.828125 76.605469 71.5 77.058594 Z M 76.222656 81.253906 C 76.75 81.78125 77.199219 82.304688 77.648438 82.902344 C 76.972656 82.527344 76.222656 82.152344 75.550781 81.855469 C 75.101562 81.179688 74.726562 80.582031 74.273438 79.980469 C 74.949219 80.355469 75.550781 80.804688 76.222656 81.253906 Z M 80.648438 85.003906 L 80.871094 85.152344 C 81.394531 85.675781 81.847656 86.203125 82.371094 86.800781 C 81.695312 86.425781 81.023438 86.128906 80.347656 85.828125 C 79.898438 85.226562 79.523438 84.628906 79.074219 84.027344 C 79.523438 84.253906 80.046875 84.628906 80.648438 85.003906 Z M 85.59375 89.125 C 86.117188 89.648438 86.570312 90.175781 87.019531 90.699219 C 86.34375 90.324219 85.667969 90.023438 84.917969 89.726562 C 84.46875 89.125 84.09375 88.527344 83.644531 87.925781 C 83.871094 88.074219 84.09375 88.152344 84.246094 88.300781 C 84.769531 88.527344 85.144531 88.824219 85.59375 89.125 Z M 90.167969 92.949219 C 92.789062 95.570312 95.039062 98.496094 96.835938 101.71875 C 99.460938 106.367188 101.261719 111.464844 102.308594 116.710938 C 104.632812 128.703125 103.210938 140.996094 101.484375 151.414062 C 99.984375 160.410156 97.960938 169.554688 96.089844 178.324219 C 93.238281 191.367188 90.316406 204.785156 88.890625 218.203125 C 88.59375 220.976562 88.441406 223.75 88.292969 226.523438 C 86.792969 225.472656 85.367188 224.425781 83.945312 223.375 C 84.019531 219.101562 84.246094 215.054688 84.621094 211.308594 C 85.894531 197.964844 88.816406 184.695312 91.589844 171.804688 C 93.390625 163.558594 95.261719 155.015625 96.6875 146.542969 C 98.410156 136.425781 99.835938 124.503906 97.738281 112.738281 C 96.835938 107.640625 95.113281 102.691406 92.714844 98.046875 C 91.515625 95.796875 90.089844 93.621094 88.515625 91.675781 C 88.96875 92.125 89.566406 92.5 90.167969 92.949219 Z M 79.296875 239.339844 C 80.195312 240.390625 81.023438 241.441406 81.996094 242.414062 C 82.296875 243.613281 82.59375 244.8125 82.894531 246.011719 C 82.070312 244.964844 81.246094 243.914062 80.421875 242.863281 C 80.046875 241.664062 79.671875 240.464844 79.296875 239.339844 Z M 76.222656 234.84375 C 75.773438 233.71875 75.398438 232.519531 75.023438 231.320312 C 75.847656 232.296875 76.675781 233.269531 77.574219 234.246094 C 77.875 235.445312 78.171875 236.644531 78.472656 237.84375 C 77.796875 237.019531 77.125 236.117188 76.449219 235.292969 Z M 51.1875 67.386719 C 51.113281 66.789062 50.964844 66.1875 50.8125 65.589844 C 52.011719 65.886719 53.136719 66.261719 54.335938 66.636719 C 54.636719 67.6875 54.9375 68.738281 55.234375 69.859375 C 53.960938 69.5625 52.6875 69.261719 51.414062 69.035156 C 51.414062 68.511719 51.339844 67.914062 51.1875 67.386719 Z M 53.210938 63.191406 C 53.585938 64.164062 53.960938 65.214844 54.261719 66.1875 C 53.136719 65.8125 51.9375 65.4375 50.8125 65.140625 C 50.589844 64.015625 50.289062 62.890625 49.988281 61.839844 C 51.113281 62.289062 52.164062 62.738281 53.210938 63.191406 Z M 49.914062 61.464844 C 49.613281 60.417969 49.3125 59.367188 48.9375 58.316406 C 49.914062 58.84375 50.8125 59.367188 51.789062 59.890625 C 52.238281 60.792969 52.613281 61.765625 53.0625 62.738281 C 52.011719 62.367188 50.964844 61.914062 49.914062 61.464844 Z M 214.972656 261.605469 L 215.945312 260.855469 C 216.394531 260.855469 216.847656 260.78125 217.371094 260.78125 L 216.472656 261.679688 Z M 67.304688 89.875 C 67.230469 88.675781 67.078125 87.476562 66.929688 86.277344 C 68.277344 86.351562 69.554688 86.425781 70.902344 86.578125 C 71.425781 88.976562 71.875 91.375 72.101562 93.773438 C 73.074219 103.59375 71.726562 113.5625 70.226562 122.03125 C 69.179688 127.878906 67.980469 133.800781 66.78125 139.496094 C 64.304688 151.566406 61.683594 164.082031 61.007812 176.601562 C 60.484375 186.046875 61.15625 195.492188 63.179688 204.710938 C 62.132812 203.585938 61.15625 202.460938 60.183594 201.261719 C 57.410156 190.992188 56.285156 180.273438 56.734375 169.628906 C 57.335938 157.335938 59.882812 145.042969 62.28125 133.125 C 63.332031 127.878906 64.457031 122.480469 65.355469 117.160156 C 66.703125 108.988281 68.054688 99.394531 67.304688 89.875 Z M 62.207031 85.828125 C 62.132812 84.628906 61.980469 83.355469 61.90625 82.152344 C 63.257812 82.230469 64.605469 82.304688 65.878906 82.453125 C 66.105469 83.578125 66.328125 84.703125 66.480469 85.828125 C 65.054688 85.828125 63.632812 85.828125 62.207031 85.828125 Z M 60.183594 74.734375 C 60.484375 75.78125 60.707031 76.90625 60.933594 78.03125 C 59.582031 77.882812 58.234375 77.730469 56.886719 77.582031 C 56.734375 76.382812 56.660156 75.183594 56.433594 73.984375 C 57.710938 74.207031 58.984375 74.433594 60.183594 74.734375 Z M 56.359375 73.683594 C 56.210938 72.710938 56.058594 71.734375 55.835938 70.761719 C 55.835938 70.609375 55.761719 70.460938 55.6875 70.234375 C 56.886719 70.535156 58.007812 70.835938 59.132812 71.136719 C 59.433594 72.109375 59.808594 73.160156 60.035156 74.207031 C 60.035156 74.207031 60.035156 74.207031 60.035156 74.285156 C 58.832031 74.132812 57.558594 73.910156 56.359375 73.683594 Z M 60.558594 74.808594 C 61.683594 75.035156 62.882812 75.332031 64.007812 75.632812 C 64.230469 76.308594 64.53125 77.058594 64.753906 77.730469 C 64.832031 78.03125 64.90625 78.332031 64.980469 78.632812 C 63.78125 78.40625 62.582031 78.257812 61.308594 78.105469 C 61.007812 76.980469 60.78125 75.859375 60.558594 74.808594 Z M 61.007812 78.332031 C 61.234375 79.457031 61.382812 80.65625 61.53125 81.855469 C 60.109375 81.78125 58.609375 81.703125 57.183594 81.703125 C 57.109375 80.429688 57.035156 79.15625 56.960938 77.957031 C 58.234375 78.03125 59.582031 78.179688 61.007812 78.332031 Z M 61.308594 78.40625 C 62.582031 78.554688 63.78125 78.78125 65.054688 79.007812 C 65.355469 80.054688 65.65625 81.105469 65.878906 82.230469 C 64.53125 82.078125 63.257812 82.003906 61.90625 81.929688 C 61.683594 80.65625 61.53125 79.53125 61.308594 78.40625 Z M 65.355469 79.007812 C 66.480469 79.230469 67.605469 79.457031 68.726562 79.753906 C 68.878906 80.207031 69.101562 80.65625 69.253906 81.105469 C 69.402344 81.554688 69.628906 82.152344 69.777344 82.679688 C 68.578125 82.453125 67.378906 82.304688 66.179688 82.152344 C 65.953125 81.105469 65.65625 80.054688 65.355469 79.007812 Z M 66.253906 82.527344 C 67.453125 82.679688 68.726562 82.828125 69.929688 83.054688 C 70.226562 84.101562 70.527344 85.152344 70.753906 86.203125 C 69.476562 86.050781 68.128906 85.976562 66.855469 85.976562 C 66.628906 84.777344 66.480469 83.652344 66.253906 82.527344 Z M 73.902344 84.554688 C 74.199219 85.226562 74.425781 85.902344 74.648438 86.652344 C 73.449219 86.425781 72.328125 86.351562 71.128906 86.203125 C 70.902344 85.152344 70.601562 84.101562 70.300781 83.128906 C 71.425781 83.355469 72.550781 83.578125 73.601562 83.804688 C 73.675781 84.101562 73.75 84.328125 73.902344 84.554688 Z M 61.234375 176.527344 C 61.90625 164.082031 64.53125 151.566406 67.003906 139.496094 C 68.203125 133.800781 69.402344 127.878906 70.453125 122.03125 C 71.953125 113.5625 73.300781 103.59375 72.328125 93.699219 C 72.101562 91.300781 71.726562 88.902344 71.128906 86.578125 C 72.328125 86.726562 73.527344 86.875 74.726562 87.027344 C 75.847656 90.476562 76.597656 93.921875 77.046875 97.519531 C 78.25 107.714844 76.898438 118.058594 75.398438 126.828125 C 74.273438 133.199219 72.925781 139.648438 71.652344 145.867188 C 69.101562 158.085938 66.40625 170.753906 65.582031 183.421875 C 65.054688 191.816406 65.429688 200.214844 66.78125 208.457031 C 65.65625 207.335938 64.605469 206.210938 63.480469 205.011719 C 61.457031 195.714844 60.707031 186.121094 61.234375 176.527344 Z M 78.472656 88 C 80.273438 92.273438 81.472656 96.769531 82.070312 101.34375 C 83.496094 111.914062 82.144531 122.632812 80.570312 131.777344 C 79.371094 138.671875 77.949219 145.644531 76.523438 152.316406 C 73.902344 164.757812 71.203125 177.574219 70.226562 190.394531 C 69.703125 197.664062 69.851562 205.011719 70.675781 212.28125 C 69.476562 211.15625 68.355469 210.03125 67.152344 208.910156 C 65.730469 200.511719 65.355469 191.96875 65.878906 183.496094 C 66.703125 170.828125 69.328125 158.238281 71.953125 145.945312 C 73.226562 139.722656 74.648438 133.277344 75.699219 126.90625 C 77.199219 118.132812 78.621094 107.714844 77.347656 97.445312 C 76.972656 93.921875 76.222656 90.398438 75.101562 87.027344 C 76.222656 87.175781 77.273438 87.476562 78.324219 87.699219 C 78.398438 87.851562 78.472656 87.925781 78.472656 88 Z M 66.929688 209.285156 C 67.152344 210.558594 67.378906 211.832031 67.679688 213.105469 C 66.628906 211.980469 65.65625 210.859375 64.679688 209.734375 C 64.378906 208.457031 64.007812 207.257812 63.78125 205.984375 C 64.753906 207.035156 65.804688 208.160156 66.929688 209.285156 Z M 67.304688 209.660156 C 68.429688 210.78125 69.628906 211.90625 70.753906 212.957031 C 70.902344 214.230469 71.128906 215.578125 71.277344 216.855469 C 70.152344 215.730469 69.101562 214.605469 67.980469 213.480469 C 67.753906 212.207031 67.527344 210.933594 67.304688 209.660156 Z M 71.128906 213.332031 C 72.328125 214.457031 73.527344 215.503906 74.800781 216.628906 C 74.875 217.902344 75.023438 219.253906 75.175781 220.601562 C 73.976562 219.554688 72.851562 218.429688 71.726562 217.304688 C 71.5 215.953125 71.277344 214.679688 71.128906 213.332031 Z M 71.425781 217.453125 C 71.652344 218.726562 71.875 220.003906 72.101562 221.277344 C 71.050781 220.226562 70.078125 219.101562 69.101562 217.980469 C 68.804688 216.703125 68.503906 215.429688 68.203125 214.15625 C 69.253906 215.28125 70.300781 216.328125 71.425781 217.453125 Z M 71.800781 217.828125 C 72.925781 218.953125 74.050781 220.003906 75.175781 221.050781 C 75.324219 222.328125 75.476562 223.601562 75.699219 224.949219 C 74.648438 223.898438 73.527344 222.851562 72.550781 221.726562 C 72.25 220.378906 72.027344 219.101562 71.800781 217.828125 Z M 75.550781 221.351562 C 76.75 222.476562 78.023438 223.527344 79.296875 224.574219 C 79.371094 225.847656 79.523438 227.199219 79.597656 228.546875 C 78.398438 227.5 77.199219 226.375 76.074219 225.25 C 75.925781 223.976562 75.699219 222.625 75.550781 221.351562 Z M 75.773438 225.472656 C 76 226.75 76.222656 228.023438 76.449219 229.296875 C 75.476562 228.246094 74.5 227.199219 73.527344 226.148438 C 73.226562 224.875 72.925781 223.601562 72.625 222.328125 C 73.675781 223.375 74.726562 224.425781 75.773438 225.472656 Z M 76.148438 225.847656 C 77.273438 226.972656 78.472656 228.023438 79.671875 229.074219 C 79.820312 230.347656 79.972656 231.695312 80.195312 232.96875 C 79.074219 231.921875 77.949219 230.796875 76.898438 229.671875 C 76.597656 228.398438 76.375 227.125 76.148438 225.847656 Z M 80.046875 229.371094 C 81.246094 230.421875 82.519531 231.472656 83.796875 232.519531 C 83.871094 233.871094 83.945312 235.144531 84.09375 236.492188 C 82.894531 235.445312 81.695312 234.394531 80.570312 233.34375 C 80.347656 231.996094 80.195312 230.648438 80.046875 229.371094 Z M 80.273438 233.496094 C 80.496094 234.769531 80.722656 236.117188 80.945312 237.394531 C 79.898438 236.34375 78.921875 235.21875 77.949219 234.09375 C 77.648438 232.820312 77.347656 231.546875 77.046875 230.273438 C 78.023438 231.394531 79.148438 232.445312 80.273438 233.496094 Z M 80.648438 233.871094 C 81.769531 234.917969 82.96875 235.96875 84.167969 237.019531 C 84.320312 238.367188 84.46875 239.714844 84.621094 241.066406 C 83.496094 240.015625 82.371094 238.96875 81.320312 237.84375 C 81.023438 236.492188 80.796875 235.144531 80.648438 233.871094 Z M 220.367188 258.230469 L 221.566406 258.007812 L 220.742188 258.90625 L 219.46875 259.054688 Z M 218.945312 259.128906 L 217.820312 259.28125 L 218.644531 258.605469 L 219.769531 258.382812 Z M 228.988281 253.957031 C 241.582031 250.136719 254.773438 249.160156 266.167969 251.183594 C 270.664062 252.007812 275.089844 253.433594 279.210938 255.457031 C 287.15625 259.355469 293.152344 265.050781 298.625 270.449219 C 299.300781 271.125 299.976562 271.796875 300.648438 272.472656 L 298.773438 270.898438 C 291.878906 265.128906 285.734375 260.554688 278.238281 257.257812 C 273.964844 255.457031 269.464844 254.109375 264.894531 253.359375 C 253.652344 251.410156 240.308594 252.085938 227.414062 255.15625 C 226.664062 255.308594 225.992188 255.53125 225.316406 255.683594 L 226.140625 254.78125 C 227.113281 254.558594 228.015625 254.257812 228.988281 253.957031 Z M 226.664062 254.410156 L 227.414062 253.582031 C 228.390625 253.210938 229.4375 252.757812 230.414062 252.382812 C 242.632812 247.886719 256.125 246.539062 267.441406 248.710938 C 271.941406 249.535156 276.363281 251.109375 280.410156 253.359375 C 287.980469 257.554688 293.378906 263.554688 298.773438 269.851562 C 299.300781 270.449219 299.898438 271.125 300.347656 271.796875 C 299.898438 271.347656 299.375 270.824219 298.925781 270.375 C 293.453125 264.902344 287.382812 259.28125 279.4375 255.308594 C 275.238281 253.285156 270.816406 251.859375 266.242188 251.035156 C 254.851562 248.9375 241.582031 249.910156 228.914062 253.808594 C 228.089844 253.882812 227.339844 254.109375 226.664062 254.410156 Z M 301.097656 273.371094 C 300.347656 272.773438 299.523438 272.25 298.773438 271.648438 C 292.554688 267.226562 285.65625 262.730469 277.1875 259.429688 C 272.839844 257.78125 268.34375 256.582031 263.769531 255.90625 C 249.527344 253.660156 235.4375 255.15625 226.140625 256.808594 L 224.191406 257.105469 L 225.015625 256.132812 C 225.839844 255.90625 226.742188 255.683594 227.566406 255.457031 C 240.382812 252.382812 253.652344 251.710938 264.894531 253.660156 C 269.464844 254.410156 273.890625 255.683594 278.085938 257.558594 C 285.582031 260.855469 291.730469 265.351562 298.550781 271.125 C 299.375 271.875 300.273438 272.625 301.097656 273.371094 Z M 224.867188 255.90625 L 223.816406 256.207031 L 224.640625 255.457031 L 225.617188 255.15625 Z M 224.492188 256.355469 L 223.742188 257.257812 L 222.617188 257.480469 C 222.917969 257.183594 223.140625 256.882812 223.441406 256.65625 C 223.742188 256.507812 224.117188 256.433594 224.492188 256.355469 Z M 222.019531 257.554688 L 220.894531 257.78125 L 221.71875 257.105469 L 222.769531 256.808594 Z M 222.167969 257.855469 L 223.367188 257.632812 L 222.542969 258.605469 L 221.269531 258.757812 Z M 223.890625 257.554688 L 226.214844 257.105469 C 235.511719 255.457031 249.453125 253.957031 263.695312 256.207031 C 268.265625 256.882812 272.691406 258.082031 277.039062 259.730469 C 285.507812 262.953125 292.402344 267.527344 298.550781 271.875 C 299.523438 272.546875 300.5 273.296875 301.472656 273.972656 C 300.574219 273.371094 299.601562 272.847656 298.699219 272.25 C 292.929688 268.800781 285.132812 264.453125 276.0625 261.453125 C 271.640625 260.03125 267.144531 258.980469 262.570312 258.304688 C 251.328125 256.65625 238.582031 256.65625 224.867188 258.304688 L 223.140625 258.53125 C 223.292969 258.230469 223.59375 257.855469 223.890625 257.554688 Z M 231.835938 250.808594 C 243.679688 245.636719 257.472656 243.914062 268.71875 246.164062 C 273.214844 247.0625 277.5625 248.710938 281.535156 251.183594 C 288.730469 255.683594 293.679688 261.902344 298.851562 269.101562 C 299.300781 269.699219 299.675781 270.222656 300.050781 270.824219 C 299.675781 270.375 299.375 270 299 269.550781 C 293.601562 263.253906 288.132812 257.257812 280.558594 253.058594 C 276.511719 250.808594 272.089844 249.234375 267.519531 248.335938 C 256.125 246.164062 242.632812 247.511719 230.339844 252.007812 C 229.515625 252.308594 228.765625 252.609375 228.015625 252.910156 L 228.6875 252.234375 C 229.589844 251.785156 230.636719 251.261719 231.835938 250.808594 Z M 229.214844 251.636719 L 229.738281 251.109375 C 230.863281 250.4375 231.988281 249.835938 233.1875 249.234375 C 244.804688 243.316406 258.523438 241.214844 269.917969 243.6875 C 274.488281 244.664062 278.761719 246.460938 282.585938 249.085938 C 289.554688 253.882812 294.054688 260.628906 298.851562 268.425781 C 299.148438 268.875 299.449219 269.398438 299.75 269.851562 C 299.523438 269.550781 299.300781 269.25 299.074219 268.949219 C 293.828125 261.828125 288.957031 255.53125 281.683594 250.960938 C 277.710938 248.5625 273.289062 246.835938 268.71875 245.9375 C 257.398438 243.613281 243.53125 245.339844 231.6875 250.585938 C 230.789062 250.886719 229.964844 251.261719 229.214844 251.636719 Z M 227.191406 253.285156 L 226.515625 253.582031 L 227.113281 253.058594 L 227.714844 252.757812 Z M 226.664062 253.882812 L 225.992188 254.632812 L 225.089844 254.933594 L 225.765625 254.257812 Z M 224.417969 255.082031 C 224.191406 255.15625 223.890625 255.234375 223.667969 255.382812 L 224.265625 254.859375 L 224.941406 254.558594 Z M 223.890625 255.683594 L 223.21875 256.355469 L 222.242188 256.65625 L 222.992188 256.058594 C 223.21875 255.90625 223.515625 255.757812 223.890625 255.683594 Z M 221.492188 256.808594 L 220.742188 257.03125 L 221.417969 256.582031 L 222.09375 256.28125 Z M 220.96875 257.332031 C 220.742188 257.554688 220.519531 257.78125 220.21875 258.007812 L 219.246094 258.230469 L 219.996094 257.632812 Z M 218.496094 258.304688 L 217.671875 258.457031 L 218.34375 258.082031 L 219.167969 257.855469 Z M 217.894531 258.757812 L 217.144531 259.355469 L 216.097656 259.503906 L 216.847656 258.980469 Z M 216.621094 259.804688 L 215.796875 260.480469 L 214.597656 260.554688 L 215.496094 259.957031 Z M 215.347656 259.65625 L 214.523438 259.804688 L 215.195312 259.429688 L 216.019531 259.207031 C 215.722656 259.355469 215.496094 259.503906 215.347656 259.65625 Z M 214.671875 260.105469 L 213.921875 260.628906 L 212.796875 260.703125 L 213.621094 260.253906 Z M 213.398438 261.003906 L 212.5 261.605469 L 211.222656 261.605469 L 212.125 261.078125 Z M 212.046875 260.78125 L 211.148438 260.855469 L 211.824219 260.554688 L 212.722656 260.40625 Z M 211.375 261.15625 L 210.472656 261.605469 L 209.351562 261.605469 L 210.175781 261.230469 Z M 207.101562 262.730469 L 208.527344 262.804688 L 207.550781 263.402344 L 206.050781 263.253906 Z M 205.453125 263.179688 L 204.027344 263.027344 L 205.003906 262.652344 L 206.351562 262.730469 Z M 207.699219 262.429688 L 208.675781 261.980469 L 210.023438 261.980469 L 209.125 262.503906 Z M 208.601562 261.679688 L 207.625 261.679688 L 208.375 261.378906 L 209.351562 261.304688 Z M 207.851562 262.054688 L 207.027344 262.429688 L 205.828125 262.355469 L 206.726562 262.054688 Z M 205.003906 262.355469 L 204.027344 262.277344 L 204.777344 262.054688 L 205.753906 262.054688 Z M 204.253906 262.578125 L 203.351562 262.878906 L 202.078125 262.730469 L 202.980469 262.503906 Z M 202.679688 263.179688 C 200.503906 264.003906 198.40625 264.828125 196.308594 265.652344 C 192.109375 267.226562 188.136719 268.800781 184.089844 270.222656 C 170.445312 275.097656 155.53125 279.292969 138.964844 277.796875 C 123.371094 276.371094 106.957031 268.726562 93.691406 257.183594 C 93.539062 255.832031 93.390625 254.484375 93.238281 253.058594 C 105.832031 263.179688 120.597656 270.074219 135.140625 272.171875 C 151.855469 274.648438 167.222656 271.796875 181.242188 268.351562 C 186.261719 267.152344 191.136719 265.726562 196.308594 264.304688 L 201.179688 262.953125 Z M 201.253906 262.652344 L 200.207031 262.503906 L 200.953125 262.355469 L 202.003906 262.429688 Z M 200.429688 262.878906 L 196.308594 264.003906 C 191.136719 265.425781 186.261719 266.777344 181.242188 268.050781 C 167.148438 271.5 151.855469 274.347656 135.214844 271.875 C 120.675781 269.699219 105.757812 262.804688 93.238281 252.609375 C 93.164062 251.261719 93.015625 249.835938 92.941406 248.488281 C 104.632812 257.257812 117.976562 263.554688 131.394531 266.328125 C 148.484375 269.773438 164.75 268.199219 178.390625 266.328125 C 184.6875 265.425781 190.910156 264.304688 197.507812 263.105469 L 199.082031 262.804688 Z M 88.96875 245.261719 C 90.167969 246.238281 91.367188 247.210938 92.640625 248.1875 C 92.714844 249.535156 92.789062 250.960938 92.863281 252.308594 C 91.664062 251.335938 90.542969 250.359375 89.417969 249.386719 C 89.265625 248.035156 89.117188 246.6875 88.96875 245.261719 Z M 89.042969 249.011719 C 87.917969 247.960938 86.792969 246.914062 85.667969 245.863281 C 85.445312 244.515625 85.21875 243.238281 84.996094 241.890625 C 86.195312 242.941406 87.316406 243.988281 88.515625 244.964844 C 88.742188 246.3125 88.890625 247.664062 89.042969 249.011719 Z M 197.433594 262.730469 C 190.835938 263.929688 184.6875 265.050781 178.316406 265.953125 C 164.675781 267.902344 148.484375 269.398438 131.394531 265.953125 C 117.976562 263.179688 104.558594 256.882812 92.863281 248.035156 C 92.789062 246.613281 92.789062 245.261719 92.789062 243.839844 C 103.285156 251.410156 115.050781 257.03125 127.570312 260.40625 C 145.035156 264.902344 161.601562 264.828125 175.46875 264.152344 C 182.589844 263.777344 189.636719 263.179688 196.90625 262.503906 L 197.957031 262.652344 Z M 92.640625 247.8125 C 91.367188 246.835938 90.167969 245.863281 88.96875 244.890625 C 88.816406 243.539062 88.742188 242.113281 88.667969 240.691406 C 89.941406 241.664062 91.214844 242.640625 92.566406 243.613281 C 92.488281 244.964844 92.566406 246.386719 92.640625 247.8125 Z M 88.515625 244.515625 C 87.316406 243.464844 86.117188 242.414062 84.917969 241.367188 C 84.769531 240.015625 84.542969 238.667969 84.394531 237.242188 C 85.667969 238.292969 86.867188 239.339844 88.144531 240.316406 C 88.292969 241.816406 88.441406 243.164062 88.515625 244.515625 Z M 84.695312 241.515625 C 84.84375 242.789062 85.070312 244.140625 85.292969 245.414062 C 84.246094 244.363281 83.269531 243.316406 82.296875 242.191406 C 81.996094 240.914062 81.695312 239.640625 81.472656 238.367188 C 82.519531 239.492188 83.570312 240.542969 84.695312 241.515625 Z M 89.042969 249.535156 C 89.191406 250.886719 89.417969 252.160156 89.640625 253.507812 C 88.59375 252.460938 87.542969 251.410156 86.570312 250.359375 C 86.269531 249.085938 85.96875 247.738281 85.742188 246.460938 C 86.867188 247.4375 87.992188 248.488281 89.042969 249.535156 Z M 89.417969 249.835938 C 90.542969 250.808594 91.664062 251.785156 92.863281 252.757812 C 92.941406 254.109375 93.089844 255.457031 93.238281 256.808594 C 92.117188 255.832031 91.066406 254.859375 90.015625 253.882812 C 89.867188 252.535156 89.640625 251.183594 89.417969 249.835938 Z M 93.316406 257.332031 C 93.464844 258.679688 93.691406 260.03125 93.914062 261.378906 C 92.941406 260.40625 91.964844 259.429688 90.992188 258.457031 C 90.691406 257.183594 90.464844 255.832031 90.167969 254.484375 C 91.214844 255.457031 92.265625 256.355469 93.316406 257.332031 Z M 93.691406 257.632812 C 97.664062 261.078125 101.859375 264.152344 106.28125 266.851562 C 116.851562 273.222656 128.09375 277.121094 138.964844 278.09375 C 155.605469 279.59375 170.523438 275.320312 184.238281 270.523438 C 188.285156 269.101562 192.410156 267.527344 196.457031 265.953125 C 198.78125 265.050781 201.105469 264.152344 203.429688 263.328125 L 204.925781 263.476562 C 202.304688 264.753906 199.679688 266.101562 197.132812 267.375 C 193.832031 269.023438 190.386719 270.75 187.011719 272.398438 C 173.820312 278.621094 159.351562 284.316406 142.789062 283.71875 C 125.921875 283.117188 108.15625 274.871094 94.363281 261.753906 C 94.0625 260.40625 93.914062 259.054688 93.691406 257.632812 Z M 142.710938 284.015625 C 159.351562 284.617188 173.894531 278.917969 187.085938 272.625 C 190.460938 271.050781 193.910156 269.25 197.207031 267.601562 C 199.90625 266.25 202.679688 264.828125 205.453125 263.476562 L 207.027344 263.628906 C 204.101562 265.425781 201.179688 267.226562 198.332031 269.023438 C 195.484375 270.824219 192.632812 272.625 189.710938 274.421875 C 177.042969 282.066406 162.949219 289.1875 146.386719 289.5625 L 145.410156 289.5625 C 127.871094 289.5625 108.90625 280.570312 95.039062 266.175781 C 94.738281 264.902344 94.515625 263.554688 94.289062 262.203125 C 108.15625 275.246094 125.921875 283.417969 142.710938 284.015625 Z M 113.476562 280.945312 C 124.273438 287.015625 135.667969 290.164062 146.460938 289.9375 C 163.101562 289.640625 177.191406 282.441406 189.9375 274.796875 C 192.785156 273.074219 195.707031 271.199219 198.554688 269.398438 C 201.554688 267.527344 204.554688 265.652344 207.550781 263.777344 L 209.199219 263.929688 C 206.125 266.25 203.054688 268.574219 200.054688 270.898438 C 197.65625 272.773438 195.109375 274.722656 192.632812 276.597656 C 180.566406 285.664062 167.074219 294.210938 150.28125 295.484375 C 131.320312 296.910156 110.480469 287.089844 96.238281 270.675781 C 95.9375 269.398438 95.5625 268.125 95.339844 266.851562 C 100.660156 272.398438 106.808594 277.121094 113.476562 280.945312 Z M 208.074219 263.476562 L 209.125 262.878906 L 210.625 262.953125 L 209.648438 263.703125 Z M 209.574219 262.578125 L 210.550781 261.980469 L 211.972656 261.980469 L 211 262.652344 Z M 212.574219 261.902344 L 213.996094 261.902344 L 213.023438 262.730469 L 211.523438 262.652344 Z M 213.023438 261.605469 L 213.996094 260.929688 L 215.347656 260.855469 L 214.445312 261.605469 Z M 216.320312 260.40625 L 217.222656 259.65625 L 218.496094 259.503906 L 217.671875 260.328125 Z M 219.09375 259.429688 L 220.445312 259.28125 L 219.542969 260.253906 L 218.195312 260.328125 Z M 220.894531 259.207031 L 222.242188 259.054688 C 221.941406 259.429688 221.644531 259.730469 221.417969 260.105469 L 219.996094 260.179688 Z M 222.691406 258.90625 L 224.714844 258.605469 C 238.433594 256.957031 251.101562 256.957031 262.34375 258.605469 C 266.917969 259.28125 271.414062 260.328125 275.839844 261.753906 C 284.90625 264.753906 292.703125 269.023438 298.402344 272.472656 C 299.449219 273.074219 300.5 273.746094 301.472656 274.347656 L 301.472656 274.421875 C 300.5 273.898438 299.523438 273.371094 298.476562 272.921875 C 290.90625 269.023438 282.960938 265.953125 274.789062 263.628906 C 270.292969 262.429688 265.71875 261.453125 261.144531 260.855469 C 250.128906 259.355469 237.382812 258.980469 223.292969 259.878906 L 221.792969 259.957031 Z M 299.074219 268.199219 C 294.277344 260.40625 289.78125 253.582031 282.734375 248.785156 C 278.835938 246.164062 274.488281 244.289062 269.917969 243.390625 C 258.523438 240.914062 244.65625 243.015625 233.035156 248.9375 C 232.210938 249.3125 231.460938 249.761719 230.636719 250.210938 L 230.9375 249.984375 C 232.136719 249.160156 233.335938 248.410156 234.609375 247.664062 C 245.855469 241.066406 259.871094 238.59375 271.191406 241.214844 C 275.761719 242.191406 280.035156 244.140625 283.707031 246.988281 C 290.980469 252.535156 295.402344 260.929688 298.925781 267.75 L 299.449219 268.800781 C 299.300781 268.5 299.148438 268.351562 299.074219 268.199219 Z M 228.6875 251.710938 L 228.390625 252.007812 L 228.015625 252.160156 L 228.390625 251.859375 Z M 225.992188 253.582031 L 225.691406 253.882812 L 225.316406 254.035156 L 225.691406 253.734375 Z M 223.140625 255.308594 L 222.769531 255.609375 L 222.316406 255.757812 L 222.691406 255.457031 Z M 220.21875 256.957031 L 219.84375 257.257812 C 219.695312 257.332031 219.542969 257.332031 219.394531 257.40625 C 219.542969 257.332031 219.621094 257.257812 219.769531 257.183594 Z M 217.144531 258.457031 L 216.769531 258.679688 L 216.246094 258.832031 L 216.621094 258.605469 Z M 213.996094 259.730469 L 213.546875 259.957031 L 213.023438 260.03125 L 213.472656 259.804688 Z M 210.625 260.78125 L 210.175781 261.003906 L 209.574219 261.078125 L 210.023438 260.929688 Z M 207.101562 261.53125 L 206.652344 261.679688 L 205.976562 261.679688 L 206.425781 261.53125 Z M 203.429688 262.128906 L 202.980469 262.277344 L 202.378906 262.277344 L 202.828125 262.203125 Z M 199.53125 262.355469 L 199.15625 262.429688 L 198.554688 262.355469 Z M 195.484375 262.277344 C 188.738281 262.878906 182.140625 263.476562 175.542969 263.777344 C 161.675781 264.453125 145.1875 264.527344 127.71875 260.03125 C 115.203125 256.65625 103.359375 250.960938 92.789062 243.390625 C 92.789062 242.039062 92.789062 240.691406 92.789062 239.265625 C 102.308594 245.789062 112.730469 250.886719 123.746094 254.410156 C 137.914062 258.832031 152.90625 261.15625 172.546875 261.980469 C 179.890625 262.277344 187.238281 262.277344 194.734375 262.203125 Z M 92.488281 243.164062 C 91.140625 242.191406 89.867188 241.214844 88.59375 240.242188 C 88.515625 238.890625 88.441406 237.542969 88.441406 236.195312 C 89.792969 237.167969 91.140625 238.140625 92.566406 239.117188 C 92.488281 240.464844 92.488281 241.816406 92.488281 243.164062 Z M 88.21875 239.941406 C 86.941406 238.96875 85.667969 237.917969 84.394531 236.792969 C 84.246094 235.445312 84.167969 234.09375 84.09375 232.746094 C 85.367188 233.792969 86.71875 234.84375 88.066406 235.820312 C 88.144531 237.242188 88.144531 238.59375 88.21875 239.941406 Z M 84.09375 232.371094 C 84.019531 231.019531 83.945312 229.671875 83.945312 228.398438 C 85.292969 229.449219 86.71875 230.496094 88.144531 231.472656 C 88.144531 232.820312 88.144531 234.167969 88.144531 235.519531 C 86.71875 234.46875 85.371094 233.421875 84.09375 232.371094 Z M 83.71875 232.070312 C 82.445312 231.019531 81.171875 229.972656 79.972656 228.847656 C 79.820312 227.5 79.746094 226.222656 79.597656 224.875 C 80.871094 225.925781 82.222656 227.046875 83.496094 228.023438 C 83.570312 229.371094 83.644531 230.722656 83.71875 232.070312 Z M 79.597656 224.5 C 79.523438 223.152344 79.449219 221.800781 79.371094 220.453125 C 80.722656 221.578125 82.144531 222.625 83.496094 223.675781 C 83.496094 225.023438 83.496094 226.300781 83.496094 227.722656 C 82.222656 226.597656 80.871094 225.550781 79.597656 224.5 Z M 79.222656 224.199219 C 77.949219 223.152344 76.675781 222.027344 75.476562 220.902344 C 75.324219 219.554688 75.175781 218.277344 75.101562 216.929688 C 76.375 218.054688 77.722656 219.101562 78.996094 220.226562 C 79.074219 221.5 79.148438 222.851562 79.222656 224.199219 Z M 75.101562 216.328125 C 74.648438 210.03125 74.726562 203.738281 75.25 197.441406 C 76.300781 184.472656 79.074219 171.503906 81.769531 158.910156 C 83.34375 151.640625 84.917969 144.21875 86.195312 136.800781 C 87.769531 127.355469 89.191406 116.183594 87.542969 105.167969 C 86.867188 100.367188 85.445312 95.722656 83.421875 91.300781 C 83.046875 90.476562 82.59375 89.648438 82.222656 88.902344 C 83.121094 89.199219 83.945312 89.574219 84.84375 89.949219 C 85.894531 91.523438 86.941406 93.171875 87.769531 94.898438 C 89.941406 99.394531 91.515625 104.117188 92.339844 109.0625 C 94.214844 120.382812 92.789062 131.851562 91.140625 141.671875 C 89.792969 149.617188 88.066406 157.636719 86.417969 165.359375 C 83.644531 178.101562 80.871094 191.21875 79.671875 204.410156 C 79.222656 209.507812 79.074219 214.605469 79.222656 219.703125 C 77.722656 218.578125 76.449219 217.453125 75.101562 216.328125 Z M 83.046875 91.449219 C 85.070312 95.796875 86.417969 100.445312 87.09375 105.242188 C 88.742188 116.183594 87.316406 127.277344 85.742188 136.722656 C 84.46875 144.144531 82.894531 151.640625 81.320312 158.835938 C 78.621094 171.429688 75.847656 184.398438 74.800781 197.441406 C 74.273438 203.660156 74.273438 209.882812 74.648438 216.03125 C 73.375 214.90625 72.175781 213.855469 70.976562 212.65625 C 70.078125 205.3125 69.929688 197.816406 70.453125 190.46875 C 71.351562 177.652344 74.125 164.832031 76.75 152.464844 C 78.171875 145.71875 79.671875 138.746094 80.796875 131.851562 C 82.371094 122.707031 83.71875 111.914062 82.296875 101.34375 C 81.695312 96.695312 80.421875 92.199219 78.621094 87.925781 C 79.597656 88.152344 80.570312 88.449219 81.546875 88.824219 C 82.144531 89.574219 82.671875 90.476562 83.046875 91.449219 Z M 78.546875 87.476562 C 78.171875 86.578125 77.796875 85.753906 77.347656 85.003906 C 78.25 85.300781 79.148438 85.675781 80.046875 86.050781 C 80.496094 86.800781 81.023438 87.550781 81.394531 88.300781 C 80.496094 88 79.523438 87.703125 78.546875 87.476562 Z M 78.171875 87.402344 C 77.125 87.175781 76.074219 86.953125 74.949219 86.726562 C 74.726562 85.976562 74.425781 85.226562 74.125 84.476562 C 74.050781 84.328125 73.976562 84.101562 73.902344 83.953125 C 74.875 84.179688 75.925781 84.554688 76.898438 84.851562 C 77.347656 85.675781 77.796875 86.5 78.171875 87.402344 Z M 73.75 83.578125 C 73.375 82.679688 73 81.855469 72.550781 81.03125 C 73.449219 81.328125 74.351562 81.703125 75.25 82.078125 C 75.773438 82.828125 76.222656 83.578125 76.675781 84.402344 C 75.773438 84.101562 74.800781 83.804688 73.75 83.578125 Z M 73.375 83.429688 C 72.328125 83.203125 71.203125 82.902344 70.152344 82.753906 C 70.003906 82.152344 69.777344 81.628906 69.554688 81.03125 C 69.402344 80.65625 69.253906 80.28125 69.101562 79.832031 C 70.152344 80.128906 71.128906 80.429688 72.175781 80.730469 C 72.625 81.703125 73 82.527344 73.375 83.429688 Z M 69.027344 79.53125 C 68.652344 78.632812 68.277344 77.730469 67.902344 76.90625 C 68.804688 77.28125 69.777344 77.65625 70.675781 78.03125 C 71.128906 78.78125 71.578125 79.605469 72.027344 80.429688 C 70.976562 80.054688 70.003906 79.753906 69.027344 79.53125 Z M 68.578125 79.378906 C 67.453125 79.082031 66.328125 78.855469 65.28125 78.632812 C 65.207031 78.257812 65.128906 77.957031 64.980469 77.582031 C 64.753906 76.90625 64.53125 76.308594 64.304688 75.632812 C 65.355469 75.933594 66.40625 76.234375 67.378906 76.605469 C 67.828125 77.582031 68.277344 78.480469 68.578125 79.378906 Z M 64.230469 75.332031 C 63.855469 74.359375 63.480469 73.460938 63.105469 72.558594 C 64.007812 72.933594 64.980469 73.308594 65.878906 73.757812 C 66.328125 74.582031 66.78125 75.40625 67.230469 76.234375 C 66.253906 75.933594 65.207031 75.632812 64.230469 75.332031 Z M 63.78125 75.257812 C 62.65625 74.957031 61.53125 74.660156 60.40625 74.433594 C 60.40625 74.359375 60.332031 74.285156 60.332031 74.207031 C 60.109375 73.234375 59.808594 72.261719 59.433594 71.359375 C 60.484375 71.660156 61.53125 72.035156 62.582031 72.410156 C 63.105469 73.308594 63.480469 74.285156 63.78125 75.257812 Z M 59.433594 70.984375 C 59.132812 70.011719 58.757812 69.035156 58.382812 68.136719 C 59.359375 68.511719 60.257812 68.960938 61.234375 69.410156 C 61.683594 70.234375 62.132812 71.136719 62.582031 72.035156 C 61.457031 71.660156 60.484375 71.285156 59.433594 70.984375 Z M 59.058594 70.910156 C 57.933594 70.609375 56.808594 70.3125 55.609375 70.011719 C 55.386719 68.960938 55.085938 67.835938 54.710938 66.789062 C 55.761719 67.164062 56.808594 67.539062 57.859375 67.988281 C 58.308594 68.886719 58.683594 69.859375 59.058594 70.910156 Z M 54.636719 66.414062 C 54.335938 65.4375 53.960938 64.390625 53.585938 63.414062 C 54.5625 63.863281 55.535156 64.3125 56.433594 64.839844 C 56.886719 65.738281 57.335938 66.5625 57.710938 67.539062 C 56.734375 67.085938 55.6875 66.710938 54.636719 66.414062 Z M 55.3125 70.234375 L 55.460938 70.910156 C 55.6875 71.808594 55.835938 72.710938 55.984375 73.683594 C 54.636719 73.460938 53.210938 73.308594 51.863281 73.160156 C 51.789062 71.886719 51.636719 70.6875 51.488281 69.484375 C 52.835938 69.636719 54.113281 69.9375 55.3125 70.234375 Z M 56.058594 73.984375 C 56.210938 75.183594 56.359375 76.382812 56.511719 77.582031 C 55.011719 77.433594 53.585938 77.355469 52.085938 77.28125 C 52.085938 76.007812 52.011719 74.734375 51.9375 73.382812 C 53.285156 73.609375 54.710938 73.757812 56.058594 73.984375 Z M 56.585938 77.882812 C 56.734375 79.15625 56.808594 80.355469 56.808594 81.628906 C 55.234375 81.628906 53.660156 81.628906 52.085938 81.628906 C 52.085938 80.503906 52.164062 79.457031 52.164062 78.332031 C 52.164062 78.105469 52.164062 77.882812 52.164062 77.582031 C 53.585938 77.730469 55.085938 77.808594 56.585938 77.882812 Z M 56.808594 82.003906 C 56.808594 82.078125 56.808594 82.152344 56.808594 82.152344 C 56.886719 83.429688 56.886719 84.628906 56.808594 85.902344 C 55.160156 85.976562 53.4375 86.050781 51.710938 86.128906 C 51.863281 84.703125 51.9375 83.355469 51.9375 81.929688 C 53.660156 82.003906 55.234375 82.003906 56.808594 82.003906 Z M 57.183594 82.152344 C 57.183594 82.078125 57.183594 82.003906 57.183594 82.003906 C 58.683594 82.003906 60.109375 82.078125 61.53125 82.152344 C 61.683594 83.355469 61.757812 84.554688 61.832031 85.828125 C 60.257812 85.828125 58.683594 85.902344 57.183594 85.976562 C 57.183594 84.703125 57.183594 83.429688 57.183594 82.152344 Z M 61.90625 86.128906 C 62.433594 95.195312 61.082031 104.34375 59.734375 112.0625 C 58.910156 116.859375 57.933594 121.730469 56.960938 126.378906 C 54.5625 138.148438 52.085938 150.367188 51.636719 162.507812 C 51.1875 173.976562 52.6875 185.371094 56.136719 196.316406 C 55.234375 195.191406 54.410156 194.066406 53.585938 192.867188 C 49.089844 180.949219 46.992188 168.28125 47.367188 155.539062 C 47.664062 143.546875 50.140625 131.550781 52.460938 119.859375 C 53.285156 115.660156 54.1875 111.386719 54.9375 107.117188 C 56.285156 100.21875 57.035156 93.171875 57.335938 86.128906 C 58.757812 86.203125 60.332031 86.203125 61.90625 86.128906 Z M 51.9375 162.585938 C 52.386719 150.441406 54.859375 138.296875 57.261719 126.53125 C 58.234375 121.808594 59.207031 116.933594 60.035156 112.136719 C 61.382812 104.417969 62.730469 95.195312 62.207031 86.128906 C 63.632812 86.128906 65.054688 86.128906 66.554688 86.203125 C 66.703125 87.402344 66.855469 88.601562 66.929688 89.800781 C 67.679688 99.320312 66.328125 108.839844 64.90625 116.933594 C 64.007812 122.257812 62.882812 127.652344 61.757812 132.902344 C 59.285156 144.820312 56.808594 157.1875 56.210938 169.480469 C 55.6875 179.976562 56.808594 190.394531 59.433594 200.511719 C 58.460938 199.390625 57.558594 198.265625 56.660156 197.140625 C 53.136719 186.046875 51.488281 174.351562 51.9375 162.585938 Z M 58.160156 199.613281 C 58.683594 200.289062 59.285156 200.886719 59.808594 201.5625 C 60.109375 202.761719 60.484375 203.886719 60.859375 205.085938 C 60.035156 204.035156 59.207031 202.910156 58.382812 201.863281 C 57.933594 200.738281 57.558594 199.539062 57.183594 198.414062 C 57.484375 198.789062 57.785156 199.238281 58.160156 199.613281 Z M 60.257812 202.164062 C 61.234375 203.285156 62.207031 204.410156 63.179688 205.460938 C 63.480469 206.660156 63.78125 207.933594 64.082031 209.132812 C 63.332031 208.234375 62.582031 207.410156 61.90625 206.511719 C 61.757812 206.285156 61.53125 206.058594 61.382812 205.835938 C 61.007812 204.5625 60.632812 203.363281 60.257812 202.164062 Z M 61.683594 206.660156 C 62.582031 207.710938 63.40625 208.757812 64.304688 209.808594 C 64.605469 211.007812 64.980469 212.132812 65.28125 213.332031 C 64.457031 212.28125 63.632812 211.15625 62.808594 210.109375 C 62.433594 208.984375 62.058594 207.859375 61.683594 206.660156 Z M 64.832031 210.40625 C 65.804688 211.53125 66.78125 212.582031 67.753906 213.707031 C 68.054688 214.980469 68.277344 216.179688 68.652344 217.378906 C 67.753906 216.253906 66.78125 215.207031 65.878906 214.082031 C 65.503906 212.882812 65.128906 211.605469 64.832031 210.40625 Z M 68.804688 218.054688 C 69.101562 219.253906 69.476562 220.378906 69.777344 221.578125 L 69.179688 220.828125 C 68.578125 220.003906 67.902344 219.179688 67.304688 218.351562 C 66.855469 217.230469 66.480469 216.03125 66.105469 214.90625 C 67.003906 215.953125 67.902344 217.003906 68.804688 218.054688 Z M 69.328125 218.652344 C 70.300781 219.777344 71.277344 220.828125 72.25 221.875 C 72.476562 223.152344 72.777344 224.351562 73.074219 225.625 C 72.175781 224.574219 71.203125 223.449219 70.300781 222.328125 C 70.003906 221.125 69.554688 219.851562 69.328125 218.652344 Z M 73.300781 226.300781 C 73.601562 227.5 73.902344 228.699219 74.273438 229.898438 C 73.824219 229.296875 73.375 228.699219 72.925781 228.097656 L 71.875 226.671875 C 71.425781 225.550781 71.050781 224.351562 70.675781 223.152344 C 71.5 224.199219 72.328125 225.25 73.300781 226.300781 Z M 73.75 226.824219 C 74.648438 227.875 75.625 228.847656 76.597656 229.898438 C 76.824219 231.171875 77.125 232.371094 77.421875 233.644531 C 76.523438 232.59375 75.625 231.546875 74.800781 230.570312 C 74.425781 229.296875 74.050781 228.023438 73.75 226.824219 Z M 78.097656 234.84375 C 79.074219 235.894531 80.046875 236.941406 81.097656 237.992188 C 81.320312 239.265625 81.621094 240.464844 81.921875 241.742188 C 80.945312 240.691406 80.046875 239.640625 79.148438 238.515625 C 78.699219 237.316406 78.324219 236.042969 78.097656 234.84375 Z M 82.445312 242.941406 C 83.421875 243.988281 84.394531 245.039062 85.445312 246.011719 C 85.667969 247.289062 85.894531 248.5625 86.195312 249.835938 C 85.21875 248.785156 84.320312 247.738281 83.421875 246.6875 C 83.046875 245.414062 82.671875 244.140625 82.445312 242.941406 Z M 86.34375 250.511719 C 86.644531 251.710938 86.941406 252.984375 87.242188 254.183594 C 86.417969 253.132812 85.59375 252.085938 84.769531 251.035156 C 84.394531 249.835938 84.019531 248.636719 83.644531 247.4375 C 84.46875 248.488281 85.371094 249.460938 86.34375 250.511719 Z M 86.792969 250.960938 C 87.769531 252.007812 88.816406 253.058594 89.792969 254.035156 C 90.015625 255.382812 90.242188 256.65625 90.542969 257.929688 C 89.566406 256.882812 88.59375 255.832031 87.691406 254.707031 C 87.394531 253.507812 87.09375 252.234375 86.792969 250.960938 Z M 90.691406 258.605469 C 90.992188 259.878906 91.289062 261.078125 91.589844 262.355469 C 90.691406 261.304688 89.867188 260.253906 89.042969 259.207031 C 88.667969 258.007812 88.292969 256.808594 87.917969 255.609375 C 88.816406 256.582031 89.714844 257.632812 90.691406 258.605469 Z M 91.140625 259.054688 C 92.117188 260.03125 93.015625 261.003906 93.988281 261.902344 C 94.214844 263.253906 94.4375 264.527344 94.738281 265.800781 C 93.839844 264.828125 92.941406 263.851562 92.117188 262.878906 C 91.742188 261.605469 91.441406 260.328125 91.140625 259.054688 Z M 94.890625 266.402344 C 95.1875 267.675781 95.488281 268.949219 95.789062 270.148438 C 94.964844 269.175781 94.214844 268.199219 93.464844 267.226562 C 93.089844 266.027344 92.714844 264.828125 92.339844 263.554688 C 93.089844 264.527344 93.988281 265.503906 94.890625 266.402344 Z M 95.9375 270.898438 C 96.238281 272.097656 96.613281 273.222656 96.914062 274.347656 C 96.238281 273.449219 95.5625 272.472656 94.890625 271.5 C 94.4375 270.375 94.0625 269.25 93.691406 268.125 C 94.363281 269.101562 95.113281 270 95.9375 270.898438 Z M 96.386719 271.425781 C 110.628906 287.613281 131.394531 297.210938 150.28125 295.859375 C 167.148438 294.585938 180.714844 285.964844 192.933594 276.894531 C 195.40625 275.023438 197.957031 273.074219 200.355469 271.199219 C 203.429688 268.800781 206.578125 266.402344 209.726562 264.003906 L 211.375 264.152344 C 208.226562 266.925781 205.078125 269.851562 202.078125 272.699219 C 199.90625 274.722656 197.730469 276.820312 195.484375 278.769531 C 184.464844 288.738281 170.898438 299.234375 153.957031 301.40625 C 134.167969 303.957031 111.453125 293.238281 97.4375 275.023438 C 97.0625 273.898438 96.6875 272.625 96.386719 271.425781 Z M 210.175781 263.703125 C 210.550781 263.476562 210.847656 263.179688 211.222656 262.953125 L 212.796875 263.027344 L 211.824219 263.851562 Z M 213.246094 263.105469 L 214.820312 263.179688 L 213.847656 264.152344 L 212.199219 264.003906 Z M 213.621094 262.804688 L 214.597656 261.980469 L 216.097656 261.980469 L 215.195312 262.878906 Z M 216.546875 261.902344 L 218.046875 261.902344 C 217.746094 262.277344 217.445312 262.578125 217.144531 262.953125 L 216.769531 262.953125 L 215.570312 262.878906 Z M 216.921875 261.605469 L 217.894531 260.703125 L 219.320312 260.628906 C 219.019531 261.003906 218.71875 261.304688 218.421875 261.605469 Z M 219.695312 260.554688 L 221.195312 260.480469 C 220.894531 260.855469 220.59375 261.230469 220.367188 261.605469 L 218.871094 261.605469 Z M 221.644531 260.40625 C 222.242188 260.40625 222.84375 260.328125 223.441406 260.253906 C 237.535156 259.355469 250.277344 259.730469 261.222656 261.230469 C 265.792969 261.828125 270.367188 262.804688 274.789062 264.003906 C 282.960938 266.328125 290.90625 269.398438 298.476562 273.296875 C 299.601562 273.824219 300.648438 274.421875 301.699219 274.945312 L 301.699219 275.023438 C 300.648438 274.570312 299.601562 274.121094 298.476562 273.671875 C 290.453125 270.375 282.210938 267.75 273.738281 265.800781 C 269.464844 264.828125 264.820312 264.003906 259.945312 263.402344 C 249.078125 262.054688 236.933594 261.453125 221.941406 261.53125 L 220.667969 261.53125 C 220.96875 261.15625 221.269531 260.78125 221.644531 260.40625 Z M 302.074219 275.171875 Z M 299.148438 267.449219 C 295.628906 260.628906 291.203125 252.160156 283.859375 246.613281 C 280.109375 243.765625 275.761719 241.816406 271.191406 240.839844 C 259.796875 238.21875 245.703125 240.765625 234.386719 247.363281 C 233.785156 247.738281 233.1875 248.113281 232.511719 248.488281 C 233.636719 247.664062 234.761719 246.835938 235.886719 246.089844 C 246.980469 238.816406 260.921875 235.96875 272.238281 238.667969 C 276.8125 239.714844 281.011719 241.816406 284.683594 244.738281 C 291.730469 250.660156 295.476562 259.28125 298.851562 266.925781 Z M 172.621094 261.605469 C 153.054688 260.855469 137.988281 258.53125 123.898438 254.109375 C 112.878906 250.585938 102.382812 245.414062 92.863281 238.890625 C 92.941406 237.542969 92.941406 236.195312 93.015625 234.84375 C 101.484375 240.390625 110.554688 244.964844 120.074219 248.5625 C 134.542969 253.957031 150.28125 257.554688 169.695312 259.878906 C 177.191406 260.78125 184.6875 261.453125 192.257812 261.902344 C 185.664062 261.902344 179.140625 261.902344 172.621094 261.605469 Z M 92.566406 238.667969 C 91.140625 237.691406 89.792969 236.71875 88.441406 235.742188 C 88.441406 234.394531 88.441406 233.046875 88.441406 231.695312 C 89.867188 232.671875 91.289062 233.644531 92.789062 234.621094 C 92.640625 235.96875 92.566406 237.316406 92.566406 238.667969 Z M 88.367188 231.320312 C 88.367188 229.972656 88.441406 228.621094 88.515625 227.273438 C 90.015625 228.324219 91.515625 229.296875 93.015625 230.273438 C 92.941406 231.621094 92.789062 232.96875 92.714844 234.320312 C 91.289062 233.269531 89.867188 232.296875 88.367188 231.320312 Z M 88.066406 231.097656 C 86.644531 230.046875 85.21875 228.996094 83.871094 227.949219 C 83.871094 226.597656 83.796875 225.25 83.871094 223.898438 C 85.292969 224.949219 86.71875 226 88.21875 227.046875 C 88.144531 228.398438 88.066406 229.746094 88.066406 231.097656 Z M 92.265625 98.269531 C 94.664062 102.84375 96.386719 107.789062 97.289062 112.8125 C 99.386719 124.429688 97.960938 136.347656 96.238281 146.46875 C 94.8125 154.9375 92.941406 163.484375 91.140625 171.730469 C 88.367188 184.621094 85.445312 197.964844 84.167969 211.230469 C 83.796875 214.90625 83.570312 218.878906 83.496094 223.074219 C 82.070312 222.027344 80.722656 220.902344 79.371094 219.851562 C 79.222656 214.679688 79.371094 209.507812 79.820312 204.335938 C 81.023438 191.21875 83.796875 178.027344 86.570312 165.359375 C 88.21875 157.636719 89.941406 149.617188 91.289062 141.671875 C 92.941406 131.851562 94.363281 120.308594 92.488281 108.988281 C 91.664062 104.042969 90.167969 99.246094 87.917969 94.746094 C 87.09375 93.171875 86.269531 91.675781 85.292969 90.175781 C 86.042969 90.550781 86.792969 90.925781 87.542969 91.300781 C 89.34375 93.472656 90.917969 95.796875 92.265625 98.269531 Z M 84.394531 89.425781 C 83.570312 89.050781 82.746094 88.75 81.921875 88.449219 C 81.472656 87.703125 81.097656 86.953125 80.570312 86.277344 C 81.394531 86.652344 82.144531 87.027344 82.894531 87.476562 C 83.421875 88.074219 83.945312 88.75 84.394531 89.425781 Z M 79.671875 85.527344 C 78.847656 85.152344 78.023438 84.851562 77.125 84.554688 C 76.675781 83.804688 76.300781 83.054688 75.847656 82.304688 C 76.597656 82.679688 77.421875 83.054688 78.171875 83.503906 C 78.699219 84.179688 79.222656 84.851562 79.671875 85.527344 Z M 75.023438 81.554688 C 74.199219 81.179688 73.300781 80.878906 72.476562 80.582031 C 72.101562 79.753906 71.652344 79.007812 71.203125 78.257812 C 72.027344 78.632812 72.851562 79.082031 73.601562 79.53125 C 74.050781 80.128906 74.5 80.804688 75.023438 81.554688 Z M 70.300781 77.507812 C 69.402344 77.132812 68.578125 76.757812 67.679688 76.457031 C 67.304688 75.632812 66.855469 74.808594 66.40625 74.058594 C 67.230469 74.433594 68.054688 74.882812 68.804688 75.40625 C 69.328125 76.007812 69.851562 76.757812 70.300781 77.507812 Z M 65.582031 73.308594 C 64.679688 72.859375 63.78125 72.484375 62.882812 72.183594 C 62.507812 71.285156 62.058594 70.460938 61.605469 69.710938 C 62.433594 70.160156 63.257812 70.609375 64.082031 71.136719 C 64.679688 71.808594 65.128906 72.558594 65.582031 73.308594 Z M 60.859375 68.886719 C 59.957031 68.4375 59.058594 68.0625 58.160156 67.6875 C 57.785156 66.789062 57.410156 65.964844 56.960938 65.0625 C 57.785156 65.511719 58.609375 66.039062 59.433594 66.5625 C 59.957031 67.3125 60.40625 68.136719 60.859375 68.886719 Z M 54.859375 61.992188 C 55.3125 62.738281 55.761719 63.488281 56.210938 64.3125 C 55.3125 63.863281 54.410156 63.414062 53.511719 62.964844 C 53.136719 62.066406 52.761719 61.164062 52.3125 60.265625 C 53.136719 60.792969 53.960938 61.316406 54.785156 61.914062 Z M 52.011719 59.742188 C 51.863281 59.367188 51.636719 58.992188 51.414062 58.617188 C 51.1875 58.242188 50.964844 57.792969 50.738281 57.417969 C 51.414062 57.941406 52.085938 58.542969 52.761719 59.140625 C 53.285156 59.816406 53.738281 60.492188 54.261719 61.242188 C 53.511719 60.640625 52.761719 60.191406 52.011719 59.742188 Z M 51.1875 58.765625 L 51.5625 59.441406 C 50.664062 58.917969 49.765625 58.390625 48.863281 57.941406 C 48.566406 57.042969 48.191406 56.21875 47.890625 55.320312 L 47.738281 55.019531 C 48.566406 55.542969 49.390625 56.144531 50.140625 56.742188 C 50.4375 57.417969 50.8125 58.09375 51.1875 58.765625 Z M 47.140625 54.71875 L 47.441406 55.46875 C 47.738281 56.21875 48.039062 56.96875 48.339844 57.71875 C 47.289062 57.191406 46.242188 56.742188 45.191406 56.21875 C 44.964844 55.09375 44.667969 54.042969 44.292969 52.921875 C 45.339844 53.519531 46.242188 54.121094 47.140625 54.71875 Z M 48.488281 58.167969 C 48.863281 59.21875 49.164062 60.265625 49.464844 61.390625 C 48.339844 60.941406 47.140625 60.566406 46.015625 60.117188 C 45.792969 58.917969 45.566406 57.792969 45.265625 56.667969 C 46.390625 57.117188 47.441406 57.644531 48.488281 58.167969 Z M 50.511719 65.4375 C 50.664062 66.113281 50.8125 66.789062 50.886719 67.386719 C 50.964844 67.914062 51.039062 68.4375 51.113281 68.960938 C 49.765625 68.738281 48.339844 68.4375 46.992188 68.210938 C 46.914062 66.9375 46.839844 65.664062 46.691406 64.390625 C 47.964844 64.765625 49.238281 65.140625 50.511719 65.4375 Z M 51.1875 69.335938 C 51.339844 70.535156 51.488281 71.808594 51.5625 73.085938 C 50.0625 72.933594 48.566406 72.785156 47.066406 72.632812 C 47.066406 71.285156 47.066406 69.9375 46.992188 68.660156 C 48.414062 68.8125 49.765625 69.113281 51.1875 69.335938 Z M 47.140625 77.433594 L 51.789062 77.65625 C 51.789062 77.882812 51.789062 78.179688 51.789062 78.40625 C 51.789062 79.53125 51.789062 80.582031 51.710938 81.703125 L 46.617188 81.703125 C 46.765625 80.28125 46.839844 78.855469 46.914062 77.433594 Z M 48.863281 82.003906 L 51.789062 82.003906 C 51.710938 83.429688 51.636719 84.851562 51.5625 86.203125 L 50.511719 86.277344 C 49.089844 86.351562 47.664062 86.425781 46.164062 86.5 C 46.316406 85.003906 46.539062 83.578125 46.691406 82.003906 Z M 50.4375 86.578125 L 51.414062 86.5 C 50.964844 92.046875 50.0625 97.445312 49.238281 102.242188 C 48.566406 105.917969 47.816406 109.664062 47.140625 113.335938 C 44.890625 124.878906 42.492188 136.800781 42.269531 148.640625 C 42.042969 161.835938 44.515625 175.027344 49.613281 187.246094 C 49.015625 186.347656 48.414062 185.371094 47.816406 184.398438 C 41.292969 171.128906 37.84375 156.511719 37.921875 141.671875 C 37.996094 129.902344 40.320312 118.132812 42.566406 106.664062 C 43.167969 103.59375 43.765625 100.445312 44.367188 97.371094 C 44.964844 94.074219 45.566406 90.476562 46.089844 86.726562 Z M 42.644531 148.71875 C 42.867188 136.875 45.191406 124.957031 47.515625 113.410156 C 48.265625 109.8125 48.9375 106.066406 49.613281 102.316406 C 50.511719 97.519531 51.339844 92.125 51.789062 86.5 C 53.511719 86.425781 55.160156 86.351562 56.886719 86.277344 C 56.660156 93.324219 55.835938 100.292969 54.488281 107.191406 C 53.738281 111.464844 52.835938 115.734375 52.011719 119.933594 C 49.6875 131.550781 47.289062 143.621094 46.914062 155.613281 C 46.539062 167.980469 48.566406 180.273438 52.761719 191.894531 C 52.011719 190.84375 51.261719 189.792969 50.589844 188.746094 C 45.117188 176.152344 42.417969 162.433594 42.644531 148.71875 Z M 53.363281 193.390625 C 53.660156 194.21875 54.035156 195.117188 54.335938 195.941406 C 53.8125 195.117188 53.285156 194.292969 52.761719 193.390625 C 52.238281 192.492188 51.9375 191.667969 51.5625 190.84375 C 52.164062 191.742188 52.761719 192.566406 53.363281 193.390625 Z M 54.113281 194.367188 C 54.859375 195.417969 55.6875 196.464844 56.511719 197.515625 C 56.886719 198.5625 57.261719 199.613281 57.632812 200.664062 C 56.886719 199.613281 56.136719 198.488281 55.386719 197.441406 C 54.9375 196.464844 54.488281 195.492188 54.113281 194.367188 Z M 58.007812 201.863281 C 58.308594 202.761719 58.683594 203.660156 59.058594 204.5625 C 58.460938 203.660156 57.859375 202.6875 57.335938 201.710938 C 56.960938 200.886719 56.585938 200.0625 56.136719 199.238281 C 56.734375 200.136719 57.335938 200.964844 58.007812 201.863281 Z M 58.832031 202.988281 C 59.582031 203.960938 60.332031 204.9375 61.082031 205.984375 C 61.457031 207.035156 61.832031 208.160156 62.207031 209.207031 C 61.53125 208.234375 60.859375 207.257812 60.183594 206.210938 C 59.660156 205.160156 59.207031 204.035156 58.832031 202.988281 Z M 62.582031 210.257812 C 62.882812 211.15625 63.257812 212.058594 63.632812 212.957031 C 63.105469 212.132812 62.582031 211.382812 62.132812 210.558594 C 61.683594 209.660156 61.234375 208.683594 60.859375 207.785156 C 61.382812 208.609375 61.980469 209.433594 62.582031 210.257812 Z M 63.332031 211.230469 C 64.007812 212.132812 64.679688 213.03125 65.355469 213.855469 L 65.65625 214.230469 C 65.953125 215.355469 66.328125 216.40625 66.703125 217.453125 C 65.953125 216.480469 65.28125 215.429688 64.605469 214.457031 C 64.15625 213.40625 63.707031 212.28125 63.332031 211.230469 Z M 67.078125 218.503906 C 67.378906 219.402344 67.753906 220.300781 68.128906 221.203125 C 67.605469 220.300781 67.003906 219.476562 66.480469 218.578125 C 66.105469 217.753906 65.730469 216.855469 65.28125 216.03125 C 65.878906 216.855469 66.480469 217.753906 67.078125 218.503906 Z M 67.753906 219.476562 C 68.128906 220.003906 68.578125 220.527344 68.953125 221.050781 C 69.328125 221.578125 69.703125 221.953125 70.078125 222.476562 C 70.378906 223.601562 70.753906 224.648438 71.128906 225.699219 C 70.453125 224.726562 69.703125 223.675781 69.027344 222.699219 C 68.578125 221.652344 68.128906 220.601562 67.753906 219.476562 Z M 71.5 226.75 C 71.800781 227.648438 72.175781 228.546875 72.550781 229.449219 C 72.027344 228.621094 71.5 227.722656 70.902344 226.824219 C 70.453125 225.925781 70.078125 225.101562 69.703125 224.199219 C 70.300781 225.101562 70.902344 226 71.5 226.75 Z M 72.175781 227.722656 C 72.328125 227.875 72.476562 228.097656 72.625 228.246094 C 73.226562 229.074219 73.902344 229.820312 74.5 230.648438 C 74.800781 231.769531 75.175781 232.820312 75.550781 233.945312 C 74.800781 232.96875 74.125 231.921875 73.449219 230.871094 C 73 229.820312 72.550781 228.773438 72.175781 227.722656 Z M 75.925781 234.996094 C 76.222656 235.894531 76.597656 236.867188 76.972656 237.769531 C 76.375 236.867188 75.847656 236.042969 75.324219 235.144531 C 74.875 234.246094 74.5 233.34375 74.125 232.519531 C 74.726562 233.34375 75.324219 234.167969 75.925781 234.996094 Z M 76.597656 235.894531 C 77.273438 236.792969 78.023438 237.769531 78.773438 238.667969 C 79.074219 239.792969 79.449219 240.839844 79.820312 241.964844 C 79.148438 241.066406 78.546875 240.089844 77.875 239.191406 C 77.421875 238.066406 76.972656 237.019531 76.597656 235.894531 Z M 79.898438 242.640625 C 79.972656 242.714844 80.046875 242.863281 80.121094 242.941406 C 80.421875 243.839844 80.796875 244.738281 81.097656 245.636719 C 80.570312 244.890625 80.121094 244.0625 79.671875 243.316406 C 79.222656 242.566406 78.847656 241.515625 78.472656 240.617188 C 78.921875 241.367188 79.371094 242.039062 79.898438 242.640625 Z M 80.796875 243.839844 C 81.546875 244.8125 82.296875 245.789062 83.121094 246.761719 C 83.421875 247.886719 83.796875 249.011719 84.167969 250.136719 L 83.871094 249.6875 C 83.269531 248.863281 82.671875 247.960938 82.070312 247.0625 C 81.546875 246.011719 81.171875 244.964844 80.796875 243.839844 Z M 83.570312 249.835938 C 83.871094 250.285156 84.167969 250.660156 84.46875 251.109375 C 84.769531 252.007812 85.070312 252.984375 85.445312 253.882812 C 84.84375 252.984375 84.246094 252.007812 83.71875 251.109375 C 83.34375 250.285156 82.96875 249.386719 82.59375 248.5625 C 82.894531 249.011719 83.195312 249.460938 83.570312 249.835938 Z M 85.144531 251.933594 C 85.894531 252.910156 86.644531 253.882812 87.46875 254.859375 C 87.769531 255.984375 88.144531 257.105469 88.441406 258.230469 C 88.144531 257.78125 87.769531 257.332031 87.46875 256.808594 C 87.167969 256.28125 86.71875 255.683594 86.34375 255.15625 C 85.894531 254.183594 85.519531 253.058594 85.144531 251.933594 Z M 87.242188 257.03125 C 87.769531 257.78125 88.292969 258.457031 88.816406 259.207031 C 89.117188 260.179688 89.492188 261.15625 89.867188 262.054688 C 89.265625 261.15625 88.742188 260.253906 88.21875 259.355469 C 87.769531 258.457031 87.394531 257.554688 87.019531 256.582031 Z M 89.492188 260.03125 C 90.242188 261.003906 91.066406 261.980469 91.890625 262.953125 C 92.191406 264.152344 92.566406 265.277344 92.941406 266.402344 C 92.339844 265.652344 91.742188 264.828125 91.214844 264.003906 L 90.691406 263.253906 C 90.242188 262.203125 89.792969 261.15625 89.417969 260.03125 Z M 93.164062 267.300781 C 93.464844 268.277344 93.839844 269.25 94.214844 270.300781 C 93.613281 269.324219 93.015625 268.425781 92.414062 267.449219 C 91.964844 266.550781 91.589844 265.652344 91.214844 264.753906 C 91.816406 265.652344 92.414062 266.550781 93.164062 267.300781 Z M 97.210938 275.171875 C 97.511719 276.222656 97.886719 277.195312 98.261719 278.171875 C 97.738281 277.34375 97.210938 276.519531 96.6875 275.621094 C 96.164062 274.722656 95.863281 273.746094 95.488281 272.847656 C 96.011719 273.671875 96.539062 274.421875 97.210938 275.171875 Z M 97.8125 275.921875 C 104.109375 283.792969 111.90625 290.238281 120.824219 294.960938 C 131.84375 300.734375 143.3125 303.054688 154.105469 301.707031 C 171.121094 299.457031 184.765625 288.964844 195.859375 278.917969 C 198.03125 276.894531 200.28125 274.871094 202.453125 272.847656 C 205.527344 269.925781 208.675781 267 211.972656 264.152344 L 213.699219 264.304688 C 210.472656 267.601562 207.476562 270.972656 204.402344 274.347656 C 202.453125 276.445312 200.503906 278.695312 198.554688 280.792969 C 188.0625 292.113281 175.019531 304.03125 157.855469 307.253906 C 136.941406 311.078125 112.878906 299.609375 99.011719 279.21875 C 98.5625 278.246094 98.113281 277.121094 97.8125 275.921875 Z M 124.421875 302.082031 C 135.589844 307.703125 147.132812 309.652344 157.855469 307.703125 C 175.09375 304.480469 188.136719 292.488281 198.707031 281.167969 C 200.65625 279.070312 202.679688 276.820312 204.628906 274.722656 C 207.699219 271.273438 210.773438 267.824219 214.074219 264.527344 L 215.796875 264.675781 C 212.648438 268.425781 209.648438 272.324219 206.726562 276.222656 C 205.003906 278.46875 203.203125 280.792969 201.40625 283.117188 C 192.035156 294.960938 179.066406 309.128906 161.601562 313.324219 C 140.613281 318.347656 115.578125 306.730469 102.085938 285.742188 C 101.636719 284.992188 101.183594 284.242188 100.660156 283.492188 C 100.285156 282.59375 99.910156 281.691406 99.535156 280.792969 C 105.984375 289.714844 114.527344 297.058594 124.421875 302.082031 Z M 214.222656 264.152344 L 215.195312 263.179688 L 216.695312 263.253906 L 216.847656 263.253906 C 216.546875 263.628906 216.246094 264.003906 215.945312 264.378906 Z M 217.222656 263.253906 L 218.871094 263.328125 L 217.96875 264.527344 L 216.246094 264.378906 Z M 217.519531 262.953125 L 218.421875 261.902344 L 219.996094 261.902344 C 219.695312 262.277344 219.394531 262.652344 219.09375 263.027344 Z M 220.367188 261.828125 L 221.867188 261.828125 C 236.859375 261.753906 248.929688 262.355469 259.796875 263.703125 C 264.667969 264.304688 269.316406 265.128906 273.515625 266.101562 C 281.984375 268.050781 290.230469 270.675781 298.25 273.972656 C 299.375 274.421875 300.574219 274.945312 301.699219 275.398438 L 301.699219 275.472656 C 300.574219 275.097656 299.449219 274.648438 298.324219 274.273438 C 289.855469 271.5 281.234375 269.398438 272.464844 267.824219 C 268.191406 267.078125 263.621094 266.402344 258.597656 265.800781 C 245.855469 264.304688 232.738281 263.554688 220.445312 262.953125 L 219.46875 262.878906 Z M 302.074219 275.621094 Z M 302.523438 275.847656 Z M 237.308594 244.4375 C 250.800781 234.46875 272.464844 230.421875 285.808594 242.566406 C 292.703125 248.785156 296 258.007812 298.851562 266.175781 C 298.851562 266.25 298.851562 266.25 298.851562 266.328125 C 295.550781 258.757812 291.804688 250.285156 284.832031 244.515625 C 281.160156 241.515625 276.886719 239.417969 272.316406 238.367188 C 260.847656 235.59375 246.828125 238.441406 235.660156 245.863281 C 235.359375 246.011719 235.136719 246.238281 234.835938 246.460938 C 235.734375 245.714844 236.558594 245.113281 237.308594 244.4375 Z M 116.25 242.566406 C 139.039062 252.308594 163.324219 257.707031 187.988281 261.230469 C 181.914062 260.78125 175.84375 260.179688 169.773438 259.503906 C 150.359375 257.183594 134.617188 253.582031 120.226562 248.1875 C 110.703125 244.589844 101.636719 240.015625 93.089844 234.394531 C 93.164062 233.046875 93.238281 231.695312 93.390625 230.347656 C 100.660156 235.070312 108.304688 239.191406 116.25 242.566406 Z M 107.332031 120.53125 C 109.878906 132.902344 108.457031 145.570312 106.65625 156.363281 C 105.082031 165.882812 102.984375 175.550781 100.886719 184.847656 C 97.960938 198.039062 94.964844 211.605469 93.464844 225.25 C 93.316406 226.75 93.164062 228.324219 93.015625 229.820312 C 91.515625 228.847656 90.015625 227.875 88.515625 226.824219 C 88.667969 224.050781 88.816406 221.203125 89.117188 218.351562 C 90.542969 204.9375 93.464844 191.445312 96.3125 178.476562 C 98.261719 169.628906 100.210938 160.5625 101.710938 151.566406 C 103.433594 141.070312 104.933594 128.777344 102.535156 116.710938 C 101.484375 111.464844 99.6875 106.367188 97.0625 101.644531 C 95.5625 98.945312 93.691406 96.394531 91.589844 94.074219 C 99.386719 99.917969 105.007812 109.289062 107.332031 120.53125 Z M 88.890625 91.675781 L 88.144531 91.222656 L 87.769531 91.074219 C 87.542969 90.773438 87.242188 90.476562 86.941406 90.175781 C 87.617188 90.625 88.292969 91.148438 88.890625 91.675781 Z M 84.246094 87.851562 C 83.871094 87.625 83.496094 87.402344 83.121094 87.175781 C 82.820312 86.800781 82.519531 86.425781 82.144531 86.050781 C 82.894531 86.652344 83.570312 87.25 84.246094 87.851562 Z M 79.671875 84.027344 C 79.222656 83.804688 78.847656 83.503906 78.398438 83.277344 C 78.097656 82.902344 77.796875 82.605469 77.5 82.230469 C 78.324219 82.753906 78.996094 83.355469 79.671875 84.027344 Z M 73.226562 78.40625 C 73.824219 78.929688 74.425781 79.457031 75.023438 79.980469 C 74.574219 79.679688 74.199219 79.457031 73.75 79.230469 C 73.449219 78.855469 73.152344 78.480469 72.851562 78.105469 Z M 69.554688 75.109375 C 69.851562 75.332031 70.078125 75.632812 70.378906 75.933594 C 69.929688 75.632812 69.476562 75.40625 69.027344 75.109375 C 68.726562 74.660156 68.355469 74.285156 68.054688 73.832031 C 68.578125 74.285156 69.101562 74.734375 69.554688 75.109375 Z M 64.378906 70.835938 C 64.082031 70.386719 63.78125 70.011719 63.480469 69.5625 C 64.230469 70.234375 65.054688 70.910156 65.804688 71.660156 C 65.28125 71.433594 64.832031 71.136719 64.378906 70.835938 Z M 61.082031 67.3125 C 60.632812 67.011719 60.183594 66.710938 59.734375 66.339844 C 59.433594 65.886719 59.132812 65.511719 58.832031 65.0625 L 58.757812 64.988281 C 59.507812 65.738281 60.332031 66.488281 61.082031 67.3125 Z M 56.359375 62.664062 C 55.910156 62.289062 55.460938 61.992188 54.9375 61.617188 C 54.636719 61.089844 54.335938 60.640625 53.960938 60.191406 C 54.859375 61.015625 55.609375 61.765625 56.359375 62.664062 Z M 51.789062 57.71875 C 51.339844 57.34375 50.886719 56.96875 50.363281 56.59375 C 50.0625 56.070312 49.765625 55.542969 49.390625 55.019531 C 50.214844 55.917969 51.039062 56.820312 51.789062 57.71875 Z M 47.289062 52.394531 C 46.839844 51.945312 46.316406 51.496094 45.867188 51.121094 C 45.566406 50.523438 45.265625 49.996094 44.964844 49.398438 C 45.714844 50.371094 46.539062 51.421875 47.289062 52.394531 Z M 42.867188 46.625 C 42.417969 46.175781 41.96875 45.722656 41.519531 45.273438 C 41.292969 44.675781 40.992188 44.074219 40.695312 43.476562 C 41.519531 44.523438 42.191406 45.574219 42.867188 46.625 Z M 36.871094 36.953125 C 37.621094 38.078125 38.21875 39.277344 38.820312 40.476562 C 38.445312 39.953125 37.996094 39.429688 37.546875 38.976562 C 37.394531 38.304688 37.171875 37.628906 36.871094 36.953125 Z M 37.921875 39.804688 C 38.519531 40.550781 39.121094 41.300781 39.644531 42.050781 C 40.09375 42.875 40.46875 43.777344 40.84375 44.601562 C 40.167969 43.925781 39.496094 43.25 38.746094 42.652344 C 38.519531 41.675781 38.21875 40.777344 37.921875 39.804688 Z M 38.96875 43.25 C 39.71875 44 40.46875 44.75 41.21875 45.425781 C 41.667969 46.398438 42.042969 47.375 42.417969 48.347656 C 41.59375 47.671875 40.769531 47.074219 39.871094 46.398438 C 39.570312 45.425781 39.34375 44.300781 38.96875 43.25 Z M 39.945312 46.925781 C 40.84375 47.597656 41.742188 48.273438 42.644531 48.949219 C 43.019531 49.996094 43.390625 51.046875 43.765625 52.097656 C 43.765625 52.097656 43.765625 52.171875 43.765625 52.171875 C 42.792969 51.570312 41.742188 50.972656 40.695312 50.445312 C 40.542969 49.324219 40.320312 48.125 39.945312 46.925781 Z M 40.769531 50.898438 C 41.820312 51.496094 42.867188 52.097656 43.84375 52.695312 C 44.140625 53.820312 44.441406 54.945312 44.742188 56.070312 C 43.617188 55.542969 42.492188 55.09375 41.292969 54.570312 C 41.292969 53.296875 41.070312 52.097656 40.769531 50.898438 Z M 41.445312 54.871094 C 42.644531 55.394531 43.765625 55.84375 44.890625 56.367188 C 45.191406 57.566406 45.417969 58.691406 45.640625 59.890625 C 44.367188 59.441406 43.167969 59.066406 41.820312 58.617188 C 41.820312 57.492188 41.667969 56.21875 41.445312 54.871094 Z M 41.96875 60.566406 C 41.96875 60.042969 41.894531 59.59375 41.894531 59.066406 C 43.167969 59.441406 44.441406 59.890625 45.714844 60.339844 C 45.941406 61.539062 46.089844 62.738281 46.242188 64.015625 C 44.890625 63.714844 43.46875 63.339844 42.042969 63.039062 C 42.117188 62.214844 42.042969 61.390625 41.96875 60.566406 Z M 42.117188 63.339844 C 43.542969 63.640625 44.890625 64.015625 46.316406 64.3125 C 46.464844 65.589844 46.539062 66.863281 46.617188 68.136719 L 43.617188 67.6875 L 42.117188 67.460938 C 42.191406 66.113281 42.191406 64.765625 42.117188 63.339844 Z M 42.117188 67.835938 L 43.617188 68.0625 L 46.691406 68.585938 C 46.765625 69.9375 46.765625 71.210938 46.765625 72.558594 L 45.492188 72.410156 L 41.96875 72.035156 C 42.042969 70.6875 42.117188 69.261719 42.117188 67.835938 Z M 41.894531 72.410156 C 43.09375 72.558594 44.292969 72.632812 45.417969 72.785156 L 46.765625 72.933594 C 46.765625 73.460938 46.765625 73.984375 46.765625 74.582031 C 46.765625 75.40625 46.691406 76.308594 46.691406 77.132812 C 44.964844 77.058594 43.316406 76.980469 41.59375 76.90625 C 41.667969 75.332031 41.820312 73.910156 41.894531 72.410156 Z M 41.445312 77.132812 C 43.167969 77.207031 44.890625 77.28125 46.617188 77.355469 C 46.539062 78.78125 46.464844 80.207031 46.316406 81.703125 C 44.515625 81.703125 42.71875 81.703125 40.917969 81.703125 C 41.144531 80.207031 41.292969 78.632812 41.445312 77.132812 Z M 46.242188 82.003906 C 46.089844 83.503906 45.941406 85.003906 45.714844 86.5 C 43.84375 86.578125 41.96875 86.652344 40.09375 86.652344 C 40.320312 85.078125 40.617188 83.578125 40.769531 82.003906 C 42.71875 82.003906 44.515625 82.003906 46.242188 82.003906 Z M 33.347656 134.773438 C 33.347656 123.082031 35.597656 111.3125 37.769531 99.917969 C 38.59375 95.648438 39.417969 91.375 40.167969 87.027344 C 42.042969 87.027344 43.917969 86.953125 45.792969 86.875 C 45.265625 90.625 44.667969 94.148438 44.140625 97.445312 C 43.542969 100.519531 42.941406 103.667969 42.34375 106.742188 C 40.09375 118.132812 37.84375 129.976562 37.695312 141.820312 C 37.621094 155.464844 40.46875 168.957031 46.089844 181.398438 C 38.144531 167.230469 33.421875 151.566406 33.347656 134.773438 Z M 49.914062 188.445312 C 50.0625 188.746094 50.289062 189.042969 50.511719 189.34375 L 50.886719 190.242188 C 50.589844 189.644531 50.214844 189.042969 49.914062 188.445312 Z M 54.410156 196.691406 L 55.085938 197.664062 C 55.234375 198.039062 55.386719 198.339844 55.535156 198.714844 C 55.160156 198.039062 54.785156 197.363281 54.410156 196.691406 Z M 58.910156 205.011719 C 59.132812 205.386719 59.433594 205.761719 59.660156 206.210938 C 59.882812 206.660156 59.957031 206.960938 60.183594 207.335938 C 59.808594 206.511719 59.359375 205.761719 58.910156 205.011719 Z M 63.707031 213.707031 L 64.304688 214.605469 L 64.753906 215.65625 Z M 68.054688 221.800781 C 68.277344 222.175781 68.503906 222.550781 68.726562 222.851562 C 68.953125 223.152344 69.027344 223.527344 69.179688 223.898438 C 68.804688 223.226562 68.429688 222.550781 68.054688 221.800781 Z M 72.476562 229.972656 C 72.703125 230.347656 72.925781 230.722656 73.226562 231.097656 L 73.75 232.296875 C 73.226562 231.546875 72.851562 230.722656 72.476562 229.972656 Z M 76.75 238.140625 C 76.972656 238.515625 77.273438 238.96875 77.5 239.339844 C 77.722656 239.714844 77.796875 240.167969 78.023438 240.617188 C 77.648438 239.792969 77.199219 238.96875 76.75 238.140625 Z M 81.097656 246.238281 L 81.769531 247.210938 C 81.921875 247.585938 82.070312 247.960938 82.222656 248.335938 C 81.769531 247.664062 81.394531 246.914062 81.097656 246.238281 Z M 85.144531 254.109375 C 85.445312 254.558594 85.742188 255.007812 86.042969 255.457031 C 86.195312 255.90625 86.417969 256.355469 86.570312 256.808594 C 86.042969 255.90625 85.59375 255.007812 85.144531 254.109375 Z M 89.417969 262.203125 L 90.316406 263.476562 C 90.542969 264.003906 90.765625 264.527344 90.917969 264.976562 C 90.390625 264.078125 89.867188 263.105469 89.417969 262.203125 Z M 93.539062 270.148438 C 93.839844 270.597656 94.140625 271.050781 94.4375 271.5 L 94.589844 271.648438 C 94.8125 272.25 95.039062 272.773438 95.261719 273.371094 C 94.664062 272.324219 94.140625 271.199219 93.539062 270.148438 Z M 97.8125 278.246094 C 97.886719 278.394531 97.960938 278.546875 98.113281 278.695312 C 98.261719 278.996094 98.488281 279.21875 98.636719 279.519531 C 98.785156 280.042969 99.011719 280.492188 99.238281 281.019531 C 98.785156 280.117188 98.261719 279.21875 97.8125 278.246094 Z M 209.050781 277.871094 C 207.476562 280.269531 205.828125 282.816406 204.179688 285.214844 C 195.332031 298.332031 182.890625 314.074219 165.273438 319.171875 C 141.4375 326.144531 117.226562 311.226562 105.683594 292.9375 C 104.257812 290.6875 102.984375 288.363281 101.859375 286.039062 C 108.382812 295.933594 117.375 303.957031 128.019531 309.203125 C 139.265625 314.675781 150.882812 316.175781 161.601562 313.625 C 179.140625 309.425781 192.183594 295.1875 201.554688 283.265625 C 203.351562 281.019531 205.152344 278.621094 206.875 276.371094 C 209.875 272.472656 212.875 268.5 216.097656 264.675781 L 217.820312 264.828125 C 214.746094 269.101562 211.898438 273.523438 209.050781 277.871094 Z M 257.472656 268.425781 C 250.425781 267.675781 243.230469 267 236.261719 266.328125 C 230.339844 265.800781 224.417969 265.203125 218.421875 264.601562 L 219.320312 263.402344 L 220.519531 263.476562 C 232.8125 264.078125 245.929688 264.828125 258.671875 266.328125 C 263.695312 266.925781 268.265625 267.601562 272.539062 268.351562 C 281.234375 269.925781 289.855469 272.023438 298.324219 274.796875 C 299.523438 275.171875 300.722656 275.621094 301.921875 275.996094 C 301.921875 276.070312 301.921875 276.070312 301.921875 276.144531 C 287.15625 271.875 271.789062 269.925781 257.472656 268.425781 Z M 302.296875 276.144531 C 302.296875 276.144531 302.296875 276.070312 302.296875 276.070312 L 302.375 276.070312 L 302.375 276.144531 Z M 302.824219 276.296875 L 302.824219 276.222656 L 302.898438 276.222656 C 302.898438 276.222656 302.898438 276.296875 302.898438 276.296875 Z M 303.273438 276.445312 Z M 348.324219 314.148438 C 344.199219 307.253906 339.179688 300.957031 333.332031 295.410156 C 326.585938 289.113281 319.015625 283.792969 310.84375 279.519531 C 319.6875 283.34375 327.933594 288.363281 335.355469 294.511719 C 341.5 299.757812 346.824219 305.90625 351.097656 312.726562 C 362.941406 331.539062 365.9375 352.527344 358.890625 367.746094 C 363.613281 353.429688 359.566406 332.589844 348.324219 314.148438 Z M 362.339844 340.835938 C 360.691406 330.714844 356.941406 321.121094 351.472656 312.5 C 347.199219 305.605469 341.875 299.457031 335.730469 294.210938 C 328.683594 288.363281 320.8125 283.492188 312.417969 279.746094 C 321.488281 282.96875 330.03125 287.539062 337.828125 293.238281 C 359.191406 309.277344 373.433594 341.585938 359.867188 366.546875 C 362.863281 359.125 363.765625 350.28125 362.339844 340.835938 Z M 362.339844 340.835938 "/></g></svg>