<svg xmlns="http://www.w3.org/2000/svg" xmlns:xlink="http://www.w3.org/1999/xlink" width="500" zoomAndPan="magnify" viewBox="0 0 375 374.999991" height="500" preserveAspectRatio="xMidYMid meet" version="1.2"><g id="7f68d09596"><path style=" stroke:none;fill-rule:nonzero;fill:#000000;fill-opacity:1;" d="M 337.902344 293.058594 C 328.910156 286.308594 318.714844 281.511719 308.144531 278.0625 L 307.019531 277.613281 L 306.195312 277.238281 L 305.445312 276.789062 L 304.773438 276.339844 L 304.171875 275.890625 L 303.496094 275.289062 C 303.273438 275.066406 303.046875 274.839844 302.824219 274.613281 C 302.597656 274.390625 302.449219 274.164062 302.296875 273.941406 L 301.847656 273.191406 L 301.472656 272.441406 C 301.324219 272.140625 301.175781 271.839844 301.097656 271.617188 L 300.800781 270.867188 C 300.347656 269.367188 299.824219 267.867188 299.300781 266.367188 C 296.375 258.195312 293.078125 248.976562 286.105469 242.679688 C 272.613281 230.382812 250.800781 234.429688 237.160156 244.476562 C 235.359375 245.828125 233.636719 247.25 231.988281 248.75 C 231.089844 249.425781 230.1875 250.175781 229.289062 250.851562 C 228.464844 251.449219 227.566406 252.050781 226.742188 252.722656 C 225.765625 253.324219 224.867188 253.921875 223.890625 254.597656 C 222.917969 255.121094 221.941406 255.722656 220.96875 256.246094 C 219.996094 256.773438 218.871094 257.296875 217.820312 257.820312 C 216.847656 258.195312 215.871094 258.648438 214.898438 259.019531 C 213.773438 259.394531 212.648438 259.769531 211.449219 260.144531 C 210.324219 260.445312 209.199219 260.746094 208.074219 261.046875 C 206.953125 261.34375 205.675781 261.421875 204.402344 261.644531 L 200.65625 262.019531 L 196.757812 262.09375 L 192.785156 261.871094 C 166.550781 258.347656 140.613281 252.949219 116.402344 242.527344 C 108.382812 239.078125 100.660156 234.957031 93.390625 230.234375 C 93.539062 228.660156 93.691406 227.085938 93.839844 225.511719 C 95.339844 211.941406 98.335938 198.296875 101.261719 185.175781 C 103.359375 175.878906 105.457031 166.285156 107.03125 156.6875 C 108.832031 145.890625 110.332031 133.148438 107.707031 120.777344 C 105.15625 108.78125 98.9375 98.808594 90.390625 92.960938 C 88.96875 91.539062 87.46875 90.265625 85.820312 89.140625 C 84.394531 87.640625 82.746094 86.367188 81.097656 85.164062 C 79.898438 83.890625 78.546875 82.765625 77.199219 81.71875 C 76.972656 81.566406 76.75 81.417969 76.523438 81.265625 C 75.625 80.292969 74.574219 79.316406 73.527344 78.417969 C 72.925781 77.96875 72.402344 77.519531 71.800781 77.070312 C 71.203125 76.394531 70.527344 75.71875 69.851562 75.121094 C 68.953125 74.296875 68.054688 73.546875 67.152344 72.871094 C 66.855469 72.496094 66.554688 72.195312 66.179688 71.820312 C 65.054688 70.621094 63.78125 69.496094 62.507812 68.523438 C 61.082031 66.875 59.507812 65.300781 57.785156 63.949219 C 56.359375 62.226562 54.785156 60.574219 53.136719 59.078125 C 51.710938 57.203125 50.214844 55.476562 48.566406 53.902344 C 47.214844 51.878906 45.714844 50.003906 44.140625 48.207031 C 42.867188 46.105469 41.519531 44.082031 40.019531 42.132812 C 38.894531 39.882812 37.621094 37.636719 36.269531 35.535156 C 35.070312 32.535156 33.648438 29.6875 32.148438 26.839844 C 26.378906 16.042969 18.355469 6.972656 8.613281 0 L 8.386719 0.226562 C 20.304688 8.773438 29.601562 20.390625 35.371094 33.886719 C 33.648438 31.261719 31.773438 28.789062 29.824219 26.390625 C 24.578125 19.941406 17.605469 13.121094 8.011719 5.023438 L 7.789062 5.246094 C 17.382812 13.34375 24.351562 20.167969 29.601562 26.613281 C 31.925781 29.464844 34.097656 32.460938 36.121094 35.609375 C 36.496094 36.511719 36.796875 37.410156 37.171875 38.308594 C 35.296875 36.0625 33.125 33.8125 30.722656 31.414062 C 27.203125 27.964844 23.152344 24.367188 19.257812 20.917969 C 15.359375 17.46875 11.085938 13.71875 7.335938 10.046875 L 7.113281 10.269531 C 10.859375 13.945312 14.984375 17.617188 18.957031 21.140625 C 22.929688 24.664062 26.902344 28.1875 30.425781 31.636719 C 33.046875 34.1875 35.371094 36.734375 37.394531 39.132812 C 37.769531 40.183594 38.070312 41.160156 38.371094 42.207031 C 36.269531 40.257812 33.949219 38.382812 31.472656 36.359375 C 29.898438 35.085938 28.25 33.8125 26.453125 32.460938 C 19.855469 27.289062 12.285156 21.441406 6.664062 15.070312 L 6.4375 15.292969 C 12.136719 21.742188 19.707031 27.589844 26.300781 32.761719 C 28.027344 34.1875 29.675781 35.460938 31.324219 36.734375 C 33.949219 38.835938 36.347656 40.859375 38.59375 42.882812 C 38.894531 44.007812 39.195312 45.132812 39.496094 46.257812 C 37.171875 44.605469 34.773438 43.03125 32.375 41.457031 L 31.773438 41.082031 C 23.304688 35.609375 12.734375 28.789062 6.136719 20.09375 L 5.839844 20.316406 C 12.507812 29.011719 23.078125 35.835938 31.625 41.382812 L 32.222656 41.757812 C 34.699219 43.332031 37.171875 44.980469 39.644531 46.707031 C 39.945312 47.90625 40.167969 49.105469 40.394531 50.304688 C 38.519531 49.332031 36.644531 48.28125 34.773438 47.304688 L 33.273438 46.554688 C 23.003906 41.234375 11.761719 34.484375 5.539062 25.191406 L 5.238281 25.339844 C 11.535156 34.710938 22.855469 41.457031 33.125 46.78125 L 34.621094 47.53125 C 36.644531 48.582031 38.59375 49.628906 40.542969 50.679688 C 40.769531 51.878906 40.992188 53.152344 41.144531 54.351562 C 39.945312 53.828125 38.671875 53.304688 37.472656 52.855469 C 36.347656 52.402344 35.296875 51.953125 34.171875 51.503906 C 19.332031 45.28125 9.8125 38.308594 4.9375 30.136719 L 4.5625 30.363281 C 9.4375 38.609375 19.03125 45.582031 33.949219 51.804688 L 37.246094 53.152344 C 38.519531 53.679688 39.871094 54.203125 41.144531 54.726562 C 41.292969 56.003906 41.445312 57.277344 41.59375 58.550781 L 39.71875 57.953125 C 38.144531 57.425781 36.570312 56.976562 34.996094 56.453125 C 24.203125 53.078125 10.109375 46.480469 4.1875 35.3125 L 3.890625 35.460938 C 9.8125 46.78125 23.976562 53.378906 34.773438 56.976562 C 36.347656 57.503906 37.996094 58.027344 39.496094 58.476562 L 41.519531 59.078125 C 41.59375 59.601562 41.59375 60.125 41.667969 60.652344 C 41.742188 61.476562 41.742188 62.226562 41.742188 63.050781 L 41.667969 63.050781 C 39.71875 62.601562 37.695312 62.148438 35.671875 61.625 C 26.378906 59.226562 9.585938 53.304688 3.589844 40.257812 L 3.289062 40.410156 C 9.363281 53.605469 26.226562 59.527344 35.671875 61.925781 C 37.695312 62.449219 39.71875 62.898438 41.667969 63.351562 L 41.820312 63.351562 C 41.820312 64.699219 41.820312 66.125 41.820312 67.472656 C 40.09375 67.171875 38.371094 66.875 36.644531 66.574219 C 28.550781 65.074219 9.0625 59.976562 2.988281 45.207031 L 2.691406 45.355469 C 8.761719 60.277344 28.402344 65.449219 36.570312 66.949219 C 38.296875 67.25 40.09375 67.546875 41.820312 67.847656 C 41.820312 69.273438 41.742188 70.695312 41.59375 72.121094 C 40.246094 71.972656 38.820312 71.820312 37.472656 71.671875 C 30.800781 70.773438 8.3125 66.722656 2.390625 50.230469 L 2.089844 50.378906 C 8.085938 67.023438 30.722656 71.070312 37.546875 71.972656 C 38.894531 72.121094 40.320312 72.269531 41.667969 72.421875 C 41.59375 73.921875 41.445312 75.34375 41.292969 76.84375 C 40.320312 76.769531 39.417969 76.769531 38.445312 76.695312 C 23.679688 75.644531 6.289062 69.421875 1.789062 55.328125 L 1.414062 55.402344 C 5.988281 69.648438 23.527344 75.871094 38.371094 76.996094 C 39.34375 77.070312 40.246094 77.144531 41.21875 77.144531 C 41.070312 78.644531 40.84375 80.144531 40.617188 81.71875 C 40.167969 81.71875 39.71875 81.71875 39.195312 81.71875 C 24.277344 81.265625 5.3125 75.496094 1.042969 60.351562 L 0.742188 60.425781 C 5.089844 75.71875 24.128906 81.566406 39.195312 82.015625 L 40.542969 82.015625 C 40.320312 83.589844 40.09375 85.164062 39.792969 86.664062 C 30.949219 86.742188 22.328125 85.089844 15.582031 81.941406 C 7.414062 78.195312 2.164062 72.421875 0.441406 65.300781 L 0.0664062 65.449219 C 1.867188 72.722656 7.1875 78.492188 15.433594 82.316406 C 22.253906 85.464844 30.875 87.113281 39.792969 87.039062 C 39.046875 91.386719 38.296875 95.660156 37.472656 99.933594 C 35.296875 111.332031 32.972656 123.101562 33.046875 134.796875 C 33.125 152.039062 38.21875 169.207031 47.890625 185.25 C 49.3125 188.101562 50.8125 190.875 52.460938 193.648438 C 53.8125 196.421875 55.3125 199.195312 56.960938 201.894531 C 58.382812 204.816406 59.957031 207.667969 61.683594 210.515625 C 63.03125 213.363281 64.605469 216.214844 66.253906 218.988281 C 67.605469 221.761719 69.027344 224.460938 70.601562 227.160156 C 71.953125 230.007812 73.375 232.707031 75.023438 235.40625 C 76.375 238.253906 77.796875 240.953125 79.371094 243.652344 C 80.648438 246.277344 81.996094 248.902344 83.421875 251.375 C 84.695312 254.222656 86.195312 256.996094 87.769531 259.695312 C 89.042969 262.46875 90.464844 265.167969 92.039062 267.792969 C 93.316406 270.566406 94.738281 273.339844 96.3125 275.964844 C 97.511719 278.589844 98.863281 281.210938 100.359375 283.6875 C 101.785156 286.984375 103.507812 290.132812 105.382812 293.207031 C 111.753906 303.253906 120.824219 311.277344 131.617188 316.296875 C 142.9375 321.621094 154.628906 322.746094 165.351562 319.597656 C 183.113281 314.425781 195.558594 298.605469 204.402344 285.484375 C 206.050781 283.085938 207.699219 280.539062 209.273438 278.140625 C 212.125 273.714844 215.046875 269.292969 218.195312 265.019531 C 224.191406 265.617188 230.1875 266.21875 236.183594 266.816406 C 243.15625 267.492188 250.351562 268.167969 257.398438 268.917969 C 271.789062 270.417969 287.230469 272.441406 302 276.5625 C 303.949219 284.210938 305.222656 291.933594 306.496094 299.503906 C 308.296875 310.527344 310.167969 321.847656 314.066406 332.71875 C 317.738281 342.988281 322.988281 352.507812 328.910156 359.707031 C 336.328125 368.703125 344.5 373.875 353.269531 375 L 353.269531 374.699219 C 334.832031 372.300781 321.039062 351.382812 314.367188 332.640625 C 310.542969 321.847656 308.667969 310.527344 306.796875 299.503906 C 305.597656 292.007812 304.320312 284.285156 302.375 276.714844 L 302.523438 276.714844 C 305.070312 284.359375 306.796875 292.234375 308.667969 300.40625 C 309.195312 302.804688 309.792969 305.277344 310.394531 307.75 C 312.117188 315.625 314.367188 323.421875 317.140625 330.992188 C 319.914062 338.265625 324.636719 348.835938 331.605469 358.058594 C 338.578125 367.277344 345.925781 372.675781 353.644531 374.398438 L 353.71875 374.101562 C 333.554688 369.675781 320.8125 339.914062 317.441406 330.917969 C 314.667969 323.34375 312.417969 315.546875 310.695312 307.675781 C 310.09375 305.203125 309.570312 302.730469 309.042969 300.328125 C 307.246094 292.53125 305.445312 284.585938 302.972656 276.789062 L 303.121094 276.789062 C 306.421875 284.886719 308.820312 293.207031 311.367188 301.828125 C 311.816406 303.402344 312.269531 304.902344 312.71875 306.476562 C 314.890625 313.75 317.214844 321.472656 320.289062 329.269531 C 324.9375 340.8125 337.527344 368.253906 354.167969 373.800781 L 354.246094 373.5 C 337.753906 368.101562 325.234375 340.738281 320.589844 329.191406 C 317.515625 321.394531 315.191406 313.675781 313.015625 306.402344 C 312.566406 304.828125 312.117188 303.328125 311.667969 301.753906 C 309.121094 293.207031 306.722656 284.960938 303.496094 276.9375 L 303.574219 276.9375 C 307.921875 285.636719 311.21875 294.78125 314.667969 304.304688 L 315.640625 307.078125 C 318.039062 313.75 320.511719 320.722656 323.4375 327.617188 C 330.859375 345.160156 342.25 367.277344 354.695312 373.277344 L 354.84375 372.976562 C 342.550781 366.976562 331.15625 344.9375 323.738281 327.46875 C 320.8125 320.570312 318.339844 313.597656 315.941406 306.925781 L 314.964844 304.152344 C 311.59375 294.707031 308.296875 285.636719 304.023438 277.015625 L 304.097656 277.015625 C 309.269531 285.5625 313.316406 294.707031 317.289062 304.078125 C 318.414062 306.628906 319.464844 309.25 320.589844 311.949219 C 322.460938 316.523438 324.410156 321.246094 326.511719 325.96875 C 334.457031 343.960938 344.949219 365.554688 355.070312 372.75 L 355.21875 372.449219 C 345.023438 365.179688 334.082031 342.386719 326.734375 325.820312 C 324.636719 321.097656 322.6875 316.375 320.8125 311.800781 C 319.6875 309.101562 318.640625 306.550781 317.515625 303.929688 C 313.542969 294.707031 309.570312 285.636719 304.472656 277.164062 C 310.542969 285.5625 315.265625 294.40625 319.464844 302.878906 C 321.789062 307.601562 324.109375 312.550781 326.511719 317.722656 C 327.484375 319.898438 328.535156 322.070312 329.507812 324.320312 L 331.15625 327.84375 C 339.101562 345.011719 348.171875 364.429688 355.445312 372.152344 L 355.667969 371.925781 C 348.398438 364.203125 339.402344 344.785156 331.457031 327.695312 L 329.808594 324.171875 L 326.808594 317.574219 C 324.410156 312.398438 322.164062 307.453125 319.765625 302.730469 C 315.566406 294.40625 310.917969 285.710938 305.070312 277.464844 C 310.769531 284.136719 316.089844 291.859375 321.710938 301.679688 C 325.535156 308.351562 329.132812 315.699219 332.582031 322.671875 C 336.105469 329.941406 339.703125 337.738281 343.152344 345.3125 C 348.023438 355.957031 352.59375 366.078125 355.894531 371.625 L 356.195312 371.476562 C 352.96875 365.855469 348.324219 355.808594 343.449219 345.160156 C 340.003906 337.589844 336.40625 329.792969 332.882812 322.519531 C 329.507812 315.546875 325.835938 308.203125 322.011719 301.527344 C 317.289062 293.207031 311.894531 285.335938 305.820312 277.914062 C 312.644531 284.8125 318.714844 292.382812 323.960938 300.480469 C 328.234375 307.078125 332.132812 313.972656 335.578125 321.019531 C 345.101562 339.6875 353.269531 361.65625 356.195312 371.101562 L 356.492188 371.027344 C 353.570312 361.582031 345.398438 339.539062 335.878906 320.871094 C 332.355469 313.824219 328.457031 306.925781 324.1875 300.328125 C 319.089844 292.457031 313.242188 285.109375 306.644531 278.4375 C 313.917969 284.660156 320.4375 291.707031 326.136719 299.355469 C 330.78125 305.726562 334.980469 312.398438 338.652344 319.445312 C 347.875 336.765625 355.59375 358.730469 356.644531 370.652344 L 356.941406 370.652344 C 355.894531 358.730469 348.171875 336.691406 338.953125 319.371094 C 335.28125 312.324219 331.082031 305.652344 326.433594 299.28125 C 320.886719 291.78125 314.515625 284.960938 307.46875 278.886719 C 315.191406 284.511719 322.238281 291.035156 328.457031 298.304688 C 333.480469 304.378906 337.980469 310.976562 341.726562 317.871094 C 351.996094 336.164062 358.292969 357.683594 357.09375 370.203125 L 357.394531 370.203125 C 358.59375 357.683594 352.296875 336.089844 342.027344 317.722656 C 338.203125 310.75 333.78125 304.152344 328.683594 298.082031 C 322.6875 291.035156 315.941406 284.734375 308.519531 279.1875 C 316.617188 284.136719 324.109375 290.207031 330.707031 297.03125 C 336.105469 302.804688 340.902344 309.25 344.800781 316.148438 C 355.667969 334.890625 360.839844 356.332031 357.542969 369.527344 L 357.84375 369.601562 C 361.140625 356.257812 356.042969 334.742188 345.101562 315.921875 C 341.125 309.027344 336.40625 302.578125 330.933594 296.730469 C 324.5625 290.058594 317.363281 284.285156 309.570312 279.414062 C 318.039062 283.761719 325.910156 289.308594 332.957031 295.832031 C 338.726562 301.304688 343.75 307.601562 347.875 314.5 C 359.339844 333.464844 363.316406 354.832031 357.917969 369.003906 L 358.21875 369.152344 C 358.292969 368.925781 358.367188 368.703125 358.441406 368.550781 L 358.667969 368.628906 C 358.742188 368.402344 358.816406 368.253906 358.96875 368.027344 L 359.117188 368.101562 C 374.183594 342.6875 359.792969 309.402344 337.902344 293.058594 Z M 47.066406 72.945312 C 48.566406 73.097656 50.0625 73.246094 51.5625 73.394531 C 51.636719 74.671875 51.710938 75.945312 51.710938 77.292969 L 47.140625 77.070312 L 46.914062 77.070312 C 46.992188 76.246094 46.992188 75.34375 46.992188 74.519531 C 47.066406 73.996094 47.066406 73.46875 47.066406 72.945312 Z M 46.617188 63.949219 C 46.464844 62.75 46.316406 61.625 46.089844 60.425781 C 47.289062 60.800781 48.414062 61.25 49.613281 61.699219 C 49.914062 62.824219 50.214844 63.949219 50.4375 65.074219 C 49.164062 64.699219 47.890625 64.398438 46.617188 64.097656 C 46.617188 64.023438 46.617188 64.023438 46.617188 63.949219 Z M 44.066406 52.027344 C 43.765625 51.128906 43.46875 50.230469 43.167969 49.332031 C 43.992188 49.929688 44.742188 50.605469 45.566406 51.28125 C 46.015625 52.179688 46.464844 53.152344 46.914062 54.128906 C 46.015625 53.527344 45.117188 53.003906 44.21875 52.402344 C 44.140625 52.328125 44.140625 52.179688 44.066406 52.027344 Z M 42.941406 48.804688 C 42.566406 47.90625 42.269531 47.007812 41.894531 46.105469 C 42.566406 46.78125 43.167969 47.457031 43.765625 48.128906 C 44.292969 48.957031 44.742188 49.78125 45.117188 50.605469 C 44.441406 50.003906 43.691406 49.40625 42.941406 48.804688 Z M 49.6875 56.078125 C 48.9375 55.554688 48.191406 55.027344 47.441406 54.503906 C 47.066406 53.679688 46.691406 52.777344 46.242188 51.953125 C 46.914062 52.554688 47.589844 53.230469 48.265625 53.828125 C 48.714844 54.578125 49.238281 55.328125 49.6875 56.078125 Z M 58.535156 65.300781 L 58.984375 65.898438 C 58.234375 65.449219 57.484375 65 56.734375 64.625 C 56.359375 63.875 55.910156 63.125 55.460938 62.375 C 56.136719 62.898438 56.808594 63.425781 57.484375 63.949219 C 57.859375 64.398438 58.160156 64.847656 58.535156 65.300781 Z M 62.207031 68.597656 C 62.730469 69.199219 63.179688 69.796875 63.632812 70.398438 C 62.882812 69.945312 62.132812 69.570312 61.382812 69.199219 C 61.007812 68.449219 60.558594 67.773438 60.109375 67.097656 C 60.78125 67.546875 61.457031 68.074219 62.207031 68.597656 Z M 66.855469 72.945312 C 67.378906 73.546875 67.828125 74.144531 68.355469 74.746094 C 67.605469 74.296875 66.855469 73.996094 66.105469 73.621094 C 65.65625 72.945312 65.28125 72.195312 64.832031 71.519531 C 65.503906 71.972656 66.179688 72.421875 66.855469 72.945312 Z M 71.5 77.070312 C 72.027344 77.667969 72.550781 78.195312 73 78.792969 C 72.25 78.417969 71.578125 78.042969 70.828125 77.742188 C 70.378906 77.070312 70.003906 76.394531 69.554688 75.792969 C 70.226562 76.246094 70.828125 76.621094 71.5 77.070312 Z M 76.222656 81.265625 C 76.75 81.792969 77.199219 82.316406 77.648438 82.917969 C 76.972656 82.542969 76.222656 82.167969 75.550781 81.867188 C 75.101562 81.191406 74.726562 80.59375 74.273438 79.992188 C 74.949219 80.367188 75.550781 80.816406 76.222656 81.265625 Z M 80.648438 85.015625 L 80.871094 85.164062 C 81.394531 85.691406 81.847656 86.214844 82.371094 86.816406 C 81.695312 86.441406 81.023438 86.140625 80.347656 85.839844 C 79.898438 85.242188 79.523438 84.640625 79.074219 84.042969 C 79.523438 84.265625 80.046875 84.640625 80.648438 85.015625 Z M 85.59375 89.140625 C 86.117188 89.664062 86.570312 90.1875 87.019531 90.714844 C 86.34375 90.339844 85.667969 90.039062 84.917969 89.738281 C 84.46875 89.140625 84.09375 88.539062 83.644531 87.941406 C 83.871094 88.089844 84.09375 88.164062 84.246094 88.316406 C 84.769531 88.539062 85.144531 88.839844 85.59375 89.140625 Z M 90.167969 92.960938 C 92.789062 95.585938 95.039062 98.511719 96.835938 101.734375 C 99.460938 106.382812 101.261719 111.480469 102.308594 116.726562 C 104.632812 128.722656 103.210938 141.019531 101.484375 151.4375 C 99.984375 160.4375 97.960938 169.582031 96.089844 178.355469 C 93.238281 191.398438 90.316406 204.816406 88.890625 218.238281 C 88.59375 221.011719 88.441406 223.785156 88.292969 226.558594 C 86.792969 225.511719 85.367188 224.460938 83.945312 223.410156 C 84.019531 219.136719 84.246094 215.089844 84.621094 211.339844 C 85.894531 197.996094 88.816406 184.726562 91.589844 171.832031 C 93.390625 163.585938 95.261719 155.039062 96.6875 146.566406 C 98.410156 136.445312 99.835938 124.523438 97.738281 112.753906 C 96.835938 107.65625 95.113281 102.707031 92.714844 98.0625 C 91.515625 95.8125 90.089844 93.636719 88.515625 91.6875 C 88.96875 92.136719 89.566406 92.511719 90.167969 92.960938 Z M 79.296875 239.378906 C 80.195312 240.429688 81.023438 241.476562 81.996094 242.453125 C 82.296875 243.652344 82.59375 244.851562 82.894531 246.050781 C 82.070312 245.003906 81.246094 243.953125 80.421875 242.902344 C 80.046875 241.703125 79.671875 240.503906 79.296875 239.378906 Z M 76.222656 234.882812 C 75.773438 233.757812 75.398438 232.558594 75.023438 231.355469 C 75.847656 232.332031 76.675781 233.304688 77.574219 234.28125 C 77.875 235.480469 78.171875 236.679688 78.472656 237.878906 C 77.796875 237.054688 77.125 236.15625 76.449219 235.332031 Z M 51.1875 67.398438 C 51.113281 66.796875 50.964844 66.199219 50.8125 65.597656 C 52.011719 65.898438 53.136719 66.273438 54.335938 66.648438 C 54.636719 67.699219 54.9375 68.746094 55.234375 69.871094 C 53.960938 69.570312 52.6875 69.273438 51.414062 69.046875 C 51.414062 68.523438 51.339844 67.921875 51.1875 67.398438 Z M 53.210938 63.199219 C 53.585938 64.175781 53.960938 65.222656 54.261719 66.199219 C 53.136719 65.824219 51.9375 65.449219 50.8125 65.148438 C 50.589844 64.023438 50.289062 62.898438 49.988281 61.851562 C 51.113281 62.300781 52.164062 62.75 53.210938 63.199219 Z M 49.914062 61.476562 C 49.613281 60.425781 49.3125 59.375 48.9375 58.328125 C 49.914062 58.851562 50.8125 59.375 51.789062 59.902344 C 52.238281 60.800781 52.613281 61.773438 53.0625 62.75 C 52.011719 62.375 50.964844 61.925781 49.914062 61.476562 Z M 214.972656 261.644531 L 215.945312 260.894531 C 216.394531 260.894531 216.847656 260.820312 217.371094 260.820312 L 216.472656 261.71875 Z M 67.304688 89.890625 C 67.230469 88.691406 67.078125 87.488281 66.929688 86.289062 C 68.277344 86.367188 69.554688 86.441406 70.902344 86.589844 C 71.425781 88.988281 71.875 91.386719 72.101562 93.789062 C 73.074219 103.609375 71.726562 113.578125 70.226562 122.050781 C 69.179688 127.898438 67.980469 133.820312 66.78125 139.519531 C 64.304688 151.589844 61.683594 164.109375 61.007812 176.628906 C 60.484375 186.074219 61.15625 195.523438 63.179688 204.742188 C 62.132812 203.617188 61.15625 202.492188 60.183594 201.292969 C 57.410156 191.023438 56.285156 180.304688 56.734375 169.65625 C 57.335938 157.363281 59.882812 145.066406 62.28125 133.148438 C 63.332031 127.898438 64.457031 122.5 65.355469 117.179688 C 66.703125 109.007812 68.054688 99.410156 67.304688 89.890625 Z M 62.207031 85.839844 C 62.132812 84.640625 61.980469 83.367188 61.90625 82.167969 C 63.257812 82.242188 64.605469 82.316406 65.878906 82.46875 C 66.105469 83.589844 66.328125 84.714844 66.480469 85.839844 C 65.054688 85.839844 63.632812 85.839844 62.207031 85.839844 Z M 60.183594 74.746094 C 60.484375 75.792969 60.707031 76.917969 60.933594 78.042969 C 59.582031 77.894531 58.234375 77.742188 56.886719 77.59375 C 56.734375 76.394531 56.660156 75.195312 56.433594 73.996094 C 57.710938 74.21875 58.984375 74.445312 60.183594 74.746094 Z M 56.359375 73.695312 C 56.210938 72.722656 56.058594 71.746094 55.835938 70.773438 C 55.835938 70.621094 55.761719 70.472656 55.6875 70.246094 C 56.886719 70.546875 58.007812 70.847656 59.132812 71.148438 C 59.433594 72.121094 59.808594 73.171875 60.035156 74.21875 C 60.035156 74.21875 60.035156 74.21875 60.035156 74.296875 C 58.832031 74.144531 57.558594 73.921875 56.359375 73.695312 Z M 60.558594 74.820312 C 61.683594 75.046875 62.882812 75.34375 64.007812 75.644531 C 64.230469 76.320312 64.53125 77.070312 64.753906 77.742188 C 64.832031 78.042969 64.90625 78.34375 64.980469 78.644531 C 63.78125 78.417969 62.582031 78.269531 61.308594 78.117188 C 61.007812 76.996094 60.78125 75.871094 60.558594 74.820312 Z M 61.007812 78.34375 C 61.234375 79.46875 61.382812 80.667969 61.53125 81.867188 C 60.109375 81.792969 58.609375 81.71875 57.183594 81.71875 C 57.109375 80.441406 57.035156 79.167969 56.960938 77.96875 C 58.234375 78.042969 59.582031 78.195312 61.007812 78.34375 Z M 61.308594 78.417969 C 62.582031 78.570312 63.78125 78.792969 65.054688 79.019531 C 65.355469 80.066406 65.65625 81.117188 65.878906 82.242188 C 64.53125 82.09375 63.257812 82.015625 61.90625 81.941406 C 61.683594 80.667969 61.53125 79.542969 61.308594 78.417969 Z M 65.355469 79.019531 C 66.480469 79.242188 67.605469 79.46875 68.726562 79.769531 C 68.878906 80.21875 69.101562 80.667969 69.253906 81.117188 C 69.402344 81.566406 69.628906 82.167969 69.777344 82.691406 C 68.578125 82.46875 67.378906 82.316406 66.179688 82.167969 C 65.953125 81.117188 65.65625 80.066406 65.355469 79.019531 Z M 66.253906 82.542969 C 67.453125 82.691406 68.726562 82.84375 69.929688 83.066406 C 70.226562 84.117188 70.527344 85.164062 70.753906 86.214844 C 69.476562 86.066406 68.128906 85.992188 66.855469 85.992188 C 66.628906 84.792969 66.480469 83.667969 66.253906 82.542969 Z M 73.902344 84.566406 C 74.199219 85.242188 74.425781 85.914062 74.648438 86.664062 C 73.449219 86.441406 72.328125 86.367188 71.128906 86.214844 C 70.902344 85.164062 70.601562 84.117188 70.300781 83.140625 C 71.425781 83.367188 72.550781 83.589844 73.601562 83.816406 C 73.675781 84.117188 73.75 84.339844 73.902344 84.566406 Z M 61.234375 176.554688 C 61.90625 164.109375 64.53125 151.589844 67.003906 139.519531 C 68.203125 133.820312 69.402344 127.898438 70.453125 122.050781 C 71.953125 113.578125 73.300781 103.609375 72.328125 93.710938 C 72.101562 91.3125 71.726562 88.914062 71.128906 86.589844 C 72.328125 86.742188 73.527344 86.890625 74.726562 87.039062 C 75.847656 90.488281 76.597656 93.9375 77.046875 97.535156 C 78.25 107.730469 76.898438 118.078125 75.398438 126.847656 C 74.273438 133.222656 72.925781 139.667969 71.652344 145.890625 C 69.101562 158.113281 66.40625 170.78125 65.582031 183.453125 C 65.054688 191.847656 65.429688 200.246094 66.78125 208.492188 C 65.65625 207.367188 64.605469 206.242188 63.480469 205.042969 C 61.457031 195.746094 60.707031 186.152344 61.234375 176.554688 Z M 78.472656 88.015625 C 80.273438 92.289062 81.472656 96.785156 82.070312 101.359375 C 83.496094 111.929688 82.144531 122.652344 80.570312 131.796875 C 79.371094 138.695312 77.949219 145.667969 76.523438 152.339844 C 73.902344 164.785156 71.203125 177.605469 70.226562 190.421875 C 69.703125 197.695312 69.851562 205.042969 70.675781 212.316406 C 69.476562 211.191406 68.355469 210.066406 67.152344 208.941406 C 65.730469 200.542969 65.355469 192 65.878906 183.527344 C 66.703125 170.855469 69.328125 158.261719 71.953125 145.964844 C 73.226562 139.742188 74.648438 133.296875 75.699219 126.925781 C 77.199219 118.152344 78.621094 107.730469 77.347656 97.460938 C 76.972656 93.9375 76.222656 90.414062 75.101562 87.039062 C 76.222656 87.191406 77.273438 87.488281 78.324219 87.714844 C 78.398438 87.863281 78.472656 87.941406 78.472656 88.015625 Z M 66.929688 209.316406 C 67.152344 210.589844 67.378906 211.867188 67.679688 213.140625 C 66.628906 212.015625 65.65625 210.890625 64.679688 209.765625 C 64.378906 208.492188 64.007812 207.292969 63.78125 206.019531 C 64.753906 207.066406 65.804688 208.191406 66.929688 209.316406 Z M 67.304688 209.691406 C 68.429688 210.816406 69.628906 211.941406 70.753906 212.988281 C 70.902344 214.265625 71.128906 215.613281 71.277344 216.886719 C 70.152344 215.765625 69.101562 214.640625 67.980469 213.515625 C 67.753906 212.238281 67.527344 210.964844 67.304688 209.691406 Z M 71.128906 213.363281 C 72.328125 214.488281 73.527344 215.539062 74.800781 216.664062 C 74.875 217.9375 75.023438 219.289062 75.175781 220.636719 C 73.976562 219.585938 72.851562 218.460938 71.726562 217.339844 C 71.5 215.988281 71.277344 214.714844 71.128906 213.363281 Z M 71.425781 217.488281 C 71.652344 218.761719 71.875 220.035156 72.101562 221.3125 C 71.050781 220.261719 70.078125 219.136719 69.101562 218.011719 C 68.804688 216.738281 68.503906 215.464844 68.203125 214.1875 C 69.253906 215.3125 70.300781 216.363281 71.425781 217.488281 Z M 71.800781 217.863281 C 72.925781 218.988281 74.050781 220.035156 75.175781 221.085938 C 75.324219 222.359375 75.476562 223.636719 75.699219 224.984375 C 74.648438 223.933594 73.527344 222.886719 72.550781 221.761719 C 72.25 220.410156 72.027344 219.136719 71.800781 217.863281 Z M 75.550781 221.386719 C 76.75 222.511719 78.023438 223.558594 79.296875 224.609375 C 79.371094 225.882812 79.523438 227.234375 79.597656 228.582031 C 78.398438 227.535156 77.199219 226.410156 76.074219 225.285156 C 75.925781 224.011719 75.699219 222.660156 75.550781 221.386719 Z M 75.773438 225.511719 C 76 226.785156 76.222656 228.058594 76.449219 229.332031 C 75.476562 228.285156 74.5 227.234375 73.527344 226.183594 C 73.226562 224.910156 72.925781 223.636719 72.625 222.359375 C 73.675781 223.410156 74.726562 224.460938 75.773438 225.511719 Z M 76.148438 225.882812 C 77.273438 227.007812 78.472656 228.058594 79.671875 229.109375 C 79.820312 230.382812 79.972656 231.730469 80.195312 233.007812 C 79.074219 231.957031 77.949219 230.832031 76.898438 229.707031 C 76.597656 228.433594 76.375 227.160156 76.148438 225.882812 Z M 80.046875 229.410156 C 81.246094 230.457031 82.519531 231.507812 83.796875 232.558594 C 83.871094 233.90625 83.945312 235.179688 84.09375 236.53125 C 82.894531 235.480469 81.695312 234.429688 80.570312 233.382812 C 80.347656 232.03125 80.195312 230.683594 80.046875 229.410156 Z M 80.273438 233.53125 C 80.496094 234.804688 80.722656 236.15625 80.945312 237.429688 C 79.898438 236.378906 78.921875 235.257812 77.949219 234.132812 C 77.648438 232.855469 77.347656 231.582031 77.046875 230.308594 C 78.023438 231.433594 79.148438 232.480469 80.273438 233.53125 Z M 80.648438 233.90625 C 81.769531 234.957031 82.96875 236.003906 84.167969 237.054688 C 84.320312 238.40625 84.46875 239.753906 84.621094 241.105469 C 83.496094 240.054688 82.371094 239.003906 81.320312 237.878906 C 81.023438 236.53125 80.796875 235.179688 80.648438 233.90625 Z M 220.367188 258.273438 L 221.566406 258.046875 L 220.742188 258.945312 L 219.46875 259.097656 Z M 218.945312 259.171875 L 217.820312 259.320312 L 218.644531 258.648438 L 219.769531 258.421875 Z M 228.988281 254 C 241.582031 250.175781 254.773438 249.199219 266.167969 251.222656 C 270.664062 252.050781 275.089844 253.472656 279.210938 255.496094 C 287.15625 259.394531 293.152344 265.09375 298.625 270.492188 C 299.300781 271.167969 299.976562 271.839844 300.648438 272.515625 L 298.773438 270.941406 C 291.878906 265.167969 285.734375 260.597656 278.238281 257.296875 C 273.964844 255.496094 269.464844 254.148438 264.894531 253.398438 C 253.652344 251.449219 240.308594 252.125 227.414062 255.199219 C 226.664062 255.347656 225.992188 255.574219 225.316406 255.722656 L 226.140625 254.824219 C 227.113281 254.597656 228.015625 254.296875 228.988281 254 Z M 226.664062 254.449219 L 227.414062 253.625 C 228.390625 253.25 229.4375 252.800781 230.414062 252.425781 C 242.632812 247.925781 256.125 246.578125 267.441406 248.75 C 271.941406 249.574219 276.363281 251.148438 280.410156 253.398438 C 287.980469 257.597656 293.378906 263.59375 298.773438 269.890625 C 299.300781 270.492188 299.898438 271.167969 300.347656 271.839844 C 299.898438 271.390625 299.375 270.867188 298.925781 270.417969 C 293.453125 264.945312 287.382812 259.320312 279.4375 255.347656 C 275.238281 253.324219 270.816406 251.898438 266.242188 251.074219 C 254.851562 248.976562 241.582031 249.949219 228.914062 253.847656 C 228.089844 253.921875 227.339844 254.148438 226.664062 254.449219 Z M 301.097656 273.414062 C 300.347656 272.816406 299.523438 272.292969 298.773438 271.691406 C 292.554688 267.269531 285.65625 262.769531 277.1875 259.472656 C 272.839844 257.820312 268.34375 256.621094 263.769531 255.949219 C 249.527344 253.699219 235.4375 255.199219 226.140625 256.847656 L 224.191406 257.148438 L 225.015625 256.171875 C 225.839844 255.949219 226.742188 255.722656 227.566406 255.496094 C 240.382812 252.425781 253.652344 251.75 264.894531 253.699219 C 269.464844 254.449219 273.890625 255.722656 278.085938 257.597656 C 285.582031 260.894531 291.730469 265.394531 298.550781 271.167969 C 299.375 271.917969 300.273438 272.664062 301.097656 273.414062 Z M 224.867188 255.949219 L 223.816406 256.246094 L 224.640625 255.496094 L 225.617188 255.199219 Z M 224.492188 256.398438 L 223.742188 257.296875 L 222.617188 257.523438 C 222.917969 257.222656 223.140625 256.921875 223.441406 256.699219 C 223.742188 256.546875 224.117188 256.472656 224.492188 256.398438 Z M 222.019531 257.597656 L 220.894531 257.820312 L 221.71875 257.148438 L 222.769531 256.847656 Z M 222.167969 257.898438 L 223.367188 257.671875 L 222.542969 258.648438 L 221.269531 258.796875 Z M 223.890625 257.597656 L 226.214844 257.148438 C 235.511719 255.496094 249.453125 254 263.695312 256.246094 C 268.265625 256.921875 272.691406 258.121094 277.039062 259.769531 C 285.507812 262.996094 292.402344 267.566406 298.550781 271.917969 C 299.523438 272.589844 300.5 273.339844 301.472656 274.015625 C 300.574219 273.414062 299.601562 272.890625 298.699219 272.292969 C 292.929688 268.84375 285.132812 264.496094 276.0625 261.496094 C 271.640625 260.070312 267.144531 259.019531 262.570312 258.347656 C 251.328125 256.699219 238.582031 256.699219 224.867188 258.347656 L 223.140625 258.570312 C 223.292969 258.273438 223.59375 257.898438 223.890625 257.597656 Z M 231.835938 250.851562 C 243.679688 245.675781 257.472656 243.953125 268.71875 246.203125 C 273.214844 247.101562 277.5625 248.75 281.535156 251.222656 C 288.730469 255.722656 293.679688 261.945312 298.851562 269.140625 C 299.300781 269.742188 299.675781 270.265625 300.050781 270.867188 C 299.675781 270.417969 299.375 270.042969 299 269.59375 C 293.601562 263.292969 288.132812 257.296875 280.558594 253.097656 C 276.511719 250.851562 272.089844 249.273438 267.519531 248.375 C 256.125 246.203125 242.632812 247.550781 230.339844 252.050781 C 229.515625 252.347656 228.765625 252.648438 228.015625 252.949219 L 228.6875 252.273438 C 229.589844 251.824219 230.636719 251.300781 231.835938 250.851562 Z M 229.214844 251.675781 L 229.738281 251.148438 C 230.863281 250.476562 231.988281 249.875 233.1875 249.273438 C 244.804688 243.351562 258.523438 241.253906 269.917969 243.726562 C 274.488281 244.703125 278.761719 246.5 282.585938 249.125 C 289.554688 253.921875 294.054688 260.671875 298.851562 268.46875 C 299.148438 268.917969 299.449219 269.441406 299.75 269.890625 C 299.523438 269.59375 299.300781 269.292969 299.074219 268.992188 C 293.828125 261.871094 288.957031 255.574219 281.683594 251 C 277.710938 248.601562 273.289062 246.875 268.71875 245.976562 C 257.398438 243.652344 243.53125 245.375 231.6875 250.625 C 230.789062 250.925781 229.964844 251.300781 229.214844 251.675781 Z M 227.191406 253.324219 L 226.515625 253.625 L 227.113281 253.097656 L 227.714844 252.800781 Z M 226.664062 253.921875 L 225.992188 254.671875 L 225.089844 254.972656 L 225.765625 254.296875 Z M 224.417969 255.121094 C 224.191406 255.199219 223.890625 255.273438 223.667969 255.421875 L 224.265625 254.898438 L 224.941406 254.597656 Z M 223.890625 255.722656 L 223.21875 256.398438 L 222.242188 256.699219 L 222.992188 256.097656 C 223.21875 255.949219 223.515625 255.796875 223.890625 255.722656 Z M 221.492188 256.847656 L 220.742188 257.070312 L 221.417969 256.621094 L 222.09375 256.324219 Z M 220.96875 257.371094 C 220.742188 257.597656 220.519531 257.820312 220.21875 258.046875 L 219.246094 258.273438 L 219.996094 257.671875 Z M 218.496094 258.347656 L 217.671875 258.496094 L 218.34375 258.121094 L 219.167969 257.898438 Z M 217.894531 258.796875 L 217.144531 259.394531 L 216.097656 259.546875 L 216.847656 259.019531 Z M 216.621094 259.847656 L 215.796875 260.519531 L 214.597656 260.597656 L 215.496094 259.996094 Z M 215.347656 259.695312 L 214.523438 259.847656 L 215.195312 259.472656 L 216.019531 259.246094 C 215.722656 259.394531 215.496094 259.546875 215.347656 259.695312 Z M 214.671875 260.144531 L 213.921875 260.671875 L 212.796875 260.746094 L 213.621094 260.296875 Z M 213.398438 261.046875 L 212.5 261.644531 L 211.222656 261.644531 L 212.125 261.121094 Z M 212.046875 260.820312 L 211.148438 260.894531 L 211.824219 260.597656 L 212.722656 260.445312 Z M 211.375 261.195312 L 210.472656 261.644531 L 209.351562 261.644531 L 210.175781 261.269531 Z M 207.101562 262.769531 L 208.527344 262.84375 L 207.550781 263.445312 L 206.050781 263.292969 Z M 205.453125 263.21875 L 204.027344 263.070312 L 205.003906 262.695312 L 206.351562 262.769531 Z M 207.699219 262.46875 L 208.675781 262.019531 L 210.023438 262.019531 L 209.125 262.546875 Z M 208.601562 261.71875 L 207.625 261.71875 L 208.375 261.421875 L 209.351562 261.34375 Z M 207.851562 262.09375 L 207.027344 262.46875 L 205.828125 262.394531 L 206.726562 262.09375 Z M 205.003906 262.394531 L 204.027344 262.320312 L 204.777344 262.09375 L 205.753906 262.09375 Z M 204.253906 262.621094 L 203.351562 262.917969 L 202.078125 262.769531 L 202.980469 262.546875 Z M 202.679688 263.21875 C 200.503906 264.042969 198.40625 264.867188 196.308594 265.695312 C 192.109375 267.269531 188.136719 268.84375 184.089844 270.265625 C 170.445312 275.140625 155.53125 279.339844 138.964844 277.839844 C 123.371094 276.414062 106.957031 268.765625 93.691406 257.222656 C 93.539062 255.871094 93.390625 254.523438 93.238281 253.097656 C 105.832031 263.21875 120.597656 270.117188 135.140625 272.214844 C 151.855469 274.691406 167.222656 271.839844 181.242188 268.394531 C 186.261719 267.191406 191.136719 265.769531 196.308594 264.34375 L 201.179688 262.996094 Z M 201.253906 262.695312 L 200.207031 262.546875 L 200.953125 262.394531 L 202.003906 262.46875 Z M 200.429688 262.917969 L 196.308594 264.042969 C 191.136719 265.46875 186.261719 266.816406 181.242188 268.09375 C 167.148438 271.542969 151.855469 274.390625 135.214844 271.917969 C 120.675781 269.742188 105.757812 262.84375 93.238281 252.648438 C 93.164062 251.300781 93.015625 249.875 92.941406 248.527344 C 104.632812 257.296875 117.976562 263.59375 131.394531 266.367188 C 148.484375 269.816406 164.75 268.242188 178.390625 266.367188 C 184.6875 265.46875 190.910156 264.34375 197.507812 263.144531 L 199.082031 262.84375 Z M 88.96875 245.300781 C 90.167969 246.277344 91.367188 247.25 92.640625 248.226562 C 92.714844 249.574219 92.789062 251 92.863281 252.347656 C 91.664062 251.375 90.542969 250.398438 89.417969 249.425781 C 89.265625 248.074219 89.117188 246.726562 88.96875 245.300781 Z M 89.042969 249.050781 C 87.917969 248 86.792969 246.953125 85.667969 245.902344 C 85.445312 244.550781 85.21875 243.277344 84.996094 241.929688 C 86.195312 242.976562 87.316406 244.027344 88.515625 245.003906 C 88.742188 246.351562 88.890625 247.699219 89.042969 249.050781 Z M 197.433594 262.769531 C 190.835938 263.96875 184.6875 265.09375 178.316406 265.992188 C 164.675781 267.941406 148.484375 269.441406 131.394531 265.992188 C 117.976562 263.21875 104.558594 256.921875 92.863281 248.074219 C 92.789062 246.652344 92.789062 245.300781 92.789062 243.878906 C 103.285156 251.449219 115.050781 257.070312 127.570312 260.445312 C 145.035156 264.945312 161.601562 264.867188 175.46875 264.195312 C 182.589844 263.820312 189.636719 263.21875 196.90625 262.546875 L 197.957031 262.695312 Z M 92.640625 247.851562 C 91.367188 246.875 90.167969 245.902344 88.96875 244.925781 C 88.816406 243.578125 88.742188 242.152344 88.667969 240.730469 C 89.941406 241.703125 91.214844 242.679688 92.566406 243.652344 C 92.488281 245.003906 92.566406 246.425781 92.640625 247.851562 Z M 88.515625 244.550781 C 87.316406 243.503906 86.117188 242.453125 84.917969 241.402344 C 84.769531 240.054688 84.542969 238.703125 84.394531 237.28125 C 85.667969 238.328125 86.867188 239.378906 88.144531 240.355469 C 88.292969 241.851562 88.441406 243.203125 88.515625 244.550781 Z M 84.695312 241.554688 C 84.84375 242.828125 85.070312 244.175781 85.292969 245.453125 C 84.246094 244.402344 83.269531 243.351562 82.296875 242.226562 C 81.996094 240.953125 81.695312 239.679688 81.472656 238.40625 C 82.519531 239.527344 83.570312 240.578125 84.695312 241.554688 Z M 89.042969 249.574219 C 89.191406 250.925781 89.417969 252.199219 89.640625 253.546875 C 88.59375 252.5 87.542969 251.449219 86.570312 250.398438 C 86.269531 249.125 85.96875 247.777344 85.742188 246.5 C 86.867188 247.476562 87.992188 248.527344 89.042969 249.574219 Z M 89.417969 249.875 C 90.542969 250.851562 91.664062 251.824219 92.863281 252.800781 C 92.941406 254.148438 93.089844 255.496094 93.238281 256.847656 C 92.117188 255.871094 91.066406 254.898438 90.015625 253.921875 C 89.867188 252.574219 89.640625 251.222656 89.417969 249.875 Z M 93.316406 257.371094 C 93.464844 258.722656 93.691406 260.070312 93.914062 261.421875 C 92.941406 260.445312 91.964844 259.472656 90.992188 258.496094 C 90.691406 257.222656 90.464844 255.871094 90.167969 254.523438 C 91.214844 255.496094 92.265625 256.398438 93.316406 257.371094 Z M 93.691406 257.671875 C 97.664062 261.121094 101.859375 264.195312 106.28125 266.894531 C 116.851562 273.265625 128.09375 277.164062 138.964844 278.140625 C 155.605469 279.636719 170.523438 275.363281 184.238281 270.566406 C 188.285156 269.140625 192.410156 267.566406 196.457031 265.992188 C 198.78125 265.09375 201.105469 264.195312 203.429688 263.371094 L 204.925781 263.519531 C 202.304688 264.792969 199.679688 266.144531 197.132812 267.417969 C 193.832031 269.066406 190.386719 270.792969 187.011719 272.441406 C 173.820312 278.664062 159.351562 284.359375 142.789062 283.761719 C 125.921875 283.160156 108.15625 274.914062 94.363281 261.796875 C 94.0625 260.445312 93.914062 259.097656 93.691406 257.671875 Z M 142.710938 284.0625 C 159.351562 284.660156 173.894531 278.964844 187.085938 272.664062 C 190.460938 271.089844 193.910156 269.292969 197.207031 267.644531 C 199.90625 266.292969 202.679688 264.867188 205.453125 263.519531 L 207.027344 263.667969 C 204.101562 265.46875 201.179688 267.269531 198.332031 269.066406 C 195.484375 270.867188 192.632812 272.664062 189.710938 274.464844 C 177.042969 282.113281 162.949219 289.234375 146.386719 289.609375 L 145.410156 289.609375 C 127.871094 289.609375 108.90625 280.613281 95.039062 266.21875 C 94.738281 264.945312 94.515625 263.59375 94.289062 262.246094 C 108.15625 275.289062 125.921875 283.460938 142.710938 284.0625 Z M 113.476562 280.988281 C 124.273438 287.058594 135.667969 290.207031 146.460938 289.984375 C 163.101562 289.683594 177.191406 282.488281 189.9375 274.839844 C 192.785156 273.117188 195.707031 271.242188 198.554688 269.441406 C 201.554688 267.566406 204.554688 265.695312 207.550781 263.820312 L 209.199219 263.96875 C 206.125 266.292969 203.054688 268.617188 200.054688 270.941406 C 197.65625 272.816406 195.109375 274.765625 192.632812 276.640625 C 180.566406 285.710938 167.074219 294.257812 150.28125 295.53125 C 131.320312 296.957031 110.480469 287.136719 96.238281 270.714844 C 95.9375 269.441406 95.5625 268.167969 95.339844 266.894531 C 100.660156 272.441406 106.808594 277.164062 113.476562 280.988281 Z M 208.074219 263.519531 L 209.125 262.917969 L 210.625 262.996094 L 209.648438 263.746094 Z M 209.574219 262.621094 L 210.550781 262.019531 L 211.972656 262.019531 L 211 262.695312 Z M 212.574219 261.945312 L 213.996094 261.945312 L 213.023438 262.769531 L 211.523438 262.695312 Z M 213.023438 261.644531 L 213.996094 260.96875 L 215.347656 260.894531 L 214.445312 261.644531 Z M 216.320312 260.445312 L 217.222656 259.695312 L 218.496094 259.546875 L 217.671875 260.371094 Z M 219.09375 259.472656 L 220.445312 259.320312 L 219.542969 260.296875 L 218.195312 260.371094 Z M 220.894531 259.246094 L 222.242188 259.097656 C 221.941406 259.472656 221.644531 259.769531 221.417969 260.144531 L 219.996094 260.222656 Z M 222.691406 258.945312 L 224.714844 258.648438 C 238.433594 256.996094 251.101562 256.996094 262.34375 258.648438 C 266.917969 259.320312 271.414062 260.371094 275.839844 261.796875 C 284.90625 264.792969 292.703125 269.066406 298.402344 272.515625 C 299.449219 273.117188 300.5 273.789062 301.472656 274.390625 L 301.472656 274.464844 C 300.5 273.941406 299.523438 273.414062 298.476562 272.964844 C 290.90625 269.066406 282.960938 265.992188 274.789062 263.667969 C 270.292969 262.46875 265.71875 261.496094 261.144531 260.894531 C 250.128906 259.394531 237.382812 259.019531 223.292969 259.921875 L 221.792969 259.996094 Z M 299.074219 268.242188 C 294.277344 260.445312 289.78125 253.625 282.734375 248.824219 C 278.835938 246.203125 274.488281 244.328125 269.917969 243.425781 C 258.523438 240.953125 244.65625 243.054688 233.035156 248.976562 C 232.210938 249.351562 231.460938 249.800781 230.636719 250.25 L 230.9375 250.023438 C 232.136719 249.199219 233.335938 248.449219 234.609375 247.699219 C 245.855469 241.105469 259.871094 238.628906 271.191406 241.253906 C 275.761719 242.226562 280.035156 244.175781 283.707031 247.027344 C 290.980469 252.574219 295.402344 260.96875 298.925781 267.792969 L 299.449219 268.84375 C 299.300781 268.542969 299.148438 268.394531 299.074219 268.242188 Z M 228.6875 251.75 L 228.390625 252.050781 L 228.015625 252.199219 L 228.390625 251.898438 Z M 225.992188 253.625 L 225.691406 253.921875 L 225.316406 254.074219 L 225.691406 253.773438 Z M 223.140625 255.347656 L 222.769531 255.648438 L 222.316406 255.796875 L 222.691406 255.496094 Z M 220.21875 256.996094 L 219.84375 257.296875 C 219.695312 257.371094 219.542969 257.371094 219.394531 257.445312 C 219.542969 257.371094 219.621094 257.296875 219.769531 257.222656 Z M 217.144531 258.496094 L 216.769531 258.722656 L 216.246094 258.871094 L 216.621094 258.648438 Z M 213.996094 259.769531 L 213.546875 259.996094 L 213.023438 260.070312 L 213.472656 259.847656 Z M 210.625 260.820312 L 210.175781 261.046875 L 209.574219 261.121094 L 210.023438 260.96875 Z M 207.101562 261.570312 L 206.652344 261.71875 L 205.976562 261.71875 L 206.425781 261.570312 Z M 203.429688 262.171875 L 202.980469 262.320312 L 202.378906 262.320312 L 202.828125 262.246094 Z M 199.53125 262.394531 L 199.15625 262.46875 L 198.554688 262.394531 Z M 195.484375 262.320312 C 188.738281 262.917969 182.140625 263.519531 175.542969 263.820312 C 161.675781 264.496094 145.1875 264.570312 127.71875 260.070312 C 115.203125 256.699219 103.359375 251 92.789062 243.425781 C 92.789062 242.078125 92.789062 240.730469 92.789062 239.304688 C 102.308594 245.828125 112.730469 250.925781 123.746094 254.449219 C 137.914062 258.871094 152.90625 261.195312 172.546875 262.019531 C 179.890625 262.320312 187.238281 262.320312 194.734375 262.246094 Z M 92.488281 243.203125 C 91.140625 242.226562 89.867188 241.253906 88.59375 240.277344 C 88.515625 238.929688 88.441406 237.578125 88.441406 236.230469 C 89.792969 237.207031 91.140625 238.179688 92.566406 239.15625 C 92.488281 240.503906 92.488281 241.851562 92.488281 243.203125 Z M 88.21875 239.980469 C 86.941406 239.003906 85.667969 237.953125 84.394531 236.832031 C 84.246094 235.480469 84.167969 234.132812 84.09375 232.78125 C 85.367188 233.832031 86.71875 234.882812 88.066406 235.855469 C 88.144531 237.28125 88.144531 238.628906 88.21875 239.980469 Z M 84.09375 232.40625 C 84.019531 231.058594 83.945312 229.707031 83.945312 228.433594 C 85.292969 229.484375 86.71875 230.53125 88.144531 231.507812 C 88.144531 232.855469 88.144531 234.207031 88.144531 235.554688 C 86.71875 234.507812 85.371094 233.457031 84.09375 232.40625 Z M 83.71875 232.105469 C 82.445312 231.058594 81.171875 230.007812 79.972656 228.882812 C 79.820312 227.535156 79.746094 226.257812 79.597656 224.910156 C 80.871094 225.960938 82.222656 227.085938 83.496094 228.058594 C 83.570312 229.410156 83.644531 230.757812 83.71875 232.105469 Z M 79.597656 224.535156 C 79.523438 223.1875 79.449219 221.835938 79.371094 220.488281 C 80.722656 221.613281 82.144531 222.660156 83.496094 223.710938 C 83.496094 225.058594 83.496094 226.335938 83.496094 227.757812 C 82.222656 226.632812 80.871094 225.585938 79.597656 224.535156 Z M 79.222656 224.234375 C 77.949219 223.1875 76.675781 222.0625 75.476562 220.9375 C 75.324219 219.585938 75.175781 218.3125 75.101562 216.964844 C 76.375 218.085938 77.722656 219.136719 78.996094 220.261719 C 79.074219 221.535156 79.148438 222.886719 79.222656 224.234375 Z M 75.101562 216.363281 C 74.648438 210.066406 74.726562 203.769531 75.25 197.472656 C 76.300781 184.5 79.074219 171.53125 81.769531 158.9375 C 83.34375 151.664062 84.917969 144.242188 86.195312 136.820312 C 87.769531 127.375 89.191406 116.203125 87.542969 105.183594 C 86.867188 100.386719 85.445312 95.738281 83.421875 91.3125 C 83.046875 90.488281 82.59375 89.664062 82.222656 88.914062 C 83.121094 89.214844 83.945312 89.589844 84.84375 89.964844 C 85.894531 91.539062 86.941406 93.1875 87.769531 94.910156 C 89.941406 99.410156 91.515625 104.132812 92.339844 109.082031 C 94.214844 120.402344 92.789062 131.871094 91.140625 141.691406 C 89.792969 149.640625 88.066406 157.660156 86.417969 165.382812 C 83.644531 178.128906 80.871094 191.25 79.671875 204.441406 C 79.222656 209.542969 79.074219 214.640625 79.222656 219.738281 C 77.722656 218.613281 76.449219 217.488281 75.101562 216.363281 Z M 83.046875 91.464844 C 85.070312 95.8125 86.417969 100.460938 87.09375 105.257812 C 88.742188 116.203125 87.316406 127.300781 85.742188 136.746094 C 84.46875 144.167969 82.894531 151.664062 81.320312 158.863281 C 78.621094 171.457031 75.847656 184.425781 74.800781 197.472656 C 74.273438 203.695312 74.273438 209.914062 74.648438 216.0625 C 73.375 214.9375 72.175781 213.890625 70.976562 212.691406 C 70.078125 205.34375 69.929688 197.847656 70.453125 190.5 C 71.351562 177.679688 74.125 164.859375 76.75 152.488281 C 78.171875 145.742188 79.671875 138.769531 80.796875 131.871094 C 82.371094 122.726562 83.71875 111.929688 82.296875 101.359375 C 81.695312 96.710938 80.421875 92.214844 78.621094 87.941406 C 79.597656 88.164062 80.570312 88.464844 81.546875 88.839844 C 82.144531 89.589844 82.671875 90.488281 83.046875 91.464844 Z M 78.546875 87.488281 C 78.171875 86.589844 77.796875 85.765625 77.347656 85.015625 C 78.25 85.316406 79.148438 85.691406 80.046875 86.066406 C 80.496094 86.816406 81.023438 87.566406 81.394531 88.316406 C 80.496094 88.015625 79.523438 87.714844 78.546875 87.488281 Z M 78.171875 87.414062 C 77.125 87.191406 76.074219 86.964844 74.949219 86.742188 C 74.726562 85.992188 74.425781 85.242188 74.125 84.492188 C 74.050781 84.339844 73.976562 84.117188 73.902344 83.964844 C 74.875 84.191406 75.925781 84.566406 76.898438 84.867188 C 77.347656 85.691406 77.796875 86.515625 78.171875 87.414062 Z M 73.75 83.589844 C 73.375 82.691406 73 81.867188 72.550781 81.042969 C 73.449219 81.34375 74.351562 81.71875 75.25 82.09375 C 75.773438 82.84375 76.222656 83.589844 76.675781 84.417969 C 75.773438 84.117188 74.800781 83.816406 73.75 83.589844 Z M 73.375 83.441406 C 72.328125 83.214844 71.203125 82.917969 70.152344 82.765625 C 70.003906 82.167969 69.777344 81.640625 69.554688 81.042969 C 69.402344 80.667969 69.253906 80.292969 69.101562 79.84375 C 70.152344 80.144531 71.128906 80.441406 72.175781 80.742188 C 72.625 81.71875 73 82.542969 73.375 83.441406 Z M 69.027344 79.542969 C 68.652344 78.644531 68.277344 77.742188 67.902344 76.917969 C 68.804688 77.292969 69.777344 77.667969 70.675781 78.042969 C 71.128906 78.792969 71.578125 79.617188 72.027344 80.441406 C 70.976562 80.066406 70.003906 79.769531 69.027344 79.542969 Z M 68.578125 79.394531 C 67.453125 79.09375 66.328125 78.867188 65.28125 78.644531 C 65.207031 78.269531 65.128906 77.96875 64.980469 77.59375 C 64.753906 76.917969 64.53125 76.320312 64.304688 75.644531 C 65.355469 75.945312 66.40625 76.246094 67.378906 76.621094 C 67.828125 77.59375 68.277344 78.492188 68.578125 79.394531 Z M 64.230469 75.34375 C 63.855469 74.371094 63.480469 73.46875 63.105469 72.570312 C 64.007812 72.945312 64.980469 73.320312 65.878906 73.769531 C 66.328125 74.59375 66.78125 75.417969 67.230469 76.246094 C 66.253906 75.945312 65.207031 75.644531 64.230469 75.34375 Z M 63.78125 75.269531 C 62.65625 74.96875 61.53125 74.671875 60.40625 74.445312 C 60.40625 74.371094 60.332031 74.296875 60.332031 74.21875 C 60.109375 73.246094 59.808594 72.269531 59.433594 71.371094 C 60.484375 71.671875 61.53125 72.046875 62.582031 72.421875 C 63.105469 73.320312 63.480469 74.296875 63.78125 75.269531 Z M 59.433594 70.996094 C 59.132812 70.023438 58.757812 69.046875 58.382812 68.148438 C 59.359375 68.523438 60.257812 68.972656 61.234375 69.421875 C 61.683594 70.246094 62.132812 71.148438 62.582031 72.046875 C 61.457031 71.671875 60.484375 71.296875 59.433594 70.996094 Z M 59.058594 70.921875 C 57.933594 70.621094 56.808594 70.320312 55.609375 70.023438 C 55.386719 68.972656 55.085938 67.847656 54.710938 66.796875 C 55.761719 67.171875 56.808594 67.546875 57.859375 67.996094 C 58.308594 68.898438 58.683594 69.871094 59.058594 70.921875 Z M 54.636719 66.421875 C 54.335938 65.449219 53.960938 64.398438 53.585938 63.425781 C 54.5625 63.875 55.535156 64.324219 56.433594 64.847656 C 56.886719 65.75 57.335938 66.574219 57.710938 67.546875 C 56.734375 67.097656 55.6875 66.722656 54.636719 66.421875 Z M 55.3125 70.246094 L 55.460938 70.921875 C 55.6875 71.820312 55.835938 72.722656 55.984375 73.695312 C 54.636719 73.46875 53.210938 73.320312 51.863281 73.171875 C 51.789062 71.894531 51.636719 70.695312 51.488281 69.496094 C 52.835938 69.648438 54.113281 69.945312 55.3125 70.246094 Z M 56.058594 73.996094 C 56.210938 75.195312 56.359375 76.394531 56.511719 77.59375 C 55.011719 77.445312 53.585938 77.367188 52.085938 77.292969 C 52.085938 76.019531 52.011719 74.746094 51.9375 73.394531 C 53.285156 73.621094 54.710938 73.769531 56.058594 73.996094 Z M 56.585938 77.894531 C 56.734375 79.167969 56.808594 80.367188 56.808594 81.640625 C 55.234375 81.640625 53.660156 81.640625 52.085938 81.640625 C 52.085938 80.519531 52.164062 79.46875 52.164062 78.34375 C 52.164062 78.117188 52.164062 77.894531 52.164062 77.59375 C 53.585938 77.742188 55.085938 77.820312 56.585938 77.894531 Z M 56.808594 82.015625 C 56.808594 82.09375 56.808594 82.167969 56.808594 82.167969 C 56.886719 83.441406 56.886719 84.640625 56.808594 85.914062 C 55.160156 85.992188 53.4375 86.066406 51.710938 86.140625 C 51.863281 84.714844 51.9375 83.367188 51.9375 81.941406 C 53.660156 82.015625 55.234375 82.015625 56.808594 82.015625 Z M 57.183594 82.167969 C 57.183594 82.09375 57.183594 82.015625 57.183594 82.015625 C 58.683594 82.015625 60.109375 82.09375 61.53125 82.167969 C 61.683594 83.367188 61.757812 84.566406 61.832031 85.839844 C 60.257812 85.839844 58.683594 85.914062 57.183594 85.992188 C 57.183594 84.714844 57.183594 83.441406 57.183594 82.167969 Z M 61.90625 86.140625 C 62.433594 95.210938 61.082031 104.359375 59.734375 112.082031 C 58.910156 116.878906 57.933594 121.75 56.960938 126.398438 C 54.5625 138.167969 52.085938 150.390625 51.636719 162.535156 C 51.1875 174.003906 52.6875 185.402344 56.136719 196.347656 C 55.234375 195.222656 54.410156 194.097656 53.585938 192.898438 C 49.089844 180.976562 46.992188 168.308594 47.367188 155.5625 C 47.664062 143.566406 50.140625 131.574219 52.460938 119.878906 C 53.285156 115.679688 54.1875 111.40625 54.9375 107.132812 C 56.285156 100.234375 57.035156 93.1875 57.335938 86.140625 C 58.757812 86.214844 60.332031 86.214844 61.90625 86.140625 Z M 51.9375 162.609375 C 52.386719 150.464844 54.859375 138.320312 57.261719 126.550781 C 58.234375 121.828125 59.207031 116.953125 60.035156 112.15625 C 61.382812 104.433594 62.730469 95.210938 62.207031 86.140625 C 63.632812 86.140625 65.054688 86.140625 66.554688 86.214844 C 66.703125 87.414062 66.855469 88.613281 66.929688 89.8125 C 67.679688 99.335938 66.328125 108.855469 64.90625 116.953125 C 64.007812 122.277344 62.882812 127.675781 61.757812 132.921875 C 59.285156 144.84375 56.808594 157.210938 56.210938 169.507812 C 55.6875 180.003906 56.808594 190.421875 59.433594 200.542969 C 58.460938 199.421875 57.558594 198.296875 56.660156 197.171875 C 53.136719 186.074219 51.488281 174.378906 51.9375 162.609375 Z M 58.160156 199.644531 C 58.683594 200.320312 59.285156 200.917969 59.808594 201.59375 C 60.109375 202.792969 60.484375 203.917969 60.859375 205.117188 C 60.035156 204.070312 59.207031 202.945312 58.382812 201.894531 C 57.933594 200.769531 57.558594 199.570312 57.183594 198.445312 C 57.484375 198.820312 57.785156 199.269531 58.160156 199.644531 Z M 60.257812 202.195312 C 61.234375 203.320312 62.207031 204.441406 63.179688 205.492188 C 63.480469 206.691406 63.78125 207.964844 64.082031 209.167969 C 63.332031 208.265625 62.582031 207.441406 61.90625 206.542969 C 61.757812 206.316406 61.53125 206.09375 61.382812 205.867188 C 61.007812 204.59375 60.632812 203.394531 60.257812 202.195312 Z M 61.683594 206.691406 C 62.582031 207.742188 63.40625 208.792969 64.304688 209.839844 C 64.605469 211.039062 64.980469 212.164062 65.28125 213.363281 C 64.457031 212.316406 63.632812 211.191406 62.808594 210.140625 C 62.433594 209.015625 62.058594 207.890625 61.683594 206.691406 Z M 64.832031 210.441406 C 65.804688 211.566406 66.78125 212.613281 67.753906 213.738281 C 68.054688 215.015625 68.277344 216.214844 68.652344 217.414062 C 67.753906 216.289062 66.78125 215.238281 65.878906 214.113281 C 65.503906 212.914062 65.128906 211.640625 64.832031 210.441406 Z M 68.804688 218.085938 C 69.101562 219.289062 69.476562 220.410156 69.777344 221.613281 L 69.179688 220.863281 C 68.578125 220.035156 67.902344 219.210938 67.304688 218.386719 C 66.855469 217.261719 66.480469 216.0625 66.105469 214.9375 C 67.003906 215.988281 67.902344 217.039062 68.804688 218.085938 Z M 69.328125 218.6875 C 70.300781 219.8125 71.277344 220.863281 72.25 221.910156 C 72.476562 223.1875 72.777344 224.386719 73.074219 225.660156 C 72.175781 224.609375 71.203125 223.484375 70.300781 222.359375 C 70.003906 221.160156 69.554688 219.886719 69.328125 218.6875 Z M 73.300781 226.335938 C 73.601562 227.535156 73.902344 228.734375 74.273438 229.933594 C 73.824219 229.332031 73.375 228.734375 72.925781 228.132812 L 71.875 226.710938 C 71.425781 225.585938 71.050781 224.386719 70.675781 223.1875 C 71.5 224.234375 72.328125 225.285156 73.300781 226.335938 Z M 73.75 226.859375 C 74.648438 227.910156 75.625 228.882812 76.597656 229.933594 C 76.824219 231.207031 77.125 232.40625 77.421875 233.679688 C 76.523438 232.632812 75.625 231.582031 74.800781 230.609375 C 74.425781 229.332031 74.050781 228.058594 73.75 226.859375 Z M 78.097656 234.882812 C 79.074219 235.929688 80.046875 236.980469 81.097656 238.03125 C 81.320312 239.304688 81.621094 240.503906 81.921875 241.777344 C 80.945312 240.730469 80.046875 239.679688 79.148438 238.554688 C 78.699219 237.355469 78.324219 236.082031 78.097656 234.882812 Z M 82.445312 242.976562 C 83.421875 244.027344 84.394531 245.078125 85.445312 246.050781 C 85.667969 247.324219 85.894531 248.601562 86.195312 249.875 C 85.21875 248.824219 84.320312 247.777344 83.421875 246.726562 C 83.046875 245.453125 82.671875 244.175781 82.445312 242.976562 Z M 86.34375 250.550781 C 86.644531 251.75 86.941406 253.023438 87.242188 254.222656 C 86.417969 253.171875 85.59375 252.125 84.769531 251.074219 C 84.394531 249.875 84.019531 248.675781 83.644531 247.476562 C 84.46875 248.527344 85.371094 249.5 86.34375 250.550781 Z M 86.792969 251 C 87.769531 252.050781 88.816406 253.097656 89.792969 254.074219 C 90.015625 255.421875 90.242188 256.699219 90.542969 257.972656 C 89.566406 256.921875 88.59375 255.871094 87.691406 254.75 C 87.394531 253.546875 87.09375 252.273438 86.792969 251 Z M 90.691406 258.648438 C 90.992188 259.921875 91.289062 261.121094 91.589844 262.394531 C 90.691406 261.34375 89.867188 260.296875 89.042969 259.246094 C 88.667969 258.046875 88.292969 256.847656 87.917969 255.648438 C 88.816406 256.621094 89.714844 257.671875 90.691406 258.648438 Z M 91.140625 259.097656 C 92.117188 260.070312 93.015625 261.046875 93.988281 261.945312 C 94.214844 263.292969 94.4375 264.570312 94.738281 265.84375 C 93.839844 264.867188 92.941406 263.894531 92.117188 262.917969 C 91.742188 261.644531 91.441406 260.371094 91.140625 259.097656 Z M 94.890625 266.445312 C 95.1875 267.71875 95.488281 268.992188 95.789062 270.191406 C 94.964844 269.21875 94.214844 268.242188 93.464844 267.269531 C 93.089844 266.070312 92.714844 264.867188 92.339844 263.59375 C 93.089844 264.570312 93.988281 265.542969 94.890625 266.445312 Z M 95.9375 270.941406 C 96.238281 272.140625 96.613281 273.265625 96.914062 274.390625 C 96.238281 273.492188 95.5625 272.515625 94.890625 271.542969 C 94.4375 270.417969 94.0625 269.292969 93.691406 268.167969 C 94.363281 269.140625 95.113281 270.042969 95.9375 270.941406 Z M 96.386719 271.464844 C 110.628906 287.660156 131.394531 297.257812 150.28125 295.90625 C 167.148438 294.632812 180.714844 286.011719 192.933594 276.9375 C 195.40625 275.066406 197.957031 273.117188 200.355469 271.242188 C 203.429688 268.84375 206.578125 266.445312 209.726562 264.042969 L 211.375 264.195312 C 208.226562 266.96875 205.078125 269.890625 202.078125 272.742188 C 199.90625 274.765625 197.730469 276.863281 195.484375 278.8125 C 184.464844 288.785156 170.898438 299.28125 153.957031 301.453125 C 134.167969 304.003906 111.453125 293.28125 97.4375 275.066406 C 97.0625 273.941406 96.6875 272.664062 96.386719 271.464844 Z M 210.175781 263.746094 C 210.550781 263.519531 210.847656 263.21875 211.222656 262.996094 L 212.796875 263.070312 L 211.824219 263.894531 Z M 213.246094 263.144531 L 214.820312 263.21875 L 213.847656 264.195312 L 212.199219 264.042969 Z M 213.621094 262.84375 L 214.597656 262.019531 L 216.097656 262.019531 L 215.195312 262.917969 Z M 216.546875 261.945312 L 218.046875 261.945312 C 217.746094 262.320312 217.445312 262.621094 217.144531 262.996094 L 216.769531 262.996094 L 215.570312 262.917969 Z M 216.921875 261.644531 L 217.894531 260.746094 L 219.320312 260.671875 C 219.019531 261.046875 218.71875 261.34375 218.421875 261.644531 Z M 219.695312 260.597656 L 221.195312 260.519531 C 220.894531 260.894531 220.59375 261.269531 220.367188 261.644531 L 218.871094 261.644531 Z M 221.644531 260.445312 C 222.242188 260.445312 222.84375 260.371094 223.441406 260.296875 C 237.535156 259.394531 250.277344 259.769531 261.222656 261.269531 C 265.792969 261.871094 270.367188 262.84375 274.789062 264.042969 C 282.960938 266.367188 290.90625 269.441406 298.476562 273.339844 C 299.601562 273.867188 300.648438 274.464844 301.699219 274.988281 L 301.699219 275.066406 C 300.648438 274.613281 299.601562 274.164062 298.476562 273.714844 C 290.453125 270.417969 282.210938 267.792969 273.738281 265.84375 C 269.464844 264.867188 264.820312 264.042969 259.945312 263.445312 C 249.078125 262.09375 236.933594 261.496094 221.941406 261.570312 L 220.667969 261.570312 C 220.96875 261.195312 221.269531 260.820312 221.644531 260.445312 Z M 302.074219 275.214844 Z M 299.148438 267.492188 C 295.628906 260.671875 291.203125 252.199219 283.859375 246.652344 C 280.109375 243.800781 275.761719 241.851562 271.191406 240.878906 C 259.796875 238.253906 245.703125 240.804688 234.386719 247.402344 C 233.785156 247.777344 233.1875 248.152344 232.511719 248.527344 C 233.636719 247.699219 234.761719 246.875 235.886719 246.125 C 246.980469 238.855469 260.921875 236.003906 272.238281 238.703125 C 276.8125 239.753906 281.011719 241.851562 284.683594 244.777344 C 291.730469 250.699219 295.476562 259.320312 298.851562 266.96875 Z M 172.621094 261.644531 C 153.054688 260.894531 137.988281 258.570312 123.898438 254.148438 C 112.878906 250.625 102.382812 245.453125 92.863281 238.929688 C 92.941406 237.578125 92.941406 236.230469 93.015625 234.882812 C 101.484375 240.429688 110.554688 245.003906 120.074219 248.601562 C 134.542969 254 150.28125 257.597656 169.695312 259.921875 C 177.191406 260.820312 184.6875 261.496094 192.257812 261.945312 C 185.664062 261.945312 179.140625 261.945312 172.621094 261.644531 Z M 92.566406 238.703125 C 91.140625 237.730469 89.792969 236.753906 88.441406 235.78125 C 88.441406 234.429688 88.441406 233.082031 88.441406 231.730469 C 89.867188 232.707031 91.289062 233.679688 92.789062 234.65625 C 92.640625 236.003906 92.566406 237.355469 92.566406 238.703125 Z M 88.367188 231.359375 C 88.367188 230.007812 88.441406 228.660156 88.515625 227.308594 C 90.015625 228.359375 91.515625 229.332031 93.015625 230.308594 C 92.941406 231.65625 92.789062 233.007812 92.714844 234.355469 C 91.289062 233.308594 89.867188 232.332031 88.367188 231.359375 Z M 88.066406 231.132812 C 86.644531 230.082031 85.21875 229.035156 83.871094 227.984375 C 83.871094 226.632812 83.796875 225.285156 83.871094 223.933594 C 85.292969 224.984375 86.71875 226.035156 88.21875 227.085938 C 88.144531 228.433594 88.066406 229.78125 88.066406 231.132812 Z M 92.265625 98.285156 C 94.664062 102.859375 96.386719 107.808594 97.289062 112.828125 C 99.386719 124.449219 97.960938 136.371094 96.238281 146.492188 C 94.8125 154.964844 92.941406 163.507812 91.140625 171.757812 C 88.367188 184.652344 85.445312 197.996094 84.167969 211.265625 C 83.796875 214.9375 83.570312 218.914062 83.496094 223.109375 C 82.070312 222.0625 80.722656 220.9375 79.371094 219.886719 C 79.222656 214.714844 79.371094 209.542969 79.820312 204.367188 C 81.023438 191.25 83.796875 178.054688 86.570312 165.382812 C 88.21875 157.660156 89.941406 149.640625 91.289062 141.691406 C 92.941406 131.871094 94.363281 120.328125 92.488281 109.007812 C 91.664062 104.058594 90.167969 99.261719 87.917969 94.761719 C 87.09375 93.1875 86.269531 91.6875 85.292969 90.1875 C 86.042969 90.5625 86.792969 90.9375 87.542969 91.3125 C 89.34375 93.488281 90.917969 95.8125 92.265625 98.285156 Z M 84.394531 89.4375 C 83.570312 89.0625 82.746094 88.765625 81.921875 88.464844 C 81.472656 87.714844 81.097656 86.964844 80.570312 86.289062 C 81.394531 86.664062 82.144531 87.039062 82.894531 87.488281 C 83.421875 88.089844 83.945312 88.765625 84.394531 89.4375 Z M 79.671875 85.539062 C 78.847656 85.164062 78.023438 84.867188 77.125 84.566406 C 76.675781 83.816406 76.300781 83.066406 75.847656 82.316406 C 76.597656 82.691406 77.421875 83.066406 78.171875 83.515625 C 78.699219 84.191406 79.222656 84.867188 79.671875 85.539062 Z M 75.023438 81.566406 C 74.199219 81.191406 73.300781 80.894531 72.476562 80.59375 C 72.101562 79.769531 71.652344 79.019531 71.203125 78.269531 C 72.027344 78.644531 72.851562 79.09375 73.601562 79.542969 C 74.050781 80.144531 74.5 80.816406 75.023438 81.566406 Z M 70.300781 77.519531 C 69.402344 77.144531 68.578125 76.769531 67.679688 76.46875 C 67.304688 75.644531 66.855469 74.820312 66.40625 74.070312 C 67.230469 74.445312 68.054688 74.894531 68.804688 75.417969 C 69.328125 76.019531 69.851562 76.769531 70.300781 77.519531 Z M 65.582031 73.320312 C 64.679688 72.871094 63.78125 72.496094 62.882812 72.195312 C 62.507812 71.296875 62.058594 70.472656 61.605469 69.722656 C 62.433594 70.171875 63.257812 70.621094 64.082031 71.148438 C 64.679688 71.820312 65.128906 72.570312 65.582031 73.320312 Z M 60.859375 68.898438 C 59.957031 68.449219 59.058594 68.074219 58.160156 67.699219 C 57.785156 66.796875 57.410156 65.972656 56.960938 65.074219 C 57.785156 65.523438 58.609375 66.046875 59.433594 66.574219 C 59.957031 67.324219 60.40625 68.148438 60.859375 68.898438 Z M 54.859375 62 C 55.3125 62.75 55.761719 63.5 56.210938 64.324219 C 55.3125 63.875 54.410156 63.425781 53.511719 62.976562 C 53.136719 62.074219 52.761719 61.175781 52.3125 60.277344 C 53.136719 60.800781 53.960938 61.324219 54.785156 61.925781 Z M 52.011719 59.75 C 51.863281 59.375 51.636719 59 51.414062 58.625 C 51.1875 58.25 50.964844 57.800781 50.738281 57.425781 C 51.414062 57.953125 52.085938 58.550781 52.761719 59.152344 C 53.285156 59.824219 53.738281 60.5 54.261719 61.25 C 53.511719 60.652344 52.761719 60.199219 52.011719 59.75 Z M 51.1875 58.777344 L 51.5625 59.453125 C 50.664062 58.925781 49.765625 58.402344 48.863281 57.953125 C 48.566406 57.050781 48.191406 56.226562 47.890625 55.328125 L 47.738281 55.027344 C 48.566406 55.554688 49.390625 56.152344 50.140625 56.753906 C 50.4375 57.425781 50.8125 58.101562 51.1875 58.777344 Z M 47.140625 54.726562 L 47.441406 55.476562 C 47.738281 56.226562 48.039062 56.976562 48.339844 57.726562 C 47.289062 57.203125 46.242188 56.753906 45.191406 56.226562 C 44.964844 55.101562 44.667969 54.054688 44.292969 52.929688 C 45.339844 53.527344 46.242188 54.128906 47.140625 54.726562 Z M 48.488281 58.175781 C 48.863281 59.226562 49.164062 60.277344 49.464844 61.402344 C 48.339844 60.949219 47.140625 60.574219 46.015625 60.125 C 45.792969 58.925781 45.566406 57.800781 45.265625 56.675781 C 46.390625 57.128906 47.441406 57.652344 48.488281 58.175781 Z M 50.511719 65.449219 C 50.664062 66.125 50.8125 66.796875 50.886719 67.398438 C 50.964844 67.921875 51.039062 68.449219 51.113281 68.972656 C 49.765625 68.746094 48.339844 68.449219 46.992188 68.222656 C 46.914062 66.949219 46.839844 65.671875 46.691406 64.398438 C 47.964844 64.773438 49.238281 65.148438 50.511719 65.449219 Z M 51.1875 69.347656 C 51.339844 70.546875 51.488281 71.820312 51.5625 73.097656 C 50.0625 72.945312 48.566406 72.796875 47.066406 72.644531 C 47.066406 71.296875 47.066406 69.945312 46.992188 68.671875 C 48.414062 68.824219 49.765625 69.121094 51.1875 69.347656 Z M 47.140625 77.445312 L 51.789062 77.667969 C 51.789062 77.894531 51.789062 78.195312 51.789062 78.417969 C 51.789062 79.542969 51.789062 80.59375 51.710938 81.71875 L 46.617188 81.71875 C 46.765625 80.292969 46.839844 78.867188 46.914062 77.445312 Z M 48.863281 82.015625 L 51.789062 82.015625 C 51.710938 83.441406 51.636719 84.867188 51.5625 86.214844 L 50.511719 86.289062 C 49.089844 86.367188 47.664062 86.441406 46.164062 86.515625 C 46.316406 85.015625 46.539062 83.589844 46.691406 82.015625 Z M 50.4375 86.589844 L 51.414062 86.515625 C 50.964844 92.0625 50.0625 97.460938 49.238281 102.257812 C 48.566406 105.933594 47.816406 109.679688 47.140625 113.355469 C 44.890625 124.898438 42.492188 136.820312 42.269531 148.664062 C 42.042969 161.859375 44.515625 175.054688 49.613281 187.273438 C 49.015625 186.375 48.414062 185.402344 47.816406 184.425781 C 41.292969 171.15625 37.84375 156.539062 37.921875 141.691406 C 37.996094 129.921875 40.320312 118.152344 42.566406 106.683594 C 43.167969 103.609375 43.765625 100.460938 44.367188 97.386719 C 44.964844 94.085938 45.566406 90.488281 46.089844 86.742188 Z M 42.644531 148.742188 C 42.867188 136.894531 45.191406 124.976562 47.515625 113.429688 C 48.265625 109.832031 48.9375 106.082031 49.613281 102.335938 C 50.511719 97.535156 51.339844 92.136719 51.789062 86.515625 C 53.511719 86.441406 55.160156 86.367188 56.886719 86.289062 C 56.660156 93.335938 55.835938 100.308594 54.488281 107.207031 C 53.738281 111.480469 52.835938 115.753906 52.011719 119.953125 C 49.6875 131.574219 47.289062 143.640625 46.914062 155.636719 C 46.539062 168.007812 48.566406 180.304688 52.761719 191.921875 C 52.011719 190.875 51.261719 189.824219 50.589844 188.773438 C 45.117188 176.179688 42.417969 162.460938 42.644531 148.742188 Z M 53.363281 193.421875 C 53.660156 194.246094 54.035156 195.148438 54.335938 195.972656 C 53.8125 195.148438 53.285156 194.320312 52.761719 193.421875 C 52.238281 192.523438 51.9375 191.699219 51.5625 190.875 C 52.164062 191.773438 52.761719 192.597656 53.363281 193.421875 Z M 54.113281 194.398438 C 54.859375 195.445312 55.6875 196.496094 56.511719 197.546875 C 56.886719 198.59375 57.261719 199.644531 57.632812 200.695312 C 56.886719 199.644531 56.136719 198.519531 55.386719 197.472656 C 54.9375 196.496094 54.488281 195.523438 54.113281 194.398438 Z M 58.007812 201.894531 C 58.308594 202.792969 58.683594 203.695312 59.058594 204.59375 C 58.460938 203.695312 57.859375 202.71875 57.335938 201.746094 C 56.960938 200.917969 56.585938 200.09375 56.136719 199.269531 C 56.734375 200.167969 57.335938 200.996094 58.007812 201.894531 Z M 58.832031 203.019531 C 59.582031 203.992188 60.332031 204.96875 61.082031 206.015625 C 61.457031 207.066406 61.832031 208.191406 62.207031 209.242188 C 61.53125 208.265625 60.859375 207.292969 60.183594 206.242188 C 59.660156 205.191406 59.207031 204.070312 58.832031 203.019531 Z M 62.582031 210.289062 C 62.882812 211.191406 63.257812 212.089844 63.632812 212.988281 C 63.105469 212.164062 62.582031 211.414062 62.132812 210.589844 C 61.683594 209.691406 61.234375 208.714844 60.859375 207.816406 C 61.382812 208.640625 61.980469 209.464844 62.582031 210.289062 Z M 63.332031 211.265625 C 64.007812 212.164062 64.679688 213.066406 65.355469 213.890625 L 65.65625 214.265625 C 65.953125 215.390625 66.328125 216.4375 66.703125 217.488281 C 65.953125 216.511719 65.28125 215.464844 64.605469 214.488281 C 64.15625 213.441406 63.707031 212.316406 63.332031 211.265625 Z M 67.078125 218.539062 C 67.378906 219.4375 67.753906 220.335938 68.128906 221.238281 C 67.605469 220.335938 67.003906 219.511719 66.480469 218.613281 C 66.105469 217.789062 65.730469 216.886719 65.28125 216.0625 C 65.878906 216.886719 66.480469 217.789062 67.078125 218.539062 Z M 67.753906 219.511719 C 68.128906 220.035156 68.578125 220.5625 68.953125 221.085938 C 69.328125 221.613281 69.703125 221.984375 70.078125 222.511719 C 70.378906 223.636719 70.753906 224.683594 71.128906 225.734375 C 70.453125 224.761719 69.703125 223.710938 69.027344 222.734375 C 68.578125 221.6875 68.128906 220.636719 67.753906 219.511719 Z M 71.5 226.785156 C 71.800781 227.683594 72.175781 228.582031 72.550781 229.484375 C 72.027344 228.660156 71.5 227.757812 70.902344 226.859375 C 70.453125 225.960938 70.078125 225.136719 69.703125 224.234375 C 70.300781 225.136719 70.902344 226.035156 71.5 226.785156 Z M 72.175781 227.757812 C 72.328125 227.910156 72.476562 228.132812 72.625 228.285156 C 73.226562 229.109375 73.902344 229.859375 74.5 230.683594 C 74.800781 231.808594 75.175781 232.855469 75.550781 233.980469 C 74.800781 233.007812 74.125 231.957031 73.449219 230.90625 C 73 229.859375 72.550781 228.808594 72.175781 227.757812 Z M 75.925781 235.03125 C 76.222656 235.929688 76.597656 236.90625 76.972656 237.804688 C 76.375 236.90625 75.847656 236.082031 75.324219 235.179688 C 74.875 234.28125 74.5 233.382812 74.125 232.558594 C 74.726562 233.382812 75.324219 234.207031 75.925781 235.03125 Z M 76.597656 235.929688 C 77.273438 236.832031 78.023438 237.804688 78.773438 238.703125 C 79.074219 239.828125 79.449219 240.878906 79.820312 242.003906 C 79.148438 241.105469 78.546875 240.128906 77.875 239.230469 C 77.421875 238.105469 76.972656 237.054688 76.597656 235.929688 Z M 79.898438 242.679688 C 79.972656 242.753906 80.046875 242.902344 80.121094 242.976562 C 80.421875 243.878906 80.796875 244.777344 81.097656 245.675781 C 80.570312 244.925781 80.121094 244.101562 79.671875 243.351562 C 79.222656 242.601562 78.847656 241.554688 78.472656 240.652344 C 78.921875 241.402344 79.371094 242.078125 79.898438 242.679688 Z M 80.796875 243.878906 C 81.546875 244.851562 82.296875 245.828125 83.121094 246.800781 C 83.421875 247.925781 83.796875 249.050781 84.167969 250.175781 L 83.871094 249.726562 C 83.269531 248.902344 82.671875 248 82.070312 247.101562 C 81.546875 246.050781 81.171875 245.003906 80.796875 243.878906 Z M 83.570312 249.875 C 83.871094 250.324219 84.167969 250.699219 84.46875 251.148438 C 84.769531 252.050781 85.070312 253.023438 85.445312 253.921875 C 84.84375 253.023438 84.246094 252.050781 83.71875 251.148438 C 83.34375 250.324219 82.96875 249.425781 82.59375 248.601562 C 82.894531 249.050781 83.195312 249.5 83.570312 249.875 Z M 85.144531 251.972656 C 85.894531 252.949219 86.644531 253.921875 87.46875 254.898438 C 87.769531 256.023438 88.144531 257.148438 88.441406 258.273438 C 88.144531 257.820312 87.769531 257.371094 87.46875 256.847656 C 87.167969 256.324219 86.71875 255.722656 86.34375 255.199219 C 85.894531 254.222656 85.519531 253.097656 85.144531 251.972656 Z M 87.242188 257.070312 C 87.769531 257.820312 88.292969 258.496094 88.816406 259.246094 C 89.117188 260.222656 89.492188 261.195312 89.867188 262.09375 C 89.265625 261.195312 88.742188 260.296875 88.21875 259.394531 C 87.769531 258.496094 87.394531 257.597656 87.019531 256.621094 Z M 89.492188 260.070312 C 90.242188 261.046875 91.066406 262.019531 91.890625 262.996094 C 92.191406 264.195312 92.566406 265.320312 92.941406 266.445312 C 92.339844 265.695312 91.742188 264.867188 91.214844 264.042969 L 90.691406 263.292969 C 90.242188 262.246094 89.792969 261.195312 89.417969 260.070312 Z M 93.164062 267.34375 C 93.464844 268.316406 93.839844 269.292969 94.214844 270.34375 C 93.613281 269.367188 93.015625 268.46875 92.414062 267.492188 C 91.964844 266.59375 91.589844 265.695312 91.214844 264.792969 C 91.816406 265.695312 92.414062 266.59375 93.164062 267.34375 Z M 97.210938 275.214844 C 97.511719 276.265625 97.886719 277.238281 98.261719 278.214844 C 97.738281 277.390625 97.210938 276.5625 96.6875 275.664062 C 96.164062 274.765625 95.863281 273.789062 95.488281 272.890625 C 96.011719 273.714844 96.539062 274.464844 97.210938 275.214844 Z M 97.8125 275.964844 C 104.109375 283.835938 111.90625 290.285156 120.824219 295.007812 C 131.84375 300.78125 143.3125 303.105469 154.105469 301.753906 C 171.121094 299.503906 184.765625 289.007812 195.859375 278.964844 C 198.03125 276.9375 200.28125 274.914062 202.453125 272.890625 C 205.527344 269.96875 208.675781 267.042969 211.972656 264.195312 L 213.699219 264.34375 C 210.472656 267.644531 207.476562 271.015625 204.402344 274.390625 C 202.453125 276.488281 200.503906 278.738281 198.554688 280.835938 C 188.0625 292.15625 175.019531 304.078125 157.855469 307.300781 C 136.941406 311.125 112.878906 299.65625 99.011719 279.261719 C 98.5625 278.289062 98.113281 277.164062 97.8125 275.964844 Z M 124.421875 302.128906 C 135.589844 307.75 147.132812 309.699219 157.855469 307.75 C 175.09375 304.527344 188.136719 292.53125 198.707031 281.210938 C 200.65625 279.113281 202.679688 276.863281 204.628906 274.765625 C 207.699219 271.316406 210.773438 267.867188 214.074219 264.570312 L 215.796875 264.71875 C 212.648438 268.46875 209.648438 272.367188 206.726562 276.265625 C 205.003906 278.511719 203.203125 280.835938 201.40625 283.160156 C 192.035156 295.007812 179.066406 309.175781 161.601562 313.375 C 140.613281 318.398438 115.578125 306.777344 102.085938 285.785156 C 101.636719 285.035156 101.183594 284.285156 100.660156 283.535156 C 100.285156 282.636719 99.910156 281.738281 99.535156 280.835938 C 105.984375 289.757812 114.527344 297.105469 124.421875 302.128906 Z M 214.222656 264.195312 L 215.195312 263.21875 L 216.695312 263.292969 L 216.847656 263.292969 C 216.546875 263.667969 216.246094 264.042969 215.945312 264.417969 Z M 217.222656 263.292969 L 218.871094 263.371094 L 217.96875 264.570312 L 216.246094 264.417969 Z M 217.519531 262.996094 L 218.421875 261.945312 L 219.996094 261.945312 C 219.695312 262.320312 219.394531 262.695312 219.09375 263.070312 Z M 220.367188 261.871094 L 221.867188 261.871094 C 236.859375 261.796875 248.929688 262.394531 259.796875 263.746094 C 264.667969 264.34375 269.316406 265.167969 273.515625 266.144531 C 281.984375 268.09375 290.230469 270.714844 298.25 274.015625 C 299.375 274.464844 300.574219 274.988281 301.699219 275.441406 L 301.699219 275.515625 C 300.574219 275.140625 299.449219 274.691406 298.324219 274.316406 C 289.855469 271.542969 281.234375 269.441406 272.464844 267.867188 C 268.191406 267.117188 263.621094 266.445312 258.597656 265.84375 C 245.855469 264.34375 232.738281 263.59375 220.445312 262.996094 L 219.46875 262.917969 Z M 302.074219 275.664062 Z M 302.523438 275.890625 Z M 237.308594 244.476562 C 250.800781 234.507812 272.464844 230.457031 285.808594 242.601562 C 292.703125 248.824219 296 258.046875 298.851562 266.21875 C 298.851562 266.292969 298.851562 266.292969 298.851562 266.367188 C 295.550781 258.796875 291.804688 250.324219 284.832031 244.550781 C 281.160156 241.554688 276.886719 239.453125 272.316406 238.40625 C 260.847656 235.628906 246.828125 238.480469 235.660156 245.902344 C 235.359375 246.050781 235.136719 246.277344 234.835938 246.5 C 235.734375 245.75 236.558594 245.152344 237.308594 244.476562 Z M 116.25 242.601562 C 139.039062 252.347656 163.324219 257.746094 187.988281 261.269531 C 181.914062 260.820312 175.84375 260.222656 169.773438 259.546875 C 150.359375 257.222656 134.617188 253.625 120.226562 248.226562 C 110.703125 244.628906 101.636719 240.054688 93.089844 234.429688 C 93.164062 233.082031 93.238281 231.730469 93.390625 230.382812 C 100.660156 235.105469 108.304688 239.230469 116.25 242.601562 Z M 107.332031 120.550781 C 109.878906 132.921875 108.457031 145.589844 106.65625 156.386719 C 105.082031 165.910156 102.984375 175.578125 100.886719 184.875 C 97.960938 198.070312 94.964844 211.640625 93.464844 225.285156 C 93.316406 226.785156 93.164062 228.359375 93.015625 229.859375 C 91.515625 228.882812 90.015625 227.910156 88.515625 226.859375 C 88.667969 224.085938 88.816406 221.238281 89.117188 218.386719 C 90.542969 204.96875 93.464844 191.472656 96.3125 178.503906 C 98.261719 169.65625 100.210938 160.585938 101.710938 151.589844 C 103.433594 141.09375 104.933594 128.796875 102.535156 116.726562 C 101.484375 111.480469 99.6875 106.382812 97.0625 101.660156 C 95.5625 98.960938 93.691406 96.410156 91.589844 94.085938 C 99.386719 99.933594 105.007812 109.304688 107.332031 120.550781 Z M 88.890625 91.6875 L 88.144531 91.238281 L 87.769531 91.089844 C 87.542969 90.789062 87.242188 90.488281 86.941406 90.1875 C 87.617188 90.640625 88.292969 91.164062 88.890625 91.6875 Z M 84.246094 87.863281 C 83.871094 87.640625 83.496094 87.414062 83.121094 87.191406 C 82.820312 86.816406 82.519531 86.441406 82.144531 86.066406 C 82.894531 86.664062 83.570312 87.265625 84.246094 87.863281 Z M 79.671875 84.042969 C 79.222656 83.816406 78.847656 83.515625 78.398438 83.292969 C 78.097656 82.917969 77.796875 82.617188 77.5 82.242188 C 78.324219 82.765625 78.996094 83.367188 79.671875 84.042969 Z M 73.226562 78.417969 C 73.824219 78.945312 74.425781 79.46875 75.023438 79.992188 C 74.574219 79.691406 74.199219 79.46875 73.75 79.242188 C 73.449219 78.867188 73.152344 78.492188 72.851562 78.117188 Z M 69.554688 75.121094 C 69.851562 75.34375 70.078125 75.644531 70.378906 75.945312 C 69.929688 75.644531 69.476562 75.417969 69.027344 75.121094 C 68.726562 74.671875 68.355469 74.296875 68.054688 73.84375 C 68.578125 74.296875 69.101562 74.746094 69.554688 75.121094 Z M 64.378906 70.847656 C 64.082031 70.398438 63.78125 70.023438 63.480469 69.570312 C 64.230469 70.246094 65.054688 70.921875 65.804688 71.671875 C 65.28125 71.445312 64.832031 71.148438 64.378906 70.847656 Z M 61.082031 67.324219 C 60.632812 67.023438 60.183594 66.722656 59.734375 66.347656 C 59.433594 65.898438 59.132812 65.523438 58.832031 65.074219 L 58.757812 65 C 59.507812 65.75 60.332031 66.5 61.082031 67.324219 Z M 56.359375 62.675781 C 55.910156 62.300781 55.460938 62 54.9375 61.625 C 54.636719 61.101562 54.335938 60.652344 53.960938 60.199219 C 54.859375 61.027344 55.609375 61.773438 56.359375 62.675781 Z M 51.789062 57.726562 C 51.339844 57.351562 50.886719 56.976562 50.363281 56.601562 C 50.0625 56.078125 49.765625 55.554688 49.390625 55.027344 C 50.214844 55.925781 51.039062 56.828125 51.789062 57.726562 Z M 47.289062 52.402344 C 46.839844 51.953125 46.316406 51.503906 45.867188 51.128906 C 45.566406 50.53125 45.265625 50.003906 44.964844 49.40625 C 45.714844 50.378906 46.539062 51.429688 47.289062 52.402344 Z M 42.867188 46.632812 C 42.417969 46.179688 41.96875 45.730469 41.519531 45.28125 C 41.292969 44.683594 40.992188 44.082031 40.695312 43.484375 C 41.519531 44.53125 42.191406 45.582031 42.867188 46.632812 Z M 36.871094 36.960938 C 37.621094 38.085938 38.21875 39.285156 38.820312 40.484375 C 38.445312 39.960938 37.996094 39.433594 37.546875 38.984375 C 37.394531 38.308594 37.171875 37.636719 36.871094 36.960938 Z M 37.921875 39.808594 C 38.519531 40.558594 39.121094 41.308594 39.644531 42.058594 C 40.09375 42.882812 40.46875 43.78125 40.84375 44.605469 C 40.167969 43.933594 39.496094 43.257812 38.746094 42.65625 C 38.519531 41.683594 38.21875 40.785156 37.921875 39.808594 Z M 38.96875 43.257812 C 39.71875 44.007812 40.46875 44.757812 41.21875 45.433594 C 41.667969 46.40625 42.042969 47.382812 42.417969 48.355469 C 41.59375 47.679688 40.769531 47.082031 39.871094 46.40625 C 39.570312 45.433594 39.34375 44.308594 38.96875 43.257812 Z M 39.945312 46.929688 C 40.84375 47.605469 41.742188 48.28125 42.644531 48.957031 C 43.019531 50.003906 43.390625 51.054688 43.765625 52.105469 C 43.765625 52.105469 43.765625 52.179688 43.765625 52.179688 C 42.792969 51.578125 41.742188 50.980469 40.695312 50.453125 C 40.542969 49.332031 40.320312 48.128906 39.945312 46.929688 Z M 40.769531 50.90625 C 41.820312 51.503906 42.867188 52.105469 43.84375 52.703125 C 44.140625 53.828125 44.441406 54.953125 44.742188 56.078125 C 43.617188 55.554688 42.492188 55.101562 41.292969 54.578125 C 41.292969 53.304688 41.070312 52.105469 40.769531 50.90625 Z M 41.445312 54.878906 C 42.644531 55.402344 43.765625 55.851562 44.890625 56.378906 C 45.191406 57.578125 45.417969 58.703125 45.640625 59.902344 C 44.367188 59.453125 43.167969 59.078125 41.820312 58.625 C 41.820312 57.503906 41.667969 56.226562 41.445312 54.878906 Z M 41.96875 60.574219 C 41.96875 60.050781 41.894531 59.601562 41.894531 59.078125 C 43.167969 59.453125 44.441406 59.902344 45.714844 60.351562 C 45.941406 61.550781 46.089844 62.75 46.242188 64.023438 C 44.890625 63.722656 43.46875 63.351562 42.042969 63.050781 C 42.117188 62.226562 42.042969 61.402344 41.96875 60.574219 Z M 42.117188 63.351562 C 43.542969 63.648438 44.890625 64.023438 46.316406 64.324219 C 46.464844 65.597656 46.539062 66.875 46.617188 68.148438 L 43.617188 67.699219 L 42.117188 67.472656 C 42.191406 66.125 42.191406 64.773438 42.117188 63.351562 Z M 42.117188 67.847656 L 43.617188 68.074219 L 46.691406 68.597656 C 46.765625 69.945312 46.765625 71.222656 46.765625 72.570312 L 45.492188 72.421875 L 41.96875 72.046875 C 42.042969 70.695312 42.117188 69.273438 42.117188 67.847656 Z M 41.894531 72.421875 C 43.09375 72.570312 44.292969 72.644531 45.417969 72.796875 L 46.765625 72.945312 C 46.765625 73.46875 46.765625 73.996094 46.765625 74.59375 C 46.765625 75.417969 46.691406 76.320312 46.691406 77.144531 C 44.964844 77.070312 43.316406 76.996094 41.59375 76.917969 C 41.667969 75.34375 41.820312 73.921875 41.894531 72.421875 Z M 41.445312 77.144531 C 43.167969 77.21875 44.890625 77.292969 46.617188 77.367188 C 46.539062 78.792969 46.464844 80.21875 46.316406 81.71875 C 44.515625 81.71875 42.71875 81.71875 40.917969 81.71875 C 41.144531 80.21875 41.292969 78.644531 41.445312 77.144531 Z M 46.242188 82.015625 C 46.089844 83.515625 45.941406 85.015625 45.714844 86.515625 C 43.84375 86.589844 41.96875 86.664062 40.09375 86.664062 C 40.320312 85.089844 40.617188 83.589844 40.769531 82.015625 C 42.71875 82.015625 44.515625 82.015625 46.242188 82.015625 Z M 33.347656 134.796875 C 33.347656 123.101562 35.597656 111.332031 37.769531 99.933594 C 38.59375 95.660156 39.417969 91.386719 40.167969 87.039062 C 42.042969 87.039062 43.917969 86.964844 45.792969 86.890625 C 45.265625 90.640625 44.667969 94.164062 44.140625 97.460938 C 43.542969 100.535156 42.941406 103.683594 42.34375 106.757812 C 40.09375 118.152344 37.84375 129.996094 37.695312 141.84375 C 37.621094 155.488281 40.46875 168.980469 46.089844 181.425781 C 38.144531 167.257812 33.421875 151.589844 33.347656 134.796875 Z M 49.914062 188.472656 C 50.0625 188.773438 50.289062 189.074219 50.511719 189.375 L 50.886719 190.273438 C 50.589844 189.675781 50.214844 189.074219 49.914062 188.472656 Z M 54.410156 196.722656 L 55.085938 197.695312 C 55.234375 198.070312 55.386719 198.371094 55.535156 198.746094 C 55.160156 198.070312 54.785156 197.394531 54.410156 196.722656 Z M 58.910156 205.042969 C 59.132812 205.417969 59.433594 205.792969 59.660156 206.242188 C 59.882812 206.691406 59.957031 206.992188 60.183594 207.367188 C 59.808594 206.542969 59.359375 205.792969 58.910156 205.042969 Z M 63.707031 213.738281 L 64.304688 214.640625 L 64.753906 215.6875 Z M 68.054688 221.835938 C 68.277344 222.210938 68.503906 222.585938 68.726562 222.886719 C 68.953125 223.1875 69.027344 223.558594 69.179688 223.933594 C 68.804688 223.261719 68.429688 222.585938 68.054688 221.835938 Z M 72.476562 230.007812 C 72.703125 230.382812 72.925781 230.757812 73.226562 231.132812 L 73.75 232.332031 C 73.226562 231.582031 72.851562 230.757812 72.476562 230.007812 Z M 76.75 238.179688 C 76.972656 238.554688 77.273438 239.003906 77.5 239.378906 C 77.722656 239.753906 77.796875 240.203125 78.023438 240.652344 C 77.648438 239.828125 77.199219 239.003906 76.75 238.179688 Z M 81.097656 246.277344 L 81.769531 247.25 C 81.921875 247.625 82.070312 248 82.222656 248.375 C 81.769531 247.699219 81.394531 246.953125 81.097656 246.277344 Z M 85.144531 254.148438 C 85.445312 254.597656 85.742188 255.046875 86.042969 255.496094 C 86.195312 255.949219 86.417969 256.398438 86.570312 256.847656 C 86.042969 255.949219 85.59375 255.046875 85.144531 254.148438 Z M 89.417969 262.246094 L 90.316406 263.519531 C 90.542969 264.042969 90.765625 264.570312 90.917969 265.019531 C 90.390625 264.121094 89.867188 263.144531 89.417969 262.246094 Z M 93.539062 270.191406 C 93.839844 270.640625 94.140625 271.089844 94.4375 271.542969 L 94.589844 271.691406 C 94.8125 272.292969 95.039062 272.816406 95.261719 273.414062 C 94.664062 272.367188 94.140625 271.242188 93.539062 270.191406 Z M 97.8125 278.289062 C 97.886719 278.4375 97.960938 278.589844 98.113281 278.738281 C 98.261719 279.039062 98.488281 279.261719 98.636719 279.5625 C 98.785156 280.089844 99.011719 280.539062 99.238281 281.0625 C 98.785156 280.164062 98.261719 279.261719 97.8125 278.289062 Z M 209.050781 277.914062 C 207.476562 280.3125 205.828125 282.863281 204.179688 285.261719 C 195.332031 298.378906 182.890625 314.125 165.273438 319.222656 C 141.4375 326.195312 117.226562 311.277344 105.683594 292.984375 C 104.257812 290.734375 102.984375 288.410156 101.859375 286.085938 C 108.382812 295.980469 117.375 304.003906 128.019531 309.25 C 139.265625 314.722656 150.882812 316.222656 161.601562 313.675781 C 179.140625 309.476562 192.183594 295.230469 201.554688 283.3125 C 203.351562 281.0625 205.152344 278.664062 206.875 276.414062 C 209.875 272.515625 212.875 268.542969 216.097656 264.71875 L 217.820312 264.867188 C 214.746094 269.140625 211.898438 273.566406 209.050781 277.914062 Z M 257.472656 268.46875 C 250.425781 267.71875 243.230469 267.042969 236.261719 266.367188 C 230.339844 265.84375 224.417969 265.242188 218.421875 264.644531 L 219.320312 263.445312 L 220.519531 263.519531 C 232.8125 264.121094 245.929688 264.867188 258.671875 266.367188 C 263.695312 266.96875 268.265625 267.644531 272.539062 268.394531 C 281.234375 269.96875 289.855469 272.066406 298.324219 274.839844 C 299.523438 275.214844 300.722656 275.664062 301.921875 276.039062 C 301.921875 276.113281 301.921875 276.113281 301.921875 276.191406 C 287.15625 271.917969 271.789062 269.96875 257.472656 268.46875 Z M 302.296875 276.191406 C 302.296875 276.191406 302.296875 276.113281 302.296875 276.113281 L 302.375 276.113281 L 302.375 276.191406 Z M 302.824219 276.339844 L 302.824219 276.265625 L 302.898438 276.265625 C 302.898438 276.265625 302.898438 276.339844 302.898438 276.339844 Z M 303.273438 276.488281 Z M 348.324219 314.199219 C 344.199219 307.300781 339.179688 301.003906 333.332031 295.457031 C 326.585938 289.160156 319.015625 283.835938 310.84375 279.5625 C 319.6875 283.386719 327.933594 288.410156 335.355469 294.558594 C 341.5 299.804688 346.824219 305.953125 351.097656 312.773438 C 362.941406 331.59375 365.9375 352.582031 358.890625 367.804688 C 363.613281 353.484375 359.566406 332.640625 348.324219 314.199219 Z M 362.339844 340.886719 C 360.691406 330.769531 356.941406 321.171875 351.472656 312.550781 C 347.199219 305.652344 341.875 299.503906 335.730469 294.257812 C 328.683594 288.410156 320.8125 283.535156 312.417969 279.789062 C 321.488281 283.011719 330.03125 287.585938 337.828125 293.28125 C 359.191406 309.328125 373.433594 341.636719 359.867188 366.601562 C 362.863281 359.179688 363.765625 350.335938 362.339844 340.886719 Z M 362.339844 340.886719 "/></g></svg>