<svg version="1.2" xmlns="http://www.w3.org/2000/svg" viewBox="0 0 170 191" width="170" height="191"><defs><clipPath clipPathUnits="userSpaceOnUse" id="cp1"><path d="m32.33 0.48h105.34v149.52h-105.34z"/></clipPath><clipPath clipPathUnits="userSpaceOnUse" id="cp2"><path d="m0.35 131.33h169v59.15h-169z"/></clipPath></defs><style>.a{fill:#fff}</style><g clip-path="url(#cp1)"><path class="a" d="m84.8 149q-0.3 0-0.6-0.1-0.2 0-0.3 0-0.2 0-0.3 0h-0.1q-0.1 0-0.2 0h-0.1q-0.1-0.1-0.2-0.1h-0.1q-0.1 0-0.3 0-0.1-0.1-0.2-0.1 0 0-0.1 0-0.1 0-0.3 0c0 0-0.1-0.1-0.2-0.1q0 0-0.1 0-0.1-0.1-0.3-0.1-0.1 0-0.2-0.1 0 0-0.1 0-0.1 0-0.2-0.1h-0.1q-0.1 0-0.2-0.1-0.1 0-0.1 0-0.1 0-0.2-0.1-0.1 0-0.3-0.1 0 0-0.1 0-0.1-0.1-0.2-0.1-0.1-0.1-0.2-0.1-0.1 0-0.2-0.1c0 0-0.1 0-0.2-0.1q-0.1 0-0.2-0.1-0.1-0.1-0.3-0.1-0.1-0.1-0.2-0.2-0.2-0.1-0.3-0.2-0.2 0-0.3-0.1-0.1-0.1-0.3-0.2-0.1-0.1-0.2-0.2c0 0-0.1 0-0.1-0.1q-0.1 0-0.2-0.1-0.1-0.1-0.2-0.1 0-0.1-0.1-0.2-0.1 0-0.2-0.1c0 0-0.1-0.1-0.1-0.1q-0.1-0.1-0.2-0.2 0 0-0.1-0.1-0.1 0-0.1-0.1-0.1-0.1-0.1-0.1-0.1-0.1-0.1-0.1-0.1-0.1-0.1-0.1l-39.5-41c-2.3-2.5-3.6-5.7-3.5-9.1 0-3.3 1.4-6.5 3.8-8.8 2.4-2.3 5.5-3.6 8.8-3.6 3.5 0 6.8 1.4 9.2 3.9l17.6 18.3v-91.6c0-7 5.7-12.7 12.7-12.7 7 0 12.6 5.7 12.6 12.7v91.6l17.7-18.3c2.4-2.5 5.7-3.9 9.1-3.9 3.3 0 6.5 1.3 8.8 3.5 2.5 2.4 3.8 5.6 3.9 8.9 0.1 3.4-1.2 6.6-3.5 9.1l-39.5 41q-0.1 0-0.1 0.1-0.1 0-0.1 0.1-0.1 0.1-0.1 0.1c-0.1 0-0.2 0.2-0.2 0.2q-0.1 0.1-0.2 0.1-0.1 0.1-0.2 0.2-0.1 0.1-0.1 0.1-0.1 0.1-0.2 0.1-0.1 0.1-0.2 0.2 0 0.1-0.1 0.1-0.1 0.1-0.2 0.1-0.1 0.1-0.2 0.2-0.1 0.1-0.2 0.2-0.2 0.1-0.3 0.1-0.1 0.1-0.3 0.2-0.1 0.1-0.3 0.2-0.1 0-0.2 0.1-0.1 0.1-0.3 0.1-0.1 0.1-0.1 0.1-0.1 0-0.2 0.1-0.1 0-0.2 0.1-0.1 0-0.2 0.1-0.1 0-0.2 0-0.1 0.1-0.2 0.1-0.1 0.1-0.2 0.1c0 0-0.1 0-0.2 0q-0.1 0.1-0.2 0.1-0.1 0.1-0.2 0.1-0.1 0-0.2 0 0 0.1-0.1 0.1l-0.8 0.3h-0.5q-0.1 0-0.2 0h-0.1q-0.2 0-0.3 0.1-0.1 0-0.3 0-0.2 0-0.3 0-0.2 0-0.3 0-0.3 0.1-0.6 0.1zm-1.2-4.6q0.1 0 0.2 0 0.1 0.1 0.2 0.1 0.1 0 0.2 0 0.1 0 0.2 0 0.2 0 0.4 0 0.2 0 0.4 0 0.1 0 0.1 0h0.1q0.1 0 0.2 0 0.1 0 0.1-0.1h0.1q0.1 0 0.1 0h0.1q0.1 0 0.2 0l0.4-0.1 0.3-0.1c0.1 0 0.2 0 0.2 0l0.1-0.1q0 0 0.1 0 0.1 0 0.2-0.1h0.1q0 0 0.1 0 0.1-0.1 0.2-0.1h0.1q0 0 0-0.1h0.1q0.1 0 0.1-0.1h0.1q0 0 0 0 0.1 0 0.1 0 0.1-0.1 0.2-0.1 0.1-0.1 0.2-0.1 0.1-0.1 0.2-0.1 0-0.1 0.1-0.1 0.1-0.1 0.2-0.1 0.1-0.1 0.2-0.2 0.1 0 0.1-0.1 0.1 0 0.1 0 0.1-0.1 0.1-0.1 0.1-0.1 0.2-0.1 0-0.1 0-0.1l0.1-0.1q0.1 0 0.1-0.1 0.1 0 0.2-0.1c0 0 0.1-0.1 0.1-0.1q0 0 0 0l0.2-0.2q0 0 0 0l39.5-41c1.5-1.6 2.3-3.7 2.3-5.9-0.1-2.2-1-4.2-2.6-5.7-1.5-1.5-3.5-2.3-5.7-2.3-2.2 0-4.3 0.8-5.9 2.5l-25.3 26.3v-102.7c0-4.5-3.7-8.2-8.2-8.2-4.5 0-8.2 3.7-8.2 8.2v102.7l-25.3-26.3c-1.6-1.7-3.7-2.5-6-2.5-2.1 0-4.1 0.8-5.7 2.3-1.6 1.5-2.4 3.5-2.5 5.7 0 2.2 0.8 4.3 2.3 5.9l39.5 41q0 0 0 0l0.3 0.3q0.1 0.1 0.1 0.1l0.1 0.1q0.1 0.1 0.1 0.1 0.1 0 0.1 0.1 0.1 0 0.2 0.1 0 0 0.1 0.1h0.1q0 0.1 0.1 0.1 0.1 0.1 0.2 0.2 0 0 0.1 0.1 0.1 0 0.2 0.1 0.1 0 0.2 0.1 0.1 0 0.2 0.1 0 0 0.1 0l0.1 0.1q0.1 0 0.1 0 0.1 0.1 0.2 0.1 0.1 0 0.1 0.1 0 0 0.1 0 0.1 0 0.2 0.1 0 0 0.1 0h0.1q0.1 0.1 0.1 0.1h0.1q0 0 0.1 0l0.1 0.1q0 0 0.1 0 0.1 0 0.2 0l0.1 0.1c0 0 0.1 0 0.1 0q0.1 0 0.2 0v0.1q0.1 0 0.2 0 0.1 0 0.2 0z"/></g><g clip-path="url(#cp2)"><path class="a" d="m157.1 190.4h-144.7c-6.6 0-12.1-5.4-12.1-12.1v-34.5c0-6.6 5.5-12.1 12.1-12.1 6.7 0 12.1 5.5 12.1 12.1v22.4h120.5v-22.4c0-6.6 5.4-12.1 12.1-12.1 6.7 0 12.1 5.5 12.1 12.1v34.5q0 1.9-0.5 3.6c-1.6 5.1-6.3 8.5-11.6 8.5zm-144.7-54.2c-4.2 0-7.6 3.4-7.6 7.6v34.5c0 4.3 3.4 7.7 7.6 7.7h144.7c3.4 0 6.3-2.2 7.3-5.4q0.4-1.1 0.4-2.3v-34.5c0-4.2-3.5-7.6-7.7-7.6-4.2 0-7.6 3.4-7.6 7.6v26.9h-129.4v-26.9c0-4.2-3.4-7.6-7.7-7.6z"/></g></svg>